Manrope-Light.ufo
<glyph name="numbersign" format="2">
  <advance width="917"/>
  <unicode hex="0023"/>
  <note>
numbersign
</note>
  <outline>
    <contour>
      <point x="211" y="0" type="line"/>
      <point x="269" y="0" type="line"/>
      <point x="329" y="224" type="line"/>
      <point x="510" y="224" type="line"/>
      <point x="451" y="0" type="line"/>
      <point x="509" y="0" type="line"/>
      <point x="569" y="224" type="line"/>
      <point x="780" y="224" type="line"/>
      <point x="795" y="280" type="line"/>
      <point x="584" y="280" type="line"/>
      <point x="631" y="455" type="line"/>
      <point x="842" y="455" type="line"/>
      <point x="857" y="511" type="line"/>
      <point x="646" y="511" type="line"/>
      <point x="702" y="720" type="line"/>
      <point x="644" y="720" type="line"/>
      <point x="588" y="511" type="line"/>
      <point x="406" y="511" type="line"/>
      <point x="462" y="720" type="line"/>
      <point x="404" y="720" type="line"/>
      <point x="348" y="511" type="line"/>
      <point x="137" y="511" type="line"/>
      <point x="122" y="455" type="line"/>
      <point x="332" y="455" type="line"/>
      <point x="286" y="280" type="line"/>
      <point x="75" y="280" type="line"/>
      <point x="60" y="224" type="line"/>
      <point x="271" y="224" type="line"/>
    </contour>
    <contour>
      <point x="344" y="280" type="line"/>
      <point x="391" y="455" type="line"/>
      <point x="572" y="455" type="line"/>
      <point x="526" y="280" type="line"/>
    </contour>
  </outline>
</glyph>
<glyph name="dollar" format="2">
  <advance width="566"/>
  <unicode hex="0024"/>
  <note>
dollar
</note>
  <outline>
    <contour>
      <point x="251" y="-98" type="line"/>
      <point x="309" y="-98" type="line"/>
      <point x="309" y="20" type="line"/>
      <point x="251" y="20" type="line"/>
    </contour>
    <contour>
      <point x="251" y="702" type="line"/>
      <point x="309" y="702" type="line"/>
      <point x="309" y="820" type="line"/>
      <point x="251" y="820" type="line"/>
    </contour>
    <contour>
      <point x="291" y="-15" type="curve" smooth="yes"/>
      <point x="426" y="-15"/>
      <point x="535" y="56"/>
      <point x="535" y="192" type="curve" smooth="yes"/>
      <point x="535" y="328"/>
      <point x="425" y="362"/>
      <point x="374" y="378" type="curve" smooth="yes"/>
      <point x="236" y="421" type="line" smooth="yes"/>
      <point x="175" y="440"/>
      <point x="107" y="466"/>
      <point x="107" y="543" type="curve" smooth="yes"/>
      <point x="107" y="624"/>
      <point x="181" y="679"/>
      <point x="277" y="679" type="curve" smooth="yes"/>
      <point x="378" y="678"/>
      <point x="461" y="616"/>
      <point x="475" y="514" type="curve"/>
      <point x="532" y="525" type="line"/>
      <point x="511" y="658"/>
      <point x="407" y="735"/>
      <point x="277" y="735" type="curve" smooth="yes"/>
      <point x="148" y="735"/>
      <point x="49" y="662"/>
      <point x="49" y="541" type="curve" smooth="yes"/>
      <point x="49" y="418"/>
      <point x="152" y="385"/>
      <point x="192" y="373" type="curve" smooth="yes"/>
      <point x="348" y="324" type="line" smooth="yes"/>
      <point x="409" y="306"/>
      <point x="480" y="282"/>
      <point x="480" y="192" type="curve" smooth="yes"/>
      <point x="480" y="92"/>
      <point x="394" y="41"/>
      <point x="292" y="41" type="curve" smooth="yes"/>
      <point x="186" y="41"/>
      <point x="102" y="98"/>
      <point x="78" y="196" type="curve"/>
      <point x="22" y="186" type="line"/>
      <point x="47" y="57"/>
      <point x="156" y="-15"/>
    </contour>
  </outline>
</glyph>
<glyph name="ampersand" format="2">
  <advance width="646"/>
  <unicode hex="0026"/>
  <note>
ampersand
</note>
  <outline>
    <contour>
      <point x="299" y="-15" type="curve" smooth="yes"/>
      <point x="344" y="-15"/>
      <point x="390" y="-10"/>
      <point x="428" y="9" type="curve" smooth="yes"/>
      <point x="459" y="23"/>
      <point x="493" y="48"/>
      <point x="512" y="76" type="curve"/>
      <point x="594" y="-2" type="line"/>
      <point x="633" y="39" type="line"/>
      <point x="539" y="126" type="line"/>
      <point x="546" y="147"/>
      <point x="551" y="177"/>
      <point x="551" y="236" type="curve" smooth="yes"/>
      <point x="551" y="340" type="line"/>
      <point x="494" y="340" type="line"/>
      <point x="495" y="228" type="line" smooth="yes"/>
      <point x="495" y="210"/>
      <point x="494" y="192"/>
      <point x="491" y="172" type="curve"/>
      <point x="247" y="398" type="line" smooth="yes"/>
      <point x="228" y="415"/>
      <point x="210" y="431"/>
      <point x="194" y="448" type="curve" smooth="yes"/>
      <point x="166" y="482"/>
      <point x="153" y="505"/>
      <point x="153" y="548" type="curve" smooth="yes"/>
      <point x="153" y="599"/>
      <point x="174" y="639"/>
      <point x="217" y="660" type="curve" smooth="yes"/>
      <point x="242" y="672"/>
      <point x="271" y="678"/>
      <point x="301" y="678" type="curve" smooth="yes"/>
      <point x="336" y="678"/>
      <point x="373" y="670"/>
      <point x="400" y="650" type="curve" smooth="yes"/>
      <point x="417" y="638"/>
      <point x="430" y="623"/>
      <point x="438" y="603" type="curve"/>
      <point x="494" y="622" type="line"/>
      <point x="482" y="650"/>
      <point x="463" y="675"/>
      <point x="438" y="693" type="curve" smooth="yes"/>
      <point x="402" y="722"/>
      <point x="349" y="735"/>
      <point x="298" y="735" type="curve" smooth="yes"/>
      <point x="263" y="735"/>
      <point x="226" y="728"/>
      <point x="192" y="712" type="curve" smooth="yes"/>
      <point x="129" y="682"/>
      <point x="92" y="618"/>
      <point x="92" y="547" type="curve" smooth="yes"/>
      <point x="92" y="480"/>
      <point x="121" y="442"/>
      <point x="175" y="388" type="curve"/>
      <point x="146" y="376"/>
      <point x="117" y="359"/>
      <point x="96" y="333" type="curve" smooth="yes"/>
      <point x="64" y="294"/>
      <point x="49" y="242"/>
      <point x="50" y="194" type="curve" smooth="yes"/>
      <point x="52" y="141"/>
      <point x="69" y="93"/>
      <point x="104" y="56" type="curve" smooth="yes"/>
      <point x="149" y="7"/>
      <point x="218" y="-15"/>
    </contour>
    <contour>
      <point x="299" y="42" type="curve" smooth="yes"/>
      <point x="241" y="42"/>
      <point x="180" y="58"/>
      <point x="147" y="97" type="curve"/>
      <point x="123" y="122"/>
      <point x="111" y="158"/>
      <point x="110" y="196" type="curve" smooth="yes"/>
      <point x="110" y="233"/>
      <point x="120" y="269"/>
      <point x="142" y="295" type="curve" smooth="yes"/>
      <point x="161" y="319"/>
      <point x="190" y="335"/>
      <point x="221" y="344" type="curve"/>
      <point x="470" y="118" type="line"/>
      <point x="460" y="104"/>
      <point x="446" y="85"/>
      <point x="408" y="63" type="curve" smooth="yes"/>
      <point x="376" y="45"/>
      <point x="342" y="42"/>
    </contour>
  </outline>
</glyph>
<glyph name="parenleft" format="2">
  <advance width="417"/>
  <unicode hex="0028"/>
  <note>
parenleft
</note>
  <outline>
    <contour>
      <point x="330" y="-176" type="curve"/>
      <point x="373" y="-141" type="line"/>
      <point x="259" y="-10"/>
      <point x="194" y="164"/>
      <point x="194" y="330" type="curve" smooth="yes"/>
      <point x="194" y="499"/>
      <point x="258" y="666"/>
      <point x="373" y="802" type="curve"/>
      <point x="330" y="836" type="line"/>
      <point x="212" y="701"/>
      <point x="139" y="514"/>
      <point x="140" y="330" type="curve" smooth="yes"/>
      <point x="139" y="146"/>
      <point x="212" y="-41"/>
    </contour>
  </outline>
</glyph>
<glyph name="asterisk" format="2">
  <advance width="427"/>
  <unicode hex="002A"/>
  <note>
asterisk
</note>
  <outline>
    <contour>
      <point x="121" y="398" type="line"/>
      <point x="199" y="507" type="line"/>
      <point x="275" y="398" type="line"/>
      <point x="320" y="431" type="line"/>
      <point x="241" y="537" type="line"/>
      <point x="367" y="577" type="line"/>
      <point x="350" y="629" type="line"/>
      <point x="225" y="587" type="line"/>
      <point x="226" y="720" type="line"/>
      <point x="171" y="720" type="line"/>
      <point x="173" y="587" type="line"/>
      <point x="47" y="629" type="line"/>
      <point x="30" y="577" type="line"/>
      <point x="157" y="537" type="line"/>
      <point x="77" y="431" type="line"/>
    </contour>
  </outline>
</glyph>
<glyph name="plus" format="2">
  <advance width="578"/>
  <unicode hex="002B"/>
  <note>
plus
</note>
  <outline>
    <contour>
      <point x="263" y="131" type="line"/>
      <point x="316" y="131" type="line"/>
      <point x="316" y="334" type="line"/>
      <point x="518" y="334" type="line"/>
      <point x="518" y="386" type="line"/>
      <point x="316" y="386" type="line"/>
      <point x="316" y="589" type="line"/>
      <point x="263" y="589" type="line"/>
      <point x="263" y="386" type="line"/>
      <point x="60" y="386" type="line"/>
      <point x="60" y="334" type="line"/>
      <point x="263" y="334" type="line"/>
    </contour>
  </outline>
</glyph>
<glyph name="comma" format="2">
  <advance width="253"/>
  <unicode hex="002C"/>
  <note>
comma
</note>
  <outline>
    <contour>
      <point x="60" y="-97" type="line"/>
      <point x="102" y="-106"/>
      <point x="133" y="-78"/>
      <point x="133" y="-25" type="curve" smooth="yes"/>
      <point x="133" y="98" type="line"/>
      <point x="60" y="98" type="line"/>
      <point x="60" y="0" type="line"/>
      <point x="99" y="0" type="line"/>
      <point x="100" y="-35"/>
      <point x="101" y="-68"/>
      <point x="64" y="-66" type="curve"/>
    </contour>
  </outline>
</glyph>
<glyph name="zero" format="2">
  <advance width="594"/>
  <unicode hex="0030"/>
  <outline>
    <contour>
      <point x="297" y="-15" type="curve" smooth="yes"/>
      <point x="424" y="-15"/>
      <point x="524" y="85"/>
      <point x="524" y="212" type="curve" smooth="yes"/>
      <point x="524" y="508" type="line" smooth="yes"/>
      <point x="524" y="635"/>
      <point x="424" y="735"/>
      <point x="297" y="735" type="curve" smooth="yes"/>
      <point x="170" y="735"/>
      <point x="70" y="635"/>
      <point x="70" y="508" type="curve" smooth="yes"/>
      <point x="70" y="212" type="line" smooth="yes"/>
      <point x="70" y="85"/>
      <point x="170" y="-15"/>
    </contour>
    <contour>
      <point x="297" y="42" type="curve" smooth="yes"/>
      <point x="204" y="42"/>
      <point x="128" y="118"/>
      <point x="128" y="210" type="curve" smooth="yes"/>
      <point x="128" y="510" type="line" smooth="yes"/>
      <point x="128" y="603"/>
      <point x="204" y="679"/>
      <point x="297" y="679" type="curve" smooth="yes"/>
      <point x="390" y="679"/>
      <point x="466" y="603"/>
      <point x="466" y="510" type="curve" smooth="yes"/>
      <point x="466" y="210" type="line" smooth="yes"/>
      <point x="466" y="118"/>
      <point x="390" y="42"/>
    </contour>
  </outline>
</glyph>
<glyph name="two" format="2">
  <advance width="562"/>
  <unicode hex="0032"/>
  <note>
two
</note>
  <outline>
    <contour>
      <point x="50" y="0" type="line"/>
      <point x="512" y="0" type="line"/>
      <point x="512" y="56" type="line"/>
      <point x="93" y="56" type="line"/>
      <point x="104" y="26" type="line"/>
      <point x="417" y="310" type="line" smooth="yes"/>
      <point x="483" y="369"/>
      <point x="512" y="422"/>
      <point x="512" y="508" type="curve" smooth="yes"/>
      <point x="512" y="633"/>
      <point x="413" y="735"/>
      <point x="285" y="735" type="curve" smooth="yes"/>
      <point x="156" y="735"/>
      <point x="56" y="636"/>
      <point x="56" y="509" type="curve"/>
      <point x="114" y="509" type="line"/>
      <point x="114" y="600"/>
      <point x="187" y="679"/>
      <point x="284" y="679" type="curve" smooth="yes"/>
      <point x="378" y="679"/>
      <point x="453" y="603"/>
      <point x="453" y="509" type="curve" smooth="yes"/>
      <point x="453" y="454"/>
      <point x="440" y="408"/>
      <point x="382" y="355" type="curve" smooth="yes"/>
      <point x="51" y="55" type="line"/>
    </contour>
  </outline>
</glyph>
<glyph name="three" format="2">
  <advance width="544"/>
  <unicode hex="0033"/>
  <note>
three
</note>
  <outline>
    <contour>
      <point x="259" y="-15" type="curve" smooth="yes"/>
      <point x="391" y="-15"/>
      <point x="484" y="78"/>
      <point x="484" y="218" type="curve" smooth="yes"/>
      <point x="484" y="372"/>
      <point x="370" y="470"/>
      <point x="215" y="441" type="curve"/>
      <point x="216" y="414" type="line"/>
      <point x="476" y="663" type="line"/>
      <point x="476" y="720" type="line"/>
      <point x="69" y="720" type="line"/>
      <point x="69" y="664" type="line"/>
      <point x="444" y="664" type="line"/>
      <point x="431" y="694" type="line"/>
      <point x="139" y="418" type="line"/>
      <point x="170" y="372" type="line"/>
      <point x="196" y="385"/>
      <point x="229" y="393"/>
      <point x="257" y="393" type="curve" smooth="yes"/>
      <point x="357" y="393"/>
      <point x="423" y="325"/>
      <point x="423" y="218" type="curve" smooth="yes"/>
      <point x="423" y="112"/>
      <point x="363" y="44"/>
      <point x="258" y="42" type="curve" smooth="yes"/>
      <point x="184" y="40"/>
      <point x="121" y="79"/>
      <point x="94" y="156" type="curve"/>
      <point x="40" y="138" type="line"/>
      <point x="70" y="43"/>
      <point x="153" y="-15"/>
    </contour>
  </outline>
</glyph>
<glyph name="four" format="2">
  <advance width="583"/>
  <unicode hex="0034"/>
  <note>
four
</note>
  <outline>
    <contour>
      <point x="393" y="0" type="line"/>
      <point x="451" y="0" type="line"/>
      <point x="451" y="146" type="line"/>
      <point x="533" y="146" type="line"/>
      <point x="533" y="202" type="line"/>
      <point x="451" y="202" type="line"/>
      <point x="451" y="420" type="line"/>
      <point x="393" y="420" type="line"/>
      <point x="393" y="202" type="line"/>
      <point x="114" y="202" type="line"/>
      <point x="359" y="720" type="line"/>
      <point x="294" y="720" type="line"/>
      <point x="50" y="202" type="line"/>
      <point x="50" y="146" type="line"/>
      <point x="393" y="146" type="line"/>
    </contour>
  </outline>
</glyph>
<glyph name="five" format="2">
  <advance width="575"/>
  <unicode hex="0035"/>
  <note>
five
</note>
  <outline>
    <contour>
      <point x="282" y="-15" type="curve" smooth="yes"/>
      <point x="415" y="-15"/>
      <point x="525" y="95"/>
      <point x="525" y="226" type="curve" smooth="yes"/>
      <point x="525" y="359"/>
      <point x="418" y="465"/>
      <point x="286" y="465" type="curve" smooth="yes"/>
      <point x="216" y="465"/>
      <point x="151" y="433"/>
      <point x="109" y="382" type="curve"/>
      <point x="126" y="358" type="line"/>
      <point x="147" y="696" type="line"/>
      <point x="113" y="664" type="line"/>
      <point x="474" y="664" type="line"/>
      <point x="474" y="720" type="line"/>
      <point x="91" y="720" type="line"/>
      <point x="69" y="348" type="line"/>
      <point x="124" y="321" type="line"/>
      <point x="157" y="374"/>
      <point x="211" y="410"/>
      <point x="283" y="410" type="curve" smooth="yes"/>
      <point x="382" y="410"/>
      <point x="467" y="330"/>
      <point x="467" y="226" type="curve" smooth="yes"/>
      <point x="467" y="127"/>
      <point x="388" y="42"/>
      <point x="283" y="42" type="curve" smooth="yes"/>
      <point x="203" y="42"/>
      <point x="126" y="95"/>
      <point x="105" y="180" type="curve"/>
      <point x="50" y="165" type="line"/>
      <point x="78" y="60"/>
      <point x="169" y="-15"/>
    </contour>
  </outline>
</glyph>
<glyph name="six" format="2">
  <advance width="620"/>
  <unicode hex="0036"/>
  <note>
six
</note>
  <outline>
    <contour>
      <point x="312" y="-15" type="curve" smooth="yes"/>
      <point x="444" y="-15"/>
      <point x="554" y="93"/>
      <point x="554" y="225" type="curve" smooth="yes"/>
      <point x="554" y="358"/>
      <point x="448" y="464"/>
      <point x="315" y="464" type="curve" smooth="yes"/>
      <point x="228" y="464"/>
      <point x="153" y="415"/>
      <point x="111" y="343" type="curve"/>
      <point x="128" y="323" type="line"/>
      <point x="128" y="492" type="line" smooth="yes"/>
      <point x="128" y="592"/>
      <point x="207" y="679"/>
      <point x="314" y="679" type="curve" smooth="yes"/>
      <point x="381" y="679"/>
      <point x="440" y="643"/>
      <point x="472" y="590" type="curve"/>
      <point x="518" y="624" type="line"/>
      <point x="475" y="692"/>
      <point x="400" y="735"/>
      <point x="314" y="735" type="curve" smooth="yes"/>
      <point x="177" y="735"/>
      <point x="70" y="627"/>
      <point x="70" y="489" type="curve" smooth="yes"/>
      <point x="70" y="229" type="line" smooth="yes"/>
      <point x="70" y="93"/>
      <point x="178" y="-15"/>
    </contour>
    <contour>
      <point x="312" y="42" type="curve" smooth="yes"/>
      <point x="210" y="42"/>
      <point x="128" y="124"/>
      <point x="128" y="225" type="curve" smooth="yes"/>
      <point x="128" y="327"/>
      <point x="210" y="409"/>
      <point x="312" y="409" type="curve" smooth="yes"/>
      <point x="414" y="409"/>
      <point x="496" y="327"/>
      <point x="496" y="225" type="curve" smooth="yes"/>
      <point x="496" y="123"/>
      <point x="414" y="42"/>
    </contour>
  </outline>
</glyph>
<glyph name="seven" format="2">
  <advance width="492"/>
  <unicode hex="0037"/>
  <note>
seven
</note>
  <outline>
    <contour>
      <point x="109" y="0" type="line"/>
      <point x="171" y="0" type="line"/>
      <point x="442" y="663" type="line"/>
      <point x="442" y="720" type="line"/>
      <point x="40" y="720" type="line"/>
      <point x="40" y="663" type="line"/>
      <point x="380" y="663" type="line"/>
    </contour>
  </outline>
</glyph>
<glyph name="eight" format="2">
  <advance width="570"/>
  <unicode hex="0038"/>
  <note>
eight
</note>
  <outline>
    <contour>
      <point x="284" y="-15" type="curve" smooth="yes"/>
      <point x="417" y="-15"/>
      <point x="510" y="68"/>
      <point x="510" y="198" type="curve" smooth="yes"/>
      <point x="510" y="291"/>
      <point x="463" y="365"/>
      <point x="368" y="399" type="curve"/>
      <point x="372" y="374" type="line"/>
      <point x="453" y="397"/>
      <point x="492" y="467"/>
      <point x="492" y="545" type="curve" smooth="yes"/>
      <point x="492" y="664"/>
      <point x="405" y="735"/>
      <point x="284" y="735" type="curve" smooth="yes"/>
      <point x="163" y="735"/>
      <point x="76" y="664"/>
      <point x="76" y="545" type="curve" smooth="yes"/>
      <point x="76" y="467"/>
      <point x="118" y="396"/>
      <point x="199" y="373" type="curve"/>
      <point x="199" y="399" type="line"/>
      <point x="104" y="365"/>
      <point x="60" y="291"/>
      <point x="60" y="198" type="curve" smooth="yes"/>
      <point x="60" y="68"/>
      <point x="152" y="-15"/>
    </contour>
    <contour>
      <point x="284" y="41" type="curve" smooth="yes"/>
      <point x="187" y="41"/>
      <point x="121" y="97"/>
      <point x="121" y="198" type="curve" smooth="yes"/>
      <point x="121" y="301"/>
      <point x="185" y="356"/>
      <point x="284" y="356" type="curve" smooth="yes"/>
      <point x="383" y="356"/>
      <point x="448" y="301"/>
      <point x="448" y="198" type="curve" smooth="yes"/>
      <point x="448" y="97"/>
      <point x="382" y="41"/>
    </contour>
    <contour>
      <point x="284" y="412" type="curve" smooth="yes"/>
      <point x="197" y="412"/>
      <point x="138" y="457"/>
      <point x="138" y="545" type="curve" smooth="yes"/>
      <point x="138" y="632"/>
      <point x="197" y="676"/>
      <point x="284" y="676" type="curve" smooth="yes"/>
      <point x="371" y="676"/>
      <point x="431" y="632"/>
      <point x="431" y="545" type="curve" smooth="yes"/>
      <point x="431" y="457"/>
      <point x="371" y="412"/>
    </contour>
  </outline>
</glyph>
<glyph name="less" format="2">
  <advance width="607"/>
  <unicode hex="003C"/>
  <note>
less
</note>
  <outline>
    <contour>
      <point x="373" y="82" type="line"/>
      <point x="410" y="119" type="line"/>
      <point x="213" y="315" type="line"/>
      <point x="410" y="511" type="line"/>
      <point x="373" y="548" type="line"/>
      <point x="140" y="315" type="line"/>
    </contour>
  </outline>
</glyph>
<glyph name="equal" format="2">
  <advance width="750"/>
  <unicode hex="003D"/>
  <note>
equal
</note>
  <outline>
    <contour>
      <point x="120" y="416" type="line"/>
      <point x="630" y="416" type="line"/>
      <point x="630" y="468" type="line"/>
      <point x="120" y="468" type="line"/>
    </contour>
    <contour>
      <point x="120" y="252" type="line"/>
      <point x="630" y="252" type="line"/>
      <point x="630" y="304" type="line"/>
      <point x="120" y="304" type="line"/>
    </contour>
  </outline>
</glyph>
<glyph name="question" format="2">
  <advance width="514"/>
  <unicode hex="003F"/>
  <note>
question
</note>
  <outline>
    <contour>
      <point x="214" y="197" type="curve"/>
      <point x="276" y="197" type="line"/>
      <point x="276" y="242"/>
      <point x="273" y="270"/>
      <point x="290" y="302" type="curve" smooth="yes"/>
      <point x="314" y="346"/>
      <point x="376" y="374"/>
      <point x="411" y="412" type="curve" smooth="yes"/>
      <point x="445" y="447"/>
      <point x="464" y="495"/>
      <point x="464" y="545" type="curve" smooth="yes"/>
      <point x="464" y="595"/>
      <point x="449" y="639"/>
      <point x="417" y="674" type="curve" smooth="yes"/>
      <point x="378" y="717"/>
      <point x="319" y="735"/>
      <point x="256" y="735" type="curve" smooth="yes"/>
      <point x="201" y="735"/>
      <point x="144" y="718"/>
      <point x="104" y="680" type="curve" smooth="yes"/>
      <point x="68" y="646"/>
      <point x="51" y="595"/>
      <point x="50" y="546" type="curve"/>
      <point x="109" y="546" type="line"/>
      <point x="109" y="581"/>
      <point x="119" y="615"/>
      <point x="143" y="638" type="curve" smooth="yes"/>
      <point x="168" y="665"/>
      <point x="209" y="678"/>
      <point x="255" y="678" type="curve" smooth="yes"/>
      <point x="300" y="678"/>
      <point x="344" y="668"/>
      <point x="374" y="633" type="curve" smooth="yes"/>
      <point x="393" y="612"/>
      <point x="402" y="582"/>
      <point x="402" y="545" type="curve" smooth="yes"/>
      <point x="402" y="511"/>
      <point x="395" y="480"/>
      <point x="370" y="451" type="curve" smooth="yes"/>
      <point x="330" y="407"/>
      <point x="267" y="384"/>
      <point x="236" y="326" type="curve" smooth="yes"/>
      <point x="214" y="285"/>
      <point x="214" y="251"/>
    </contour>
    <contour>
      <point x="215" y="0" type="line"/>
      <point x="276" y="0" type="line"/>
      <point x="276" y="86" type="line"/>
      <point x="215" y="86" type="line"/>
    </contour>
  </outline>
</glyph>
<glyph name="at" format="2">
  <advance width="912"/>
  <unicode hex="0040"/>
  <note>
at
</note>
  <outline>
    <contour>
      <point x="458" y="-105" type="curve" smooth="yes"/>
      <point x="529" y="-105"/>
      <point x="602" y="-90"/>
      <point x="664" y="-52" type="curve"/>
      <point x="639" y="-5" type="line"/>
      <point x="586" y="-37"/>
      <point x="524" y="-52"/>
      <point x="459" y="-52" type="curve" smooth="yes"/>
      <point x="260" y="-52"/>
      <point x="137" y="63"/>
      <point x="136" y="269" type="curve" smooth="yes"/>
      <point x="135" y="500"/>
      <point x="294" y="590"/>
      <point x="454" y="590" type="curve" smooth="yes"/>
      <point x="641" y="590"/>
      <point x="772" y="484"/>
      <point x="776" y="269" type="curve" smooth="yes"/>
      <point x="777" y="200"/>
      <point x="758" y="125"/>
      <point x="687" y="125" type="curve" smooth="yes"/>
      <point x="645" y="125"/>
      <point x="599" y="157"/>
      <point x="599" y="214" type="curve"/>
      <point x="600" y="402" type="line"/>
      <point x="554" y="402" type="line"/>
      <point x="554" y="335" type="line"/>
      <point x="573" y="356" type="line"/>
      <point x="548" y="399"/>
      <point x="496" y="416"/>
      <point x="454" y="416" type="curve" smooth="yes"/>
      <point x="369" y="416"/>
      <point x="307" y="356"/>
      <point x="309" y="269" type="curve" smooth="yes"/>
      <point x="311" y="179"/>
      <point x="367" y="124"/>
      <point x="454" y="124" type="curve" smooth="yes"/>
      <point x="500" y="124"/>
      <point x="552" y="144"/>
      <point x="574" y="183" type="curve"/>
      <point x="552" y="188" type="line"/>
      <point x="551" y="128"/>
      <point x="619" y="72"/>
      <point x="688" y="72" type="curve" smooth="yes"/>
      <point x="786" y="72"/>
      <point x="832" y="157"/>
      <point x="832" y="269" type="curve" smooth="yes"/>
      <point x="832" y="513"/>
      <point x="666" y="645"/>
      <point x="452" y="645" type="curve" smooth="yes"/>
      <point x="231" y="645"/>
      <point x="77" y="499"/>
      <point x="80" y="268" type="curve" smooth="yes"/>
      <point x="83" y="35"/>
      <point x="226" y="-105"/>
    </contour>
    <contour>
      <point x="455" y="177" type="curve" smooth="yes"/>
      <point x="398" y="177"/>
      <point x="362" y="208"/>
      <point x="362" y="270" type="curve" smooth="yes"/>
      <point x="362" y="330"/>
      <point x="396" y="364"/>
      <point x="456" y="364" type="curve" smooth="yes"/>
      <point x="509" y="364"/>
      <point x="546" y="332"/>
      <point x="546" y="270" type="curve" smooth="yes"/>
      <point x="546" y="209"/>
      <point x="510" y="177"/>
    </contour>
  </outline>
</glyph>
<glyph name="A" format="2">
  <advance width="621"/>
  <unicode hex="0041"/>
  <note>
A
</note>
  <outline>
    <contour>
      <point x="20" y="0" type="line"/>
      <point x="81" y="0" type="line"/>
      <point x="325" y="690" type="line"/>
      <point x="295" y="690" type="line"/>
      <point x="540" y="0" type="line"/>
      <point x="601" y="0" type="line"/>
      <point x="346" y="720" type="line"/>
      <point x="275" y="720" type="line"/>
    </contour>
    <contour>
      <point x="125" y="181" type="line"/>
      <point x="495" y="181" type="line"/>
      <point x="495" y="235" type="line"/>
      <point x="125" y="235" type="line"/>
    </contour>
  </outline>
</glyph>
<glyph name="B" format="2">
  <advance width="607"/>
  <unicode hex="0042"/>
  <note>
B
</note>
  <outline>
    <contour>
      <point x="70" y="0" type="line"/>
      <point x="366" y="0" type="line" smooth="yes"/>
      <point x="488" y="0"/>
      <point x="578" y="74"/>
      <point x="578" y="198" type="curve" smooth="yes"/>
      <point x="578" y="296"/>
      <point x="518" y="365"/>
      <point x="424" y="394" type="curve"/>
      <point x="425" y="370" type="line"/>
      <point x="496" y="394"/>
      <point x="542" y="462"/>
      <point x="542" y="539" type="curve" smooth="yes"/>
      <point x="542" y="642"/>
      <point x="458" y="720"/>
      <point x="346" y="720" type="curve" smooth="yes"/>
      <point x="70" y="720" type="line"/>
    </contour>
    <contour>
      <point x="128" y="56" type="line"/>
      <point x="128" y="351" type="line"/>
      <point x="364" y="351" type="line" smooth="yes"/>
      <point x="450" y="351"/>
      <point x="517" y="282"/>
      <point x="517" y="196" type="curve" smooth="yes"/>
      <point x="517" y="108"/>
      <point x="443" y="56"/>
      <point x="348" y="56" type="curve" smooth="yes"/>
    </contour>
    <contour>
      <point x="128" y="406" type="line"/>
      <point x="128" y="665" type="line"/>
      <point x="345" y="665" type="line" smooth="yes"/>
      <point x="423" y="665"/>
      <point x="482" y="615"/>
      <point x="482" y="541" type="curve" smooth="yes"/>
      <point x="482" y="464"/>
      <point x="420" y="406"/>
      <point x="345" y="406" type="curve" smooth="yes"/>
    </contour>
  </outline>
</glyph>
<glyph name="C" format="2">
  <advance width="706"/>
  <unicode hex="0043"/>
  <note>
C
</note>
  <outline>
    <contour>
      <point x="354" y="-15" type="curve" smooth="yes"/>
      <point x="511" y="-15"/>
      <point x="626" y="70"/>
      <point x="662" y="215" type="curve"/>
      <point x="605" y="231" type="line"/>
      <point x="571" y="111"/>
      <point x="482" y="41"/>
      <point x="356" y="41" type="curve" smooth="yes"/>
      <point x="187" y="41"/>
      <point x="91" y="164"/>
      <point x="91" y="358" type="curve" smooth="yes"/>
      <point x="91" y="546"/>
      <point x="181" y="680"/>
      <point x="357" y="678" type="curve" smooth="yes"/>
      <point x="487" y="677"/>
      <point x="581" y="601"/>
      <point x="608" y="477" type="curve"/>
      <point x="668" y="486" type="line"/>
      <point x="632" y="643"/>
      <point x="516" y="735"/>
      <point x="356" y="735" type="curve" smooth="yes"/>
      <point x="148" y="735"/>
      <point x="31" y="581"/>
      <point x="30" y="360" type="curve" smooth="yes"/>
      <point x="29" y="148"/>
      <point x="140" y="-15"/>
    </contour>
  </outline>
</glyph>
<glyph name="D" format="2">
  <advance width="662"/>
  <unicode hex="0044"/>
  <note>
D
</note>
  <outline>
    <contour>
      <point x="70" y="0" type="line"/>
      <point x="285" y="0" type="line" smooth="yes"/>
      <point x="300" y="0"/>
      <point x="345" y="0"/>
      <point x="379" y="5" type="curve" smooth="yes"/>
      <point x="540" y="28"/>
      <point x="620" y="175"/>
      <point x="620" y="360" type="curve" smooth="yes"/>
      <point x="620" y="544"/>
      <point x="540" y="692"/>
      <point x="379" y="715" type="curve" smooth="yes"/>
      <point x="344" y="720"/>
      <point x="301" y="720"/>
      <point x="285" y="720" type="curve" smooth="yes"/>
      <point x="70" y="720" type="line"/>
    </contour>
    <contour>
      <point x="130" y="56" type="line"/>
      <point x="130" y="664" type="line"/>
      <point x="285" y="664" type="line" smooth="yes"/>
      <point x="313" y="664"/>
      <point x="349" y="662"/>
      <point x="372" y="658" type="curve" smooth="yes"/>
      <point x="505" y="635"/>
      <point x="558" y="515"/>
      <point x="558" y="360" type="curve" smooth="yes"/>
      <point x="558" y="206"/>
      <point x="506" y="85"/>
      <point x="372" y="62" type="curve" smooth="yes"/>
      <point x="349" y="58"/>
      <point x="314" y="56"/>
      <point x="285" y="56" type="curve" smooth="yes"/>
    </contour>
  </outline>
</glyph>
<glyph name="E" format="2">
  <advance width="565"/>
  <unicode hex="0045"/>
  <note>
E
</note>
  <outline>
    <contour>
      <point x="70" y="0" type="line"/>
      <point x="515" y="0" type="line"/>
      <point x="515" y="56" type="line"/>
      <point x="128" y="56" type="line"/>
      <point x="128" y="334" type="line"/>
      <point x="455" y="334" type="line"/>
      <point x="455" y="391" type="line"/>
      <point x="128" y="391" type="line"/>
      <point x="128" y="664" type="line"/>
      <point x="515" y="664" type="line"/>
      <point x="515" y="720" type="line"/>
      <point x="70" y="720" type="line"/>
    </contour>
  </outline>
</glyph>
<glyph name="F" format="2">
  <advance width="497"/>
  <unicode hex="0046"/>
  <note>
F
</note>
  <outline>
    <contour>
      <point x="70" y="0" type="line"/>
      <point x="128" y="0" type="line"/>
      <point x="128" y="331" type="line"/>
      <point x="417" y="331" type="line"/>
      <point x="417" y="389" type="line"/>
      <point x="128" y="389" type="line"/>
      <point x="128" y="662" type="line"/>
      <point x="477" y="662" type="line"/>
      <point x="477" y="720" type="line"/>
      <point x="70" y="720" type="line"/>
    </contour>
  </outline>
</glyph>
<glyph name="G" format="2">
  <advance width="696"/>
  <unicode hex="0047"/>
  <note>
G
</note>
  <outline>
    <contour>
      <point x="356" y="-15" type="curve" smooth="yes"/>
      <point x="568" y="-15"/>
      <point x="666" y="130"/>
      <point x="666" y="321" type="curve" smooth="yes"/>
      <point x="666" y="329"/>
      <point x="666" y="346"/>
      <point x="664" y="364" type="curve"/>
      <point x="425" y="364" type="line"/>
      <point x="425" y="311" type="line"/>
      <point x="604" y="311" type="line"/>
      <point x="600" y="148"/>
      <point x="527" y="41"/>
      <point x="357" y="41" type="curve" smooth="yes"/>
      <point x="180" y="42"/>
      <point x="90" y="172"/>
      <point x="92" y="360" type="curve" smooth="yes"/>
      <point x="93" y="548"/>
      <point x="180" y="678"/>
      <point x="357" y="678" type="curve" smooth="yes"/>
      <point x="467" y="678"/>
      <point x="543" y="620"/>
      <point x="577" y="531" type="curve"/>
      <point x="634" y="549" type="line"/>
      <point x="596" y="660"/>
      <point x="501" y="734"/>
      <point x="356" y="734" type="curve" smooth="yes"/>
      <point x="145" y="734"/>
      <point x="30" y="583"/>
      <point x="30" y="360" type="curve" smooth="yes"/>
      <point x="30" y="136"/>
      <point x="146" y="-15"/>
    </contour>
  </outline>
</glyph>
<glyph name="H" format="2">
  <advance width="672"/>
  <unicode hex="0048"/>
  <note>
H
</note>
  <outline>
    <contour>
      <point x="70" y="0" type="line"/>
      <point x="128" y="0" type="line"/>
      <point x="128" y="332" type="line"/>
      <point x="545" y="332" type="line"/>
      <point x="545" y="0" type="line"/>
      <point x="602" y="0" type="line"/>
      <point x="602" y="720" type="line"/>
      <point x="545" y="720" type="line"/>
      <point x="545" y="388" type="line"/>
      <point x="128" y="388" type="line"/>
      <point x="128" y="720" type="line"/>
      <point x="70" y="720" type="line"/>
    </contour>
  </outline>
</glyph>
<glyph name="J" format="2">
  <advance width="451"/>
  <unicode hex="004A"/>
  <note>
J
</note>
  <outline>
    <contour>
      <point x="186" y="-14" type="curve" smooth="yes"/>
      <point x="254" y="-14"/>
      <point x="314" y="15"/>
      <point x="347" y="74" type="curve" smooth="yes"/>
      <point x="373" y="118"/>
      <point x="370" y="159"/>
      <point x="370" y="217" type="curve" smooth="yes"/>
      <point x="370" y="720" type="line"/>
      <point x="312" y="720" type="line"/>
      <point x="312" y="217" type="line" smooth="yes"/>
      <point x="312" y="167"/>
      <point x="312" y="134"/>
      <point x="296" y="104" type="curve" smooth="yes"/>
      <point x="272" y="59"/>
      <point x="227" y="42"/>
      <point x="187" y="42" type="curve" smooth="yes"/>
      <point x="122" y="42"/>
      <point x="72" y="86"/>
      <point x="58" y="142" type="curve"/>
      <point x="0" y="129" type="line"/>
      <point x="22" y="42"/>
      <point x="94" y="-14"/>
    </contour>
  </outline>
</glyph>
<glyph name="M" format="2">
  <advance width="836"/>
  <unicode hex="004D"/>
  <note>
M
</note>
  <outline>
    <contour>
      <point x="70" y="0" type="line"/>
      <point x="126" y="0" type="line"/>
      <point x="126" y="588" type="line"/>
      <point x="394" y="0" type="line"/>
      <point x="442" y="0" type="line"/>
      <point x="710" y="588" type="line"/>
      <point x="710" y="1" type="line"/>
      <point x="766" y="1" type="line"/>
      <point x="766" y="720" type="line"/>
      <point x="710" y="720" type="line"/>
      <point x="418" y="83" type="line"/>
      <point x="124" y="720" type="line"/>
      <point x="70" y="720" type="line"/>
    </contour>
  </outline>
</glyph>
<glyph name="N" format="2">
  <advance width="673"/>
  <unicode hex="004E"/>
  <note>
N
</note>
  <outline>
    <contour>
      <point x="70" y="0" type="line"/>
      <point x="128" y="0" type="line"/>
      <point x="128" y="618" type="line"/>
      <point x="545" y="0" type="line"/>
      <point x="603" y="0" type="line"/>
      <point x="603" y="720" type="line"/>
      <point x="545" y="720" type="line"/>
      <point x="545" y="102" type="line"/>
      <point x="128" y="720" type="line"/>
      <point x="70" y="720" type="line"/>
    </contour>
  </outline>
</glyph>
<glyph name="O" format="2">
  <advance width="715"/>
  <unicode hex="004F"/>
  <outline>
    <contour>
      <point x="357" y="-15" type="curve" smooth="yes"/>
      <point x="572" y="-15"/>
      <point x="685" y="139"/>
      <point x="685" y="360" type="curve" smooth="yes"/>
      <point x="685" y="581"/>
      <point x="572" y="734"/>
      <point x="357" y="734" type="curve" smooth="yes"/>
      <point x="142" y="734"/>
      <point x="30" y="581"/>
      <point x="30" y="360" type="curve" smooth="yes"/>
      <point x="30" y="139"/>
      <point x="142" y="-15"/>
    </contour>
    <contour>
      <point x="357" y="41" type="curve" smooth="yes"/>
      <point x="180" y="42"/>
      <point x="90" y="172"/>
      <point x="92" y="360" type="curve" smooth="yes"/>
      <point x="93" y="548"/>
      <point x="180" y="678"/>
      <point x="357" y="678" type="curve" smooth="yes"/>
      <point x="534" y="678"/>
      <point x="625" y="548"/>
      <point x="623" y="360" type="curve" smooth="yes"/>
      <point x="622" y="172"/>
      <point x="534" y="41"/>
    </contour>
  </outline>
</glyph>
<glyph name="P" format="2">
  <advance width="592"/>
  <unicode hex="0050"/>
  <note>
P
</note>
  <outline>
    <contour>
      <point x="70" y="0" type="line"/>
      <point x="128" y="0" type="line"/>
      <point x="128" y="281" type="line"/>
      <point x="342" y="281" type="line" smooth="yes"/>
      <point x="355" y="281"/>
      <point x="372" y="282"/>
      <point x="390" y="285" type="curve" smooth="yes"/>
      <point x="498" y="301"/>
      <point x="562" y="390"/>
      <point x="562" y="500" type="curve" smooth="yes"/>
      <point x="562" y="610"/>
      <point x="498" y="699"/>
      <point x="390" y="716" type="curve" smooth="yes"/>
      <point x="372" y="719"/>
      <point x="356" y="720"/>
      <point x="342" y="720" type="curve" smooth="yes"/>
      <point x="70" y="720" type="line"/>
    </contour>
    <contour>
      <point x="128" y="337" type="line"/>
      <point x="128" y="664" type="line"/>
      <point x="340" y="664" type="line" smooth="yes"/>
      <point x="352" y="664"/>
      <point x="369" y="663"/>
      <point x="385" y="660" type="curve" smooth="yes"/>
      <point x="463" y="644"/>
      <point x="502" y="574"/>
      <point x="502" y="500" type="curve" smooth="yes"/>
      <point x="502" y="426"/>
      <point x="463" y="357"/>
      <point x="385" y="341" type="curve" smooth="yes"/>
      <point x="369" y="338"/>
      <point x="352" y="337"/>
      <point x="340" y="337" type="curve" smooth="yes"/>
    </contour>
  </outline>
</glyph>
<glyph name="R" format="2">
  <advance width="621"/>
  <unicode hex="0052"/>
  <note>
R
</note>
  <outline>
    <contour>
      <point x="70" y="0" type="line"/>
      <point x="128" y="0" type="line"/>
      <point x="128" y="281" type="line"/>
      <point x="385" y="281" type="line"/>
      <point x="402" y="287" type="line"/>
      <point x="503" y="308"/>
      <point x="562" y="394"/>
      <point x="562" y="500" type="curve" smooth="yes"/>
      <point x="562" y="610"/>
      <point x="498" y="699"/>
      <point x="390" y="716" type="curve" smooth="yes"/>
      <point x="372" y="719"/>
      <point x="356" y="720"/>
      <point x="342" y="720" type="curve" smooth="yes"/>
      <point x="70" y="720" type="line"/>
    </contour>
    <contour>
      <point x="514" y="0" type="line"/>
      <point x="581" y="0" type="line"/>
      <point x="425" y="320" type="line"/>
      <point x="372" y="293" type="line"/>
    </contour>
    <contour>
      <point x="128" y="337" type="line"/>
      <point x="128" y="664" type="line"/>
      <point x="340" y="664" type="line" smooth="yes"/>
      <point x="352" y="664"/>
      <point x="369" y="663"/>
      <point x="385" y="660" type="curve" smooth="yes"/>
      <point x="463" y="644"/>
      <point x="502" y="574"/>
      <point x="502" y="500" type="curve" smooth="yes"/>
      <point x="502" y="426"/>
      <point x="463" y="357"/>
      <point x="385" y="341" type="curve" smooth="yes"/>
      <point x="369" y="338"/>
      <point x="352" y="337"/>
      <point x="340" y="337" type="curve" smooth="yes"/>
    </contour>
  </outline>
</glyph>
<glyph name="S" format="2">
  <advance width="603"/>
  <unicode hex="0053"/>
  <note>
S
</note>
  <outline>
    <contour>
      <point x="314" y="-15" type="curve" smooth="yes"/>
      <point x="456" y="-15"/>
      <point x="571" y="56"/>
      <point x="571" y="192" type="curve" smooth="yes"/>
      <point x="571" y="325"/>
      <point x="462" y="360"/>
      <point x="402" y="378" type="curve" smooth="yes"/>
      <point x="257" y="421" type="line" smooth="yes"/>
      <point x="179" y="444"/>
      <point x="121" y="471"/>
      <point x="121" y="543" type="curve" smooth="yes"/>
      <point x="121" y="624"/>
      <point x="199" y="679"/>
      <point x="300" y="679" type="curve" smooth="yes"/>
      <point x="405" y="678"/>
      <point x="493" y="617"/>
      <point x="508" y="514" type="curve"/>
      <point x="568" y="525" type="line"/>
      <point x="546" y="658"/>
      <point x="438" y="734"/>
      <point x="300" y="735" type="curve" smooth="yes"/>
      <point x="165" y="735"/>
      <point x="60" y="662"/>
      <point x="60" y="541" type="curve" smooth="yes"/>
      <point x="60" y="420"/>
      <point x="167" y="385"/>
      <point x="211" y="373" type="curve" smooth="yes"/>
      <point x="375" y="324" type="line" smooth="yes"/>
      <point x="443" y="304"/>
      <point x="513" y="279"/>
      <point x="513" y="192" type="curve" smooth="yes"/>
      <point x="513" y="92"/>
      <point x="422" y="41"/>
      <point x="316" y="41" type="curve" smooth="yes"/>
      <point x="206" y="41"/>
      <point x="116" y="96"/>
      <point x="90" y="196" type="curve"/>
      <point x="32" y="186" type="line"/>
      <point x="58" y="57"/>
      <point x="172" y="-15"/>
    </contour>
  </outline>
</glyph>
<glyph name="T" format="2">
  <advance width="593"/>
  <unicode hex="0054"/>
  <note>
T
</note>
  <outline>
    <contour>
      <point x="268" y="0" type="line"/>
      <point x="326" y="0" type="line"/>
      <point x="326" y="664" type="line"/>
      <point x="583" y="664" type="line"/>
      <point x="583" y="720" type="line"/>
      <point x="10" y="720" type="line"/>
      <point x="10" y="664" type="line"/>
      <point x="268" y="664" type="line"/>
    </contour>
  </outline>
</glyph>
<glyph name="U" format="2">
  <advance width="696"/>
  <unicode hex="0055"/>
  <note>
U
</note>
  <outline>
    <contour>
      <point x="348" y="-15" type="curve" smooth="yes"/>
      <point x="510" y="-15"/>
      <point x="626" y="94"/>
      <point x="626" y="258" type="curve" smooth="yes"/>
      <point x="626" y="720" type="line"/>
      <point x="568" y="720" type="line"/>
      <point x="568" y="269" type="line" smooth="yes"/>
      <point x="568" y="106"/>
      <point x="443" y="40"/>
      <point x="348" y="40" type="curve" smooth="yes"/>
      <point x="254" y="40"/>
      <point x="128" y="105"/>
      <point x="128" y="269" type="curve" smooth="yes"/>
      <point x="128" y="720" type="line"/>
      <point x="70" y="720" type="line"/>
      <point x="70" y="258" type="line" smooth="yes"/>
      <point x="70" y="93"/>
      <point x="186" y="-15"/>
    </contour>
  </outline>
</glyph>
<glyph name="W" format="2">
  <advance width="922"/>
  <unicode hex="0057"/>
  <note>
W
</note>
  <outline>
    <contour>
      <point x="225" y="0" type="line"/>
      <point x="284" y="0" type="line"/>
      <point x="461" y="617" type="line"/>
      <point x="638" y="0" type="line"/>
      <point x="697" y="0" type="line"/>
      <point x="904" y="720" type="line"/>
      <point x="844" y="720" type="line"/>
      <point x="668" y="101" type="line"/>
      <point x="491" y="720" type="line"/>
      <point x="430" y="720" type="line"/>
      <point x="255" y="101" type="line"/>
      <point x="78" y="720" type="line"/>
      <point x="18" y="720" type="line"/>
    </contour>
  </outline>
</glyph>
<glyph name="X" format="2">
  <advance width="590"/>
  <unicode hex="0058"/>
  <note>
X
</note>
  <outline>
    <contour>
      <point x="10" y="0" type="line"/>
      <point x="80" y="0" type="line"/>
      <point x="294" y="316" type="line"/>
      <point x="510" y="0" type="line"/>
      <point x="580" y="0" type="line"/>
      <point x="328" y="365" type="line"/>
      <point x="574" y="720" type="line"/>
      <point x="504" y="720" type="line"/>
      <point x="294" y="412" type="line"/>
      <point x="86" y="720" type="line"/>
      <point x="16" y="720" type="line"/>
      <point x="261" y="365" type="line"/>
    </contour>
  </outline>
</glyph>
<glyph name="Y" format="2">
  <advance width="538"/>
  <unicode hex="0059"/>
  <note>
Y
</note>
  <outline>
    <contour>
      <point x="240" y="0" type="line"/>
      <point x="298" y="0" type="line"/>
      <point x="298" y="304" type="line"/>
      <point x="538" y="720" type="line"/>
      <point x="471" y="720" type="line"/>
      <point x="269" y="370" type="line"/>
      <point x="66" y="720" type="line"/>
      <point x="0" y="720" type="line"/>
      <point x="240" y="304" type="line"/>
    </contour>
  </outline>
</glyph>
<glyph name="Z" format="2">
  <advance width="598"/>
  <unicode hex="005A"/>
  <note>
Z
</note>
  <outline>
    <contour>
      <point x="50" y="0" type="line"/>
      <point x="546" y="0" type="line"/>
      <point x="546" y="56" type="line"/>
      <point x="143" y="56" type="line"/>
      <point x="548" y="703" type="line"/>
      <point x="548" y="720" type="line"/>
      <point x="55" y="720" type="line"/>
      <point x="55" y="664" type="line"/>
      <point x="456" y="664" type="line"/>
      <point x="50" y="15" type="line"/>
    </contour>
  </outline>
</glyph>
<glyph name="a" format="2">
  <advance width="549"/>
  <unicode hex="0061"/>
  <note>
a
</note>
  <outline>
    <contour>
      <point x="226" y="-15" type="curve" smooth="yes"/>
      <point x="326" y="-15"/>
      <point x="414" y="31"/>
      <point x="450" y="120" type="curve"/>
      <point x="436" y="138" type="line"/>
      <point x="436" y="0" type="line"/>
      <point x="489" y="0" type="line"/>
      <point x="489" y="335" type="line"/>
      <point x="489" y="362"/>
      <point x="487" y="389"/>
      <point x="479" y="418" type="curve" smooth="yes"/>
      <point x="456" y="504"/>
      <point x="390" y="555"/>
      <point x="279" y="555" type="curve" smooth="yes"/>
      <point x="173" y="555"/>
      <point x="84" y="506"/>
      <point x="61" y="410" type="curve"/>
      <point x="118" y="392" type="line"/>
      <point x="138" y="470"/>
      <point x="203" y="500"/>
      <point x="277" y="500" type="curve" smooth="yes"/>
      <point x="393" y="500"/>
      <point x="436" y="428"/>
      <point x="432" y="322" type="curve"/>
      <point x="437" y="336" type="line"/>
      <point x="344" y="326"/>
      <point x="243" y="318"/>
      <point x="172" y="297" type="curve" smooth="yes"/>
      <point x="104" y="277"/>
      <point x="40" y="235"/>
      <point x="40" y="144" type="curve" smooth="yes"/>
      <point x="40" y="52"/>
      <point x="109" y="-15"/>
    </contour>
    <contour>
      <point x="230" y="38" type="curve" smooth="yes"/>
      <point x="148" y="38"/>
      <point x="99" y="78"/>
      <point x="99" y="142" type="curve" smooth="yes"/>
      <point x="99" y="207"/>
      <point x="142" y="230"/>
      <point x="191" y="247" type="curve" smooth="yes"/>
      <point x="252" y="268"/>
      <point x="368" y="277"/>
      <point x="450" y="285" type="curve"/>
      <point x="431" y="304" type="line"/>
      <point x="432" y="265"/>
      <point x="434" y="190"/>
      <point x="408" y="138" type="curve" smooth="yes"/>
      <point x="380" y="78"/>
      <point x="312" y="38"/>
    </contour>
  </outline>
</glyph>
<glyph name="b" format="2">
  <advance width="584"/>
  <unicode hex="0062"/>
  <note>
b
</note>
  <outline>
    <contour>
      <point x="307" y="-15" type="curve" smooth="yes"/>
      <point x="459" y="-15"/>
      <point x="544" y="109"/>
      <point x="544" y="271" type="curve" smooth="yes"/>
      <point x="544" y="431"/>
      <point x="459" y="555"/>
      <point x="312" y="555" type="curve" smooth="yes"/>
      <point x="161" y="555"/>
      <point x="80" y="434"/>
      <point x="80" y="271" type="curve" smooth="yes"/>
      <point x="80" y="110"/>
      <point x="161" y="-15"/>
    </contour>
    <contour>
      <point x="70" y="0" type="line"/>
      <point x="122" y="0" type="line"/>
      <point x="122" y="416" type="line"/>
      <point x="128" y="416" type="line"/>
      <point x="128" y="720" type="line"/>
      <point x="70" y="720" type="line"/>
    </contour>
    <contour>
      <point x="303" y="40" type="curve" smooth="yes"/>
      <point x="182" y="40"/>
      <point x="122" y="139"/>
      <point x="122" y="271" type="curve" smooth="yes"/>
      <point x="122" y="405"/>
      <point x="183" y="500"/>
      <point x="302" y="500" type="curve" smooth="yes"/>
      <point x="425" y="500"/>
      <point x="483" y="401"/>
      <point x="483" y="271" type="curve" smooth="yes"/>
      <point x="483" y="140"/>
      <point x="422" y="40"/>
    </contour>
  </outline>
</glyph>
<glyph name="c" format="2">
  <advance width="546"/>
  <unicode hex="0063"/>
  <note>
c
</note>
  <outline>
    <contour>
      <point x="290" y="-15" type="curve" smooth="yes"/>
      <point x="393" y="-15"/>
      <point x="470" y="33"/>
      <point x="512" y="125" type="curve"/>
      <point x="455" y="145" type="line"/>
      <point x="425" y="77"/>
      <point x="366" y="41"/>
      <point x="290" y="41" type="curve" smooth="yes"/>
      <point x="166" y="41"/>
      <point x="103" y="132"/>
      <point x="102" y="270" type="curve" smooth="yes"/>
      <point x="103" y="405"/>
      <point x="163" y="499"/>
      <point x="290" y="499" type="curve" smooth="yes"/>
      <point x="366" y="499"/>
      <point x="428" y="460"/>
      <point x="456" y="393" type="curve"/>
      <point x="512" y="413" type="line"/>
      <point x="481" y="501"/>
      <point x="395" y="555"/>
      <point x="291" y="555" type="curve" smooth="yes"/>
      <point x="130" y="555"/>
      <point x="42" y="442"/>
      <point x="40" y="270" type="curve" smooth="yes"/>
      <point x="42" y="102"/>
      <point x="128" y="-15"/>
    </contour>
  </outline>
</glyph>
<glyph name="d" format="2">
  <advance width="584"/>
  <unicode hex="0064"/>
  <note>
d
</note>
  <outline>
    <contour>
      <point x="277" y="-15" type="curve" smooth="yes"/>
      <point x="423" y="-15"/>
      <point x="504" y="110"/>
      <point x="504" y="271" type="curve" smooth="yes"/>
      <point x="504" y="434"/>
      <point x="423" y="555"/>
      <point x="272" y="555" type="curve" smooth="yes"/>
      <point x="125" y="555"/>
      <point x="40" y="431"/>
      <point x="40" y="271" type="curve" smooth="yes"/>
      <point x="40" y="109"/>
      <point x="125" y="-15"/>
    </contour>
    <contour>
      <point x="281" y="40" type="curve" smooth="yes"/>
      <point x="162" y="40"/>
      <point x="102" y="140"/>
      <point x="102" y="271" type="curve" smooth="yes"/>
      <point x="102" y="401"/>
      <point x="159" y="500"/>
      <point x="282" y="500" type="curve" smooth="yes"/>
      <point x="401" y="500"/>
      <point x="462" y="405"/>
      <point x="462" y="271" type="curve" smooth="yes"/>
      <point x="462" y="139"/>
      <point x="402" y="40"/>
    </contour>
    <contour>
      <point x="462" y="0" type="line"/>
      <point x="514" y="0" type="line"/>
      <point x="514" y="720" type="line"/>
      <point x="456" y="720" type="line"/>
      <point x="456" y="416" type="line"/>
      <point x="462" y="416" type="line"/>
    </contour>
  </outline>
</glyph>
<glyph name="e" format="2">
  <advance width="579"/>
  <unicode hex="0065"/>
  <note>
e
</note>
  <outline>
    <contour>
      <point x="293" y="-15" type="curve" smooth="yes"/>
      <point x="398" y="-15"/>
      <point x="484" y="36"/>
      <point x="527" y="131" type="curve"/>
      <point x="475" y="154" type="line"/>
      <point x="438" y="79"/>
      <point x="375" y="41"/>
      <point x="291" y="41" type="curve" smooth="yes"/>
      <point x="166" y="41"/>
      <point x="102" y="131"/>
      <point x="102" y="270" type="curve" smooth="yes"/>
      <point x="102" y="405"/>
      <point x="163" y="502"/>
      <point x="291" y="500" type="curve" smooth="yes"/>
      <point x="418" y="502"/>
      <point x="475" y="413"/>
      <point x="478" y="274" type="curve"/>
      <point x="478" y="254" type="line"/>
      <point x="538" y="254" type="line"/>
      <point x="541" y="432"/>
      <point x="460" y="555"/>
      <point x="291" y="555" type="curve" smooth="yes"/>
      <point x="132" y="555"/>
      <point x="40" y="440"/>
      <point x="40" y="269" type="curve" smooth="yes"/>
      <point x="40" y="103"/>
      <point x="132" y="-15"/>
    </contour>
    <contour>
      <point x="80" y="254" type="line"/>
      <point x="506" y="254" type="line"/>
      <point x="506" y="306" type="line"/>
      <point x="80" y="306" type="line"/>
    </contour>
  </outline>
</glyph>
<glyph name="f" format="2">
  <advance width="347"/>
  <unicode hex="0066"/>
  <note>
f
</note>
  <outline>
    <contour>
      <point x="126" y="0" type="line"/>
      <point x="184" y="0" type="line"/>
      <point x="184" y="592" type="line" smooth="yes"/>
      <point x="184" y="658"/>
      <point x="213" y="685"/>
      <point x="272" y="685" type="curve" smooth="yes"/>
      <point x="337" y="685" type="line"/>
      <point x="337" y="735" type="line"/>
      <point x="267" y="735" type="line" smooth="yes"/>
      <point x="225" y="735"/>
      <point x="187" y="728"/>
      <point x="158" y="698" type="curve" smooth="yes"/>
      <point x="131" y="669"/>
      <point x="126" y="632"/>
      <point x="126" y="590" type="curve" smooth="yes"/>
    </contour>
    <contour>
      <point x="30" y="488" type="line"/>
      <point x="337" y="488" type="line"/>
      <point x="337" y="540" type="line"/>
      <point x="30" y="540" type="line"/>
    </contour>
  </outline>
</glyph>
<glyph name="g" format="2">
  <advance width="584"/>
  <unicode hex="0067"/>
  <note>
g
</note>
  <outline>
    <contour>
      <point x="280" y="-255" type="curve" smooth="yes"/>
      <point x="416" y="-255"/>
      <point x="491" y="-196"/>
      <point x="508" y="-71" type="curve" smooth="yes"/>
      <point x="513" y="-42"/>
      <point x="514" y="-13"/>
      <point x="514" y="19" type="curve" smooth="yes"/>
      <point x="514" y="540" type="line"/>
      <point x="462" y="540" type="line"/>
      <point x="462" y="160" type="line"/>
      <point x="456" y="160" type="line"/>
      <point x="456" y="19" type="line" smooth="yes"/>
      <point x="456" y="-124"/>
      <point x="411" y="-198"/>
      <point x="280" y="-198" type="curve" smooth="yes"/>
      <point x="218" y="-198"/>
      <point x="152" y="-172"/>
      <point x="120" y="-104" type="curve"/>
      <point x="68" y="-136" type="line"/>
      <point x="115" y="-223"/>
      <point x="200" y="-255"/>
    </contour>
    <contour>
      <point x="277" y="-15" type="curve" smooth="yes"/>
      <point x="423" y="-15"/>
      <point x="504" y="110"/>
      <point x="504" y="271" type="curve" smooth="yes"/>
      <point x="504" y="434"/>
      <point x="423" y="555"/>
      <point x="272" y="555" type="curve" smooth="yes"/>
      <point x="125" y="555"/>
      <point x="40" y="431"/>
      <point x="40" y="271" type="curve" smooth="yes"/>
      <point x="40" y="109"/>
      <point x="125" y="-15"/>
    </contour>
    <contour>
      <point x="281" y="40" type="curve" smooth="yes"/>
      <point x="162" y="40"/>
      <point x="102" y="140"/>
      <point x="102" y="271" type="curve" smooth="yes"/>
      <point x="102" y="401"/>
      <point x="159" y="500"/>
      <point x="282" y="500" type="curve" smooth="yes"/>
      <point x="401" y="500"/>
      <point x="462" y="405"/>
      <point x="462" y="271" type="curve" smooth="yes"/>
      <point x="462" y="139"/>
      <point x="402" y="40"/>
    </contour>
  </outline>
</glyph>
<glyph name="j" format="2">
  <advance width="238"/>
  <unicode hex="006A"/>
  <note>
j
</note>
  <outline>
    <contour>
      <point x="-10" y="-240" type="line"/>
      <point x="33" y="-240" type="line" smooth="yes"/>
      <point x="120" y="-240"/>
      <point x="159" y="-199"/>
      <point x="159" y="-108" type="curve" smooth="yes"/>
      <point x="159" y="540" type="line"/>
      <point x="102" y="540" type="line"/>
      <point x="102" y="-101" type="line" smooth="yes"/>
      <point x="102" y="-162"/>
      <point x="68" y="-183"/>
      <point x="22" y="-183" type="curve" smooth="yes"/>
      <point x="-10" y="-183" type="line"/>
    </contour>
    <contour>
      <point x="102" y="638" type="line"/>
      <point x="159" y="638" type="line"/>
      <point x="159" y="712" type="line"/>
      <point x="102" y="712" type="line"/>
    </contour>
  </outline>
</glyph>
<glyph name="k" format="2">
  <advance width="482"/>
  <unicode hex="006B"/>
  <note>
k
</note>
  <outline>
    <contour>
      <point x="70" y="0" type="line"/>
      <point x="128" y="0" type="line"/>
      <point x="128" y="260" type="line"/>
      <point x="413" y="0" type="line"/>
      <point x="502" y="0" type="line"/>
      <point x="197" y="270" type="line"/>
      <point x="464" y="540" type="line"/>
      <point x="384" y="540" type="line"/>
      <point x="128" y="280" type="line"/>
      <point x="128" y="720" type="line"/>
      <point x="70" y="720" type="line"/>
    </contour>
  </outline>
</glyph>
<glyph name="m" format="2">
  <advance width="831"/>
  <unicode hex="006D"/>
  <note>
m
</note>
  <outline>
    <contour>
      <point x="713" y="0" type="line"/>
      <point x="770" y="0" type="line"/>
      <point x="771" y="372" type="line" smooth="yes"/>
      <point x="771" y="485"/>
      <point x="699" y="555"/>
      <point x="593" y="555" type="curve" smooth="yes"/>
      <point x="485" y="555"/>
      <point x="405" y="478"/>
      <point x="409" y="360" type="curve"/>
      <point x="450" y="354" type="line"/>
      <point x="450" y="464"/>
      <point x="521" y="503"/>
      <point x="584" y="503" type="curve" smooth="yes"/>
      <point x="658" y="503"/>
      <point x="714" y="450"/>
      <point x="714" y="363" type="curve" smooth="yes"/>
    </contour>
    <contour>
      <point x="70" y="0" type="line"/>
      <point x="128" y="0" type="line"/>
      <point x="128" y="418" type="line"/>
      <point x="122" y="418" type="line"/>
      <point x="122" y="540" type="line"/>
      <point x="70" y="540" type="line"/>
    </contour>
    <contour>
      <point x="392" y="0" type="line"/>
      <point x="449" y="0" type="line"/>
      <point x="450" y="369" type="line" smooth="yes"/>
      <point x="450" y="493"/>
      <point x="370" y="555"/>
      <point x="273" y="555" type="curve" smooth="yes"/>
      <point x="165" y="555"/>
      <point x="88" y="478"/>
      <point x="88" y="374" type="curve"/>
      <point x="128" y="354" type="line"/>
      <point x="128" y="444"/>
      <point x="182" y="503"/>
      <point x="261" y="503" type="curve" smooth="yes"/>
      <point x="339" y="503"/>
      <point x="393" y="447"/>
      <point x="393" y="357" type="curve" smooth="yes"/>
    </contour>
  </outline>
</glyph>
<glyph name="n" format="2">
  <advance width="584"/>
  <unicode hex="006E"/>
  <note>
n
</note>
  <outline>
    <contour>
      <point x="466" y="0" type="line"/>
      <point x="524" y="0" type="line"/>
      <point x="524" y="296" type="line" smooth="yes"/>
      <point x="524" y="436"/>
      <point x="455" y="553"/>
      <point x="306" y="553" type="curve" smooth="yes"/>
      <point x="180" y="553"/>
      <point x="82" y="472"/>
      <point x="82" y="297" type="curve"/>
      <point x="128" y="292" type="line"/>
      <point x="128" y="410"/>
      <point x="181" y="497"/>
      <point x="299" y="497" type="curve" smooth="yes"/>
      <point x="411" y="497"/>
      <point x="466" y="417"/>
      <point x="466" y="281" type="curve" smooth="yes"/>
    </contour>
    <contour>
      <point x="70" y="0" type="line"/>
      <point x="128" y="0" type="line"/>
      <point x="128" y="418" type="line"/>
      <point x="122" y="418" type="line"/>
      <point x="122" y="540" type="line"/>
      <point x="70" y="540" type="line"/>
    </contour>
  </outline>
</glyph>
<glyph name="o" format="2">
  <advance width="583"/>
  <unicode hex="006F"/>
  <note>
o
</note>
  <outline>
    <contour>
      <point x="291" y="-15" type="curve" smooth="yes"/>
      <point x="451" y="-15"/>
      <point x="543" y="100"/>
      <point x="543" y="271" type="curve" smooth="yes"/>
      <point x="543" y="438"/>
      <point x="453" y="555"/>
      <point x="291" y="555" type="curve" smooth="yes"/>
      <point x="134" y="555"/>
      <point x="40" y="441"/>
      <point x="40" y="271" type="curve" smooth="yes"/>
      <point x="40" y="103"/>
      <point x="131" y="-15"/>
    </contour>
    <contour>
      <point x="291" y="41" type="curve" smooth="yes"/>
      <point x="166" y="41"/>
      <point x="102" y="132"/>
      <point x="102" y="271" type="curve" smooth="yes"/>
      <point x="102" y="405"/>
      <point x="162" y="499"/>
      <point x="291" y="499" type="curve" smooth="yes"/>
      <point x="418" y="499"/>
      <point x="481" y="409"/>
      <point x="481" y="271" type="curve" smooth="yes"/>
      <point x="481" y="134"/>
      <point x="419" y="41"/>
    </contour>
  </outline>
</glyph>
<glyph name="p" format="2">
  <advance width="584"/>
  <unicode hex="0070"/>
  <note>
p
</note>
  <outline>
    <contour>
      <point x="307" y="-15" type="curve" smooth="yes"/>
      <point x="459" y="-15"/>
      <point x="544" y="109"/>
      <point x="544" y="271" type="curve" smooth="yes"/>
      <point x="544" y="431"/>
      <point x="459" y="555"/>
      <point x="312" y="555" type="curve" smooth="yes"/>
      <point x="161" y="555"/>
      <point x="80" y="434"/>
      <point x="80" y="271" type="curve" smooth="yes"/>
      <point x="80" y="110"/>
      <point x="161" y="-15"/>
    </contour>
    <contour>
      <point x="70" y="-240" type="line"/>
      <point x="128" y="-240" type="line"/>
      <point x="128" y="124" type="line"/>
      <point x="122" y="124" type="line"/>
      <point x="122" y="540" type="line"/>
      <point x="70" y="540" type="line"/>
    </contour>
    <contour>
      <point x="303" y="40" type="curve" smooth="yes"/>
      <point x="182" y="40"/>
      <point x="122" y="139"/>
      <point x="122" y="271" type="curve" smooth="yes"/>
      <point x="122" y="405"/>
      <point x="183" y="500"/>
      <point x="302" y="500" type="curve" smooth="yes"/>
      <point x="425" y="500"/>
      <point x="483" y="401"/>
      <point x="483" y="271" type="curve" smooth="yes"/>
      <point x="483" y="140"/>
      <point x="422" y="40"/>
    </contour>
  </outline>
</glyph>
<glyph name="r" format="2">
  <advance width="348"/>
  <unicode hex="0072"/>
  <note>
r
</note>
  <outline>
    <contour>
      <point x="70" y="0" type="line"/>
      <point x="128" y="0" type="line"/>
      <point x="128" y="268" type="line" smooth="yes"/>
      <point x="128" y="333"/>
      <point x="132" y="410"/>
      <point x="188" y="457" type="curve" smooth="yes"/>
      <point x="229" y="493"/>
      <point x="280" y="495"/>
      <point x="323" y="486" type="curve"/>
      <point x="323" y="540" type="line"/>
      <point x="276" y="554"/>
      <point x="204" y="542"/>
      <point x="160" y="502" type="curve" smooth="yes"/>
      <point x="141" y="486"/>
      <point x="121" y="458"/>
      <point x="110" y="428" type="curve"/>
      <point x="122" y="410" type="line"/>
      <point x="122" y="540" type="line"/>
      <point x="70" y="540" type="line"/>
    </contour>
  </outline>
</glyph>
<glyph name="s" format="2">
  <advance width="520"/>
  <unicode hex="0073"/>
  <note>
s
</note>
  <outline>
    <contour>
      <point x="269" y="-14" type="curve" smooth="yes"/>
      <point x="393" y="-14"/>
      <point x="479" y="41"/>
      <point x="479" y="146" type="curve" smooth="yes"/>
      <point x="479" y="250"/>
      <point x="394" y="276"/>
      <point x="277" y="306" type="curve" smooth="yes"/>
      <point x="183" y="330"/>
      <point x="116" y="348"/>
      <point x="116" y="408" type="curve" smooth="yes"/>
      <point x="116" y="464"/>
      <point x="174" y="502"/>
      <point x="257" y="500" type="curve" smooth="yes"/>
      <point x="329" y="500"/>
      <point x="406" y="470"/>
      <point x="420" y="388" type="curve"/>
      <point x="479" y="398" type="line"/>
      <point x="469" y="490"/>
      <point x="380" y="555"/>
      <point x="259" y="555" type="curve" smooth="yes"/>
      <point x="153" y="555"/>
      <point x="56" y="506"/>
      <point x="56" y="405" type="curve" smooth="yes"/>
      <point x="56" y="314"/>
      <point x="136" y="288"/>
      <point x="250" y="257" type="curve" smooth="yes"/>
      <point x="361" y="227"/>
      <point x="418" y="213"/>
      <point x="418" y="147" type="curve" smooth="yes"/>
      <point x="418" y="77"/>
      <point x="356" y="40"/>
      <point x="272" y="40" type="curve" smooth="yes"/>
      <point x="197" y="40"/>
      <point x="118" y="70"/>
      <point x="99" y="146" type="curve"/>
      <point x="40" y="135" type="line"/>
      <point x="62" y="30"/>
      <point x="160" y="-14"/>
    </contour>
  </outline>
</glyph>
<glyph name="t" format="2">
  <advance width="390"/>
  <unicode hex="0074"/>
  <note>
t
</note>
  <outline>
    <contour>
      <point x="356" y="0" type="curve"/>
      <point x="356" y="52" type="line"/>
      <point x="276" y="39"/>
      <point x="224" y="45"/>
      <point x="200" y="92" type="curve" smooth="yes"/>
      <point x="187" y="116"/>
      <point x="189" y="142"/>
      <point x="189" y="189" type="curve" smooth="yes"/>
      <point x="189" y="690" type="line"/>
      <point x="131" y="690" type="line"/>
      <point x="131" y="187" type="line" smooth="yes"/>
      <point x="131" y="137"/>
      <point x="130" y="101"/>
      <point x="147" y="64" type="curve" smooth="yes"/>
      <point x="180" y="-6"/>
      <point x="270" y="-18"/>
    </contour>
    <contour>
      <point x="10" y="488" type="line"/>
      <point x="356" y="488" type="line"/>
      <point x="356" y="540" type="line"/>
      <point x="10" y="540" type="line"/>
    </contour>
  </outline>
</glyph>
<glyph name="u" format="2">
  <advance width="584"/>
  <unicode hex="0075"/>
  <note>
u
</note>
  <outline>
    <contour>
      <point x="278" y="-13" type="curve" smooth="yes"/>
      <point x="403" y="-13"/>
      <point x="501" y="68"/>
      <point x="501" y="243" type="curve"/>
      <point x="456" y="248" type="line"/>
      <point x="456" y="130"/>
      <point x="403" y="43"/>
      <point x="285" y="43" type="curve" smooth="yes"/>
      <point x="172" y="43"/>
      <point x="118" y="123"/>
      <point x="118" y="259" type="curve" smooth="yes"/>
      <point x="118" y="540" type="line"/>
      <point x="60" y="540" type="line"/>
      <point x="60" y="244" type="line" smooth="yes"/>
      <point x="60" y="104"/>
      <point x="128" y="-13"/>
    </contour>
    <contour>
      <point x="461" y="0" type="line"/>
      <point x="514" y="0" type="line"/>
      <point x="514" y="540" type="line"/>
      <point x="456" y="540" type="line"/>
      <point x="456" y="122" type="line"/>
      <point x="461" y="122" type="line"/>
    </contour>
  </outline>
</glyph>
<glyph name="v" format="2">
  <advance width="493"/>
  <unicode hex="0076"/>
  <outline>
    <contour>
      <point x="216" y="0" type="line"/>
      <point x="277" y="0" type="line"/>
      <point x="473" y="540" type="line"/>
      <point x="413" y="540" type="line"/>
      <point x="246" y="78" type="line"/>
      <point x="79" y="540" type="line"/>
      <point x="20" y="540" type="line"/>
    </contour>
  </outline>
</glyph>
<glyph name="w" format="2">
  <advance width="756"/>
  <unicode hex="0077"/>
  <note>
w
</note>
  <outline>
    <contour>
      <point x="185" y="0" type="line"/>
      <point x="239" y="0" type="line"/>
      <point x="378" y="450" type="line"/>
      <point x="515" y="0" type="line"/>
      <point x="571" y="0" type="line"/>
      <point x="736" y="540" type="line"/>
      <point x="678" y="540" type="line"/>
      <point x="541" y="96" type="line"/>
      <point x="406" y="540" type="line"/>
      <point x="350" y="540" type="line"/>
      <point x="214" y="96" type="line"/>
      <point x="79" y="540" type="line"/>
      <point x="20" y="540" type="line"/>
    </contour>
  </outline>
</glyph>
<glyph name="x" format="2">
  <advance width="518"/>
  <unicode hex="0078"/>
  <note>
x
</note>
  <outline>
    <contour>
      <point x="10" y="0" type="line"/>
      <point x="81" y="0" type="line"/>
      <point x="260" y="229" type="line"/>
      <point x="437" y="0" type="line"/>
      <point x="508" y="0" type="line"/>
      <point x="292" y="273" type="line"/>
      <point x="503" y="540" type="line"/>
      <point x="433" y="540" type="line"/>
      <point x="260" y="317" type="line"/>
      <point x="85" y="540" type="line"/>
      <point x="15" y="540" type="line"/>
      <point x="226" y="273" type="line"/>
    </contour>
  </outline>
</glyph>
<glyph name="y" format="2">
  <advance width="517"/>
  <unicode hex="0079"/>
  <note>
y
</note>
  <outline>
    <contour>
      <point x="149" y="-240" type="line"/>
      <point x="209" y="-240" type="line"/>
      <point x="496" y="540" type="line"/>
      <point x="436" y="540" type="line"/>
      <point x="251" y="35" type="line"/>
      <point x="283" y="35" type="line"/>
      <point x="80" y="540" type="line"/>
      <point x="18" y="540" type="line"/>
      <point x="255" y="-41" type="line"/>
      <point x="254" y="43" type="line"/>
    </contour>
  </outline>
</glyph>
<glyph name="z" format="2">
  <advance width="528"/>
  <unicode hex="007A"/>
  <note>
z
</note>
  <outline>
    <contour>
      <point x="20" y="0" type="line"/>
      <point x="467" y="0" type="line"/>
      <point x="467" y="56" type="line"/>
      <point x="119" y="56" type="line"/>
      <point x="488" y="523" type="line"/>
      <point x="488" y="540" type="line"/>
      <point x="45" y="540" type="line"/>
      <point x="45" y="484" type="line"/>
      <point x="389" y="484" type="line"/>
      <point x="20" y="15" type="line"/>
    </contour>
  </outline>
</glyph>
<glyph name="braceleft" format="2">
  <advance width="410"/>
  <unicode hex="007B"/>
  <outline>
    <contour>
      <point x="309" y="-220" type="curve" smooth="yes"/>
      <point x="366" y="-220" type="line"/>
      <point x="366" y="-164" type="line"/>
      <point x="310" y="-164" type="line" smooth="yes"/>
      <point x="279" y="-164"/>
      <point x="253" y="-138"/>
      <point x="253" y="-107" type="curve" smooth="yes"/>
      <point x="253" y="226" type="line" smooth="yes"/>
      <point x="253" y="248"/>
      <point x="246" y="271"/>
      <point x="232" y="291" type="curve" smooth="yes"/>
      <point x="203" y="332" type="line"/>
      <point x="232" y="374" type="line" smooth="yes"/>
      <point x="246" y="394"/>
      <point x="253" y="416"/>
      <point x="253" y="439" type="curve" smooth="yes"/>
      <point x="253" y="771" type="line" smooth="yes"/>
      <point x="253" y="803"/>
      <point x="279" y="829"/>
      <point x="310" y="829" type="curve" smooth="yes"/>
      <point x="366" y="829" type="line"/>
      <point x="366" y="885" type="line"/>
      <point x="309" y="885" type="line" smooth="yes"/>
      <point x="245" y="885"/>
      <point x="197" y="836"/>
      <point x="197" y="773" type="curve" smooth="yes"/>
      <point x="197" y="439" type="line" smooth="yes"/>
      <point x="197" y="428"/>
      <point x="193" y="417"/>
      <point x="187" y="407" type="curve" smooth="yes"/>
      <point x="145" y="348" type="line" smooth="yes"/>
      <point x="138" y="339"/>
      <point x="138" y="326"/>
      <point x="145" y="316" type="curve" smooth="yes"/>
      <point x="187" y="258" type="line" smooth="yes"/>
      <point x="193" y="248"/>
      <point x="197" y="238"/>
      <point x="197" y="226" type="curve" smooth="yes"/>
      <point x="197" y="-109" type="line" smooth="yes"/>
      <point x="197" y="-172"/>
      <point x="245" y="-220"/>
    </contour>
  </outline>
</glyph>
<glyph name="cent" format="2">
  <advance width="546"/>
  <unicode hex="00A2"/>
  <outline>
    <contour>
      <point x="266" y="-30" type="line"/>
      <point x="319" y="-30" type="line"/>
      <point x="319" y="62" type="line"/>
      <point x="407" y="70"/>
      <point x="473" y="117"/>
      <point x="512" y="200" type="curve"/>
      <point x="455" y="220" type="line"/>
      <point x="425" y="152"/>
      <point x="366" y="116"/>
      <point x="290" y="116" type="curve" smooth="yes"/>
      <point x="166" y="116"/>
      <point x="103" y="207"/>
      <point x="102" y="345" type="curve" smooth="yes"/>
      <point x="103" y="480"/>
      <point x="163" y="574"/>
      <point x="290" y="574" type="curve" smooth="yes"/>
      <point x="366" y="574"/>
      <point x="428" y="535"/>
      <point x="456" y="468" type="curve"/>
      <point x="512" y="488" type="line"/>
      <point x="483" y="568"/>
      <point x="410" y="620"/>
      <point x="319" y="628" type="curve"/>
      <point x="319" y="720" type="line"/>
      <point x="266" y="720" type="line"/>
      <point x="266" y="628" type="line"/>
      <point x="121" y="618"/>
      <point x="42" y="508"/>
      <point x="40" y="345" type="curve" smooth="yes"/>
      <point x="42" y="186"/>
      <point x="120" y="72"/>
      <point x="266" y="61" type="curve"/>
    </contour>
  </outline>
</glyph>
<glyph name="sterling" format="2">
  <advance width="560"/>
  <unicode hex="00A3"/>
  <outline>
    <contour>
      <point x="22" y="0" type="line"/>
      <point x="510" y="0" type="line"/>
      <point x="510" y="56" type="line"/>
      <point x="214" y="56" type="line"/>
      <point x="214" y="547" type="line" smooth="yes"/>
      <point x="214" y="627"/>
      <point x="264" y="679"/>
      <point x="339" y="679" type="curve" smooth="yes"/>
      <point x="404" y="679"/>
      <point x="446" y="635"/>
      <point x="476" y="542" type="curve"/>
      <point x="530" y="559" type="line"/>
      <point x="491" y="674"/>
      <point x="430" y="735"/>
      <point x="340" y="735" type="curve" smooth="yes"/>
      <point x="234" y="735"/>
      <point x="156" y="658"/>
      <point x="156" y="548" type="curve" smooth="yes"/>
      <point x="156" y="126" type="line" smooth="yes"/>
      <point x="156" y="88"/>
      <point x="124" y="56"/>
      <point x="86" y="56" type="curve" smooth="yes"/>
      <point x="22" y="56" type="line"/>
    </contour>
    <contour>
      <point x="22" y="338" type="line"/>
      <point x="406" y="338" type="line"/>
      <point x="406" y="395" type="line"/>
      <point x="22" y="395" type="line"/>
    </contour>
  </outline>
</glyph>
<glyph name="currency" format="2">
  <advance width="632"/>
  <unicode hex="00A4"/>
  <outline>
    <contour>
      <point x="316" y="98" type="curve" smooth="yes"/>
      <point x="461" y="98"/>
      <point x="579" y="216"/>
      <point x="579" y="361" type="curve" smooth="yes"/>
      <point x="579" y="505"/>
      <point x="461" y="623"/>
      <point x="316" y="623" type="curve" smooth="yes"/>
      <point x="172" y="623"/>
      <point x="54" y="505"/>
      <point x="54" y="361" type="curve" smooth="yes"/>
      <point x="54" y="216"/>
      <point x="172" y="98"/>
    </contour>
    <contour>
      <point x="70" y="75" type="line"/>
      <point x="171" y="176" type="line"/>
      <point x="131" y="216" type="line"/>
      <point x="30" y="115" type="line"/>
    </contour>
    <contour>
      <point x="132" y="504" type="line"/>
      <point x="171" y="544" type="line"/>
      <point x="70" y="645" type="line"/>
      <point x="30" y="606" type="line"/>
    </contour>
    <contour>
      <point x="562" y="75" type="line"/>
      <point x="602" y="115" type="line"/>
      <point x="500" y="216" type="line"/>
      <point x="460" y="176" type="line"/>
    </contour>
    <contour>
      <point x="316" y="152" type="curve" smooth="yes"/>
      <point x="200" y="152"/>
      <point x="108" y="248"/>
      <point x="108" y="360" type="curve" smooth="yes"/>
      <point x="108" y="475"/>
      <point x="200" y="569"/>
      <point x="316" y="569" type="curve" smooth="yes"/>
      <point x="428" y="569"/>
      <point x="525" y="475"/>
      <point x="525" y="360" type="curve" smooth="yes"/>
      <point x="525" y="248"/>
      <point x="431" y="152"/>
    </contour>
    <contour>
      <point x="500" y="504" type="line"/>
      <point x="602" y="606" type="line"/>
      <point x="562" y="645" type="line"/>
      <point x="460" y="544" type="line"/>
    </contour>
  </outline>
</glyph>
<glyph name="yen" format="2">
  <advance width="538"/>
  <unicode hex="00A5"/>
  <outline>
    <contour>
      <point x="84" y="257" type="line"/>
      <point x="454" y="257" type="line"/>
      <point x="454" y="310" type="line"/>
      <point x="84" y="310" type="line"/>
    </contour>
    <contour>
      <point x="84" y="117" type="line"/>
      <point x="454" y="117" type="line"/>
      <point x="454" y="170" type="line"/>
      <point x="84" y="170" type="line"/>
    </contour>
    <component base="Y"/>
  </outline>
</glyph>
<glyph name="section" format="2">
  <advance width="520"/>
  <unicode hex="00A7"/>
  <outline>
    <contour>
      <point x="272" y="-159" type="curve" smooth="yes"/>
      <point x="382" y="-159"/>
      <point x="469" y="-104"/>
      <point x="469" y="2" type="curve" smooth="yes"/>
      <point x="469" y="105"/>
      <point x="384" y="131"/>
      <point x="267" y="161" type="curve" smooth="yes"/>
      <point x="176" y="185"/>
      <point x="106" y="201"/>
      <point x="106" y="263" type="curve" smooth="yes"/>
      <point x="106" y="319"/>
      <point x="162" y="357"/>
      <point x="237" y="376" type="curve"/>
      <point x="237" y="392" type="line"/>
      <point x="144" y="403"/>
      <point x="46" y="356"/>
      <point x="46" y="258" type="curve" smooth="yes"/>
      <point x="46" y="170"/>
      <point x="126" y="143"/>
      <point x="240" y="112" type="curve" smooth="yes"/>
      <point x="351" y="82"/>
      <point x="408" y="68"/>
      <point x="408" y="2" type="curve" smooth="yes"/>
      <point x="408" y="-68"/>
      <point x="345" y="-105"/>
      <point x="275" y="-105" type="curve" smooth="yes"/>
      <point x="214" y="-105"/>
      <point x="138" y="-76"/>
      <point x="117" y="0" type="curve"/>
      <point x="58" y="-10" type="line"/>
      <point x="81" y="-116"/>
      <point x="178" y="-159"/>
    </contour>
    <contour>
      <point x="307" y="120" type="line"/>
      <point x="404" y="93"/>
      <point x="487" y="147"/>
      <point x="487" y="249" type="curve" smooth="yes"/>
      <point x="487" y="352"/>
      <point x="403" y="378"/>
      <point x="285" y="408" type="curve" smooth="yes"/>
      <point x="195" y="431"/>
      <point x="124" y="448"/>
      <point x="124" y="510" type="curve" smooth="yes"/>
      <point x="124" y="566"/>
      <point x="182" y="602"/>
      <point x="249" y="602" type="curve" smooth="yes"/>
      <point x="308" y="602"/>
      <point x="382" y="574"/>
      <point x="398" y="489" type="curve"/>
      <point x="457" y="500" type="line"/>
      <point x="446" y="594"/>
      <point x="358" y="657"/>
      <point x="254" y="657" type="curve" smooth="yes"/>
      <point x="163" y="657"/>
      <point x="65" y="607"/>
      <point x="65" y="507" type="curve" smooth="yes"/>
      <point x="65" y="416"/>
      <point x="144" y="390"/>
      <point x="259" y="358" type="curve" smooth="yes"/>
      <point x="370" y="328"/>
      <point x="426" y="315"/>
      <point x="426" y="248" type="curve" smooth="yes"/>
      <point x="426" y="179"/>
      <point x="364" y="140"/>
      <point x="307" y="139" type="curve"/>
    </contour>
  </outline>
</glyph>
<glyph name="copyright" format="2">
  <advance width="776"/>
  <unicode hex="00A9"/>
  <outline>
    <contour>
      <point x="388" y="-16" type="curve" smooth="yes"/>
      <point x="586" y="-16"/>
      <point x="746" y="144"/>
      <point x="746" y="342" type="curve" smooth="yes"/>
      <point x="746" y="540"/>
      <point x="586" y="700"/>
      <point x="388" y="700" type="curve" smooth="yes"/>
      <point x="190" y="700"/>
      <point x="30" y="540"/>
      <point x="30" y="342" type="curve" smooth="yes"/>
      <point x="30" y="144"/>
      <point x="190" y="-16"/>
    </contour>
    <contour>
      <point x="391" y="132" type="curve" smooth="yes"/>
      <point x="432" y="132"/>
      <point x="466" y="142"/>
      <point x="496" y="161" type="curve" smooth="yes"/>
      <point x="518" y="176"/>
      <point x="542" y="202"/>
      <point x="558" y="240" type="curve"/>
      <point x="506" y="256" type="line"/>
      <point x="496" y="234"/>
      <point x="482" y="215"/>
      <point x="462" y="202" type="curve" smooth="yes"/>
      <point x="442" y="189"/>
      <point x="418" y="182"/>
      <point x="391" y="182" type="curve" smooth="yes"/>
      <point x="350" y="182"/>
      <point x="314" y="198"/>
      <point x="292" y="230" type="curve" smooth="yes"/>
      <point x="270" y="259"/>
      <point x="260" y="301"/>
      <point x="260" y="344" type="curve" smooth="yes"/>
      <point x="260" y="383"/>
      <point x="268" y="426"/>
      <point x="292" y="456" type="curve" smooth="yes"/>
      <point x="315" y="486"/>
      <point x="351" y="504"/>
      <point x="392" y="504" type="curve" smooth="yes"/>
      <point x="416" y="504"/>
      <point x="441" y="498"/>
      <point x="461" y="484" type="curve" smooth="yes"/>
      <point x="481" y="470"/>
      <point x="498" y="449"/>
      <point x="507" y="427" type="curve"/>
      <point x="558" y="444" type="line"/>
      <point x="547" y="480"/>
      <point x="522" y="509"/>
      <point x="491" y="528" type="curve" smooth="yes"/>
      <point x="460" y="547"/>
      <point x="429" y="554"/>
      <point x="394" y="554" type="curve" smooth="yes"/>
      <point x="332" y="554"/>
      <point x="284" y="533"/>
      <point x="248" y="489" type="curve" smooth="yes"/>
      <point x="215" y="447"/>
      <point x="205" y="395"/>
      <point x="204" y="344" type="curve" smooth="yes"/>
      <point x="204" y="294"/>
      <point x="213" y="241"/>
      <point x="248" y="197" type="curve" smooth="yes"/>
      <point x="284" y="152"/>
      <point x="332" y="132"/>
    </contour>
    <contour>
      <point x="388" y="42" type="curve" smooth="yes"/>
      <point x="221" y="42"/>
      <point x="87" y="176"/>
      <point x="87" y="343" type="curve" smooth="yes"/>
      <point x="87" y="508"/>
      <point x="221" y="642"/>
      <point x="388" y="642" type="curve" smooth="yes"/>
      <point x="553" y="642"/>
      <point x="687" y="508"/>
      <point x="687" y="343" type="curve" smooth="yes"/>
      <point x="687" y="176"/>
      <point x="553" y="42"/>
    </contour>
  </outline>
</glyph>
<glyph name="guillemetleft" format="2">
  <advance width="519"/>
  <unicode hex="00AB"/>
  <outline>
    <contour>
      <point x="413" y="100" type="line"/>
      <point x="450" y="129" type="line"/>
      <point x="302" y="316" type="line"/>
      <point x="450" y="502" type="line"/>
      <point x="413" y="531" type="line"/>
      <point x="241" y="316" type="line"/>
    </contour>
    <contour>
      <point x="252" y="100" type="line"/>
      <point x="290" y="129" type="line"/>
      <point x="141" y="316" type="line"/>
      <point x="290" y="502" type="line"/>
      <point x="252" y="531" type="line"/>
      <point x="80" y="316" type="line"/>
    </contour>
  </outline>
</glyph>
<glyph name="logicalnot" format="2">
  <advance width="600"/>
  <unicode hex="00AC"/>
  <outline>
    <contour>
      <point x="488" y="198" type="line"/>
      <point x="540" y="198" type="line"/>
      <point x="540" y="376" type="line"/>
      <point x="60" y="376" type="line"/>
      <point x="60" y="324" type="line"/>
      <point x="488" y="324" type="line"/>
    </contour>
  </outline>
</glyph>
<glyph name="registered" format="2">
  <advance width="615"/>
  <unicode hex="00AE"/>
  <outline>
    <contour>
      <point x="308" y="292" type="curve" smooth="yes"/>
      <point x="439" y="292"/>
      <point x="545" y="398"/>
      <point x="545" y="530" type="curve" smooth="yes"/>
      <point x="545" y="661"/>
      <point x="439" y="767"/>
      <point x="308" y="767" type="curve" smooth="yes"/>
      <point x="176" y="767"/>
      <point x="70" y="661"/>
      <point x="70" y="530" type="curve" smooth="yes"/>
      <point x="70" y="398"/>
      <point x="176" y="292"/>
    </contour>
    <contour>
      <point x="308" y="342" type="curve" smooth="yes"/>
      <point x="204" y="342"/>
      <point x="120" y="426"/>
      <point x="120" y="530" type="curve" smooth="yes"/>
      <point x="120" y="634"/>
      <point x="204" y="718"/>
      <point x="308" y="718" type="curve" smooth="yes"/>
      <point x="411" y="718"/>
      <point x="496" y="634"/>
      <point x="496" y="530" type="curve" smooth="yes"/>
      <point x="496" y="426"/>
      <point x="411" y="342"/>
    </contour>
    <contour>
      <point x="226" y="416" type="line"/>
      <point x="264" y="416" type="line"/>
      <point x="264" y="498" type="line"/>
      <point x="322" y="498" type="line"/>
      <point x="362" y="416" type="line"/>
      <point x="405" y="416" type="line"/>
      <point x="361" y="505" type="line"/>
      <point x="388" y="518"/>
      <point x="404" y="546"/>
      <point x="404" y="573" type="curve" smooth="yes"/>
      <point x="404" y="614"/>
      <point x="369" y="648"/>
      <point x="328" y="648" type="curve" smooth="yes"/>
      <point x="226" y="648" type="line"/>
    </contour>
    <contour>
      <point x="264" y="533" type="line"/>
      <point x="264" y="612" type="line"/>
      <point x="328" y="612" type="line" smooth="yes"/>
      <point x="346" y="612"/>
      <point x="366" y="596"/>
      <point x="366" y="573" type="curve" smooth="yes"/>
      <point x="366" y="551"/>
      <point x="348" y="533"/>
      <point x="328" y="533" type="curve" smooth="yes"/>
    </contour>
  </outline>
</glyph>
<glyph name="degree" format="2">
  <advance width="450"/>
  <unicode hex="00B0"/>
  <outline>
    <contour>
      <point x="210" y="375" type="curve" smooth="yes"/>
      <point x="309" y="375"/>
      <point x="390" y="455"/>
      <point x="390" y="555" type="curve" smooth="yes"/>
      <point x="390" y="655"/>
      <point x="309" y="735"/>
      <point x="210" y="735" type="curve" smooth="yes"/>
      <point x="114" y="735"/>
      <point x="30" y="653"/>
      <point x="30" y="555" type="curve" smooth="yes"/>
      <point x="30" y="455"/>
      <point x="111" y="375"/>
    </contour>
    <contour>
      <point x="210" y="429" type="curve" smooth="yes"/>
      <point x="142" y="429"/>
      <point x="84" y="487"/>
      <point x="84" y="555" type="curve" smooth="yes"/>
      <point x="84" y="623"/>
      <point x="142" y="681"/>
      <point x="210" y="681" type="curve" smooth="yes"/>
      <point x="278" y="681"/>
      <point x="336" y="623"/>
      <point x="336" y="555" type="curve" smooth="yes"/>
      <point x="336" y="487"/>
      <point x="278" y="429"/>
    </contour>
  </outline>
</glyph>
<glyph name="plusminus" format="2">
  <advance width="600"/>
  <unicode hex="00B1"/>
  <outline>
    <contour>
      <point x="274" y="220" type="line"/>
      <point x="326" y="220" type="line"/>
      <point x="326" y="354" type="line"/>
      <point x="540" y="354" type="line"/>
      <point x="540" y="406" type="line"/>
      <point x="326" y="406" type="line"/>
      <point x="326" y="540" type="line"/>
      <point x="274" y="540" type="line"/>
      <point x="274" y="406" type="line"/>
      <point x="60" y="406" type="line"/>
      <point x="60" y="354" type="line"/>
      <point x="274" y="354" type="line"/>
    </contour>
    <contour>
      <point x="60" y="83" type="line"/>
      <point x="540" y="83" type="line"/>
      <point x="540" y="136" type="line"/>
      <point x="60" y="136" type="line"/>
    </contour>
  </outline>
</glyph>
<glyph name="twosuperior" format="2">
  <advance width="396"/>
  <unicode hex="00B2"/>
  <outline>
    <contour>
      <point x="50" y="270" type="line"/>
      <point x="346" y="270" type="line"/>
      <point x="346" y="317" type="line"/>
      <point x="82" y="317" type="line"/>
      <point x="94" y="288" type="line"/>
      <point x="280" y="458" type="line" smooth="yes"/>
      <point x="324" y="498"/>
      <point x="346" y="528"/>
      <point x="346" y="585" type="curve" smooth="yes"/>
      <point x="346" y="666"/>
      <point x="283" y="730"/>
      <point x="200" y="730" type="curve" smooth="yes"/>
      <point x="116" y="730"/>
      <point x="52" y="670"/>
      <point x="52" y="586" type="curve"/>
      <point x="102" y="586" type="line"/>
      <point x="101" y="638"/>
      <point x="144" y="684"/>
      <point x="200" y="684" type="curve" smooth="yes"/>
      <point x="254" y="684"/>
      <point x="296" y="641"/>
      <point x="296" y="586" type="curve" smooth="yes"/>
      <point x="296" y="556"/>
      <point x="288" y="529"/>
      <point x="253" y="498" type="curve" smooth="yes"/>
      <point x="51" y="314" type="line"/>
    </contour>
  </outline>
</glyph>
<glyph name="threesuperior" format="2">
  <advance width="385"/>
  <unicode hex="00B3"/>
  <outline>
    <contour>
      <point x="180" y="260" type="curve" smooth="yes"/>
      <point x="264" y="260"/>
      <point x="325" y="320"/>
      <point x="325" y="407" type="curve" smooth="yes"/>
      <point x="325" y="500"/>
      <point x="257" y="563"/>
      <point x="157" y="547" type="curve"/>
      <point x="159" y="520" type="line"/>
      <point x="320" y="673" type="line"/>
      <point x="320" y="720" type="line"/>
      <point x="58" y="720" type="line"/>
      <point x="58" y="674" type="line"/>
      <point x="300" y="674" type="line"/>
      <point x="289" y="703" type="line"/>
      <point x="105" y="533" type="line"/>
      <point x="129" y="495" type="line"/>
      <point x="145" y="502"/>
      <point x="163" y="507"/>
      <point x="179" y="507" type="curve" smooth="yes"/>
      <point x="237" y="507"/>
      <point x="275" y="466"/>
      <point x="275" y="407" type="curve" smooth="yes"/>
      <point x="275" y="348"/>
      <point x="239" y="308"/>
      <point x="180" y="307" type="curve" smooth="yes"/>
      <point x="138" y="306"/>
      <point x="101" y="329"/>
      <point x="86" y="374" type="curve"/>
      <point x="40" y="360" type="line"/>
      <point x="59" y="298"/>
      <point x="114" y="260"/>
    </contour>
  </outline>
</glyph>
<glyph name="paragraph" format="2">
  <advance width="608"/>
  <unicode hex="00B6"/>
  <outline>
    <contour>
      <point x="346" y="-141" type="line"/>
      <point x="404" y="-141" type="line"/>
      <point x="404" y="720" type="line"/>
      <point x="303" y="720" type="line" smooth="yes"/>
      <point x="290" y="720"/>
      <point x="274" y="719"/>
      <point x="254" y="716" type="curve" smooth="yes"/>
      <point x="146" y="699"/>
      <point x="82" y="610"/>
      <point x="82" y="500" type="curve" smooth="yes"/>
      <point x="82" y="390"/>
      <point x="147" y="302"/>
      <point x="254" y="285" type="curve" smooth="yes"/>
      <point x="274" y="282"/>
      <point x="290" y="281"/>
      <point x="303" y="281" type="curve" smooth="yes"/>
      <point x="346" y="281" type="line"/>
    </contour>
    <contour>
      <point x="468" y="-141" type="line"/>
      <point x="526" y="-141" type="line"/>
      <point x="526" y="720" type="line"/>
      <point x="468" y="720" type="line"/>
    </contour>
  </outline>
</glyph>
<glyph name="periodcentered" format="2">
  <advance width="573"/>
  <unicode hex="00B7"/>
  <outline>
    <contour>
      <point x="288" y="268" type="curve" smooth="yes"/>
      <point x="312" y="268"/>
      <point x="333" y="288"/>
      <point x="333" y="315" type="curve" smooth="yes"/>
      <point x="333" y="342"/>
      <point x="312" y="362"/>
      <point x="288" y="362" type="curve" smooth="yes"/>
      <point x="261" y="362"/>
      <point x="240" y="342"/>
      <point x="240" y="315" type="curve" smooth="yes"/>
      <point x="240" y="288"/>
      <point x="261" y="268"/>
    </contour>
  </outline>
</glyph>
<glyph name="onesuperior" format="2">
  <advance width="314"/>
  <unicode hex="00B9"/>
  <outline>
    <contour>
      <point x="145" y="270" type="line"/>
      <point x="193" y="270" type="line"/>
      <point x="193" y="720" type="line"/>
      <point x="145" y="720" type="line"/>
      <point x="60" y="669" type="line"/>
      <point x="60" y="615" type="line"/>
      <point x="145" y="666" type="line"/>
    </contour>
  </outline>
</glyph>
<glyph name="AE" format="2">
  <advance width="912"/>
  <unicode hex="00C6"/>
  <outline>
    <contour>
      <point x="20" y="0" type="line"/>
      <point x="81" y="0" type="line"/>
      <point x="134" y="150" type="line"/>
      <point x="417" y="150" type="line"/>
      <point x="417" y="0" type="line"/>
      <point x="862" y="0" type="line"/>
      <point x="862" y="56" type="line"/>
      <point x="474" y="56" type="line"/>
      <point x="474" y="334" type="line"/>
      <point x="802" y="334" type="line"/>
      <point x="802" y="391" type="line"/>
      <point x="474" y="391" type="line"/>
      <point x="474" y="664" type="line"/>
      <point x="862" y="664" type="line"/>
      <point x="862" y="720" type="line"/>
      <point x="275" y="720" type="line"/>
    </contour>
    <contour>
      <point x="152" y="204" type="line"/>
      <point x="316" y="662" type="line"/>
      <point x="417" y="662" type="line"/>
      <point x="417" y="204" type="line"/>
    </contour>
  </outline>
</glyph>
<glyph name="Thorn" format="2">
  <advance width="583"/>
  <unicode hex="00DE"/>
  <outline>
    <contour>
      <point x="70" y="0" type="line"/>
      <point x="128" y="0" type="line"/>
      <point x="128" y="140" type="line"/>
      <point x="333" y="140" type="line" smooth="yes"/>
      <point x="395" y="140"/>
      <point x="458" y="169"/>
      <point x="497" y="216" type="curve" smooth="yes"/>
      <point x="532" y="255"/>
      <point x="553" y="307"/>
      <point x="553" y="360" type="curve" smooth="yes"/>
      <point x="553" y="417"/>
      <point x="529" y="474"/>
      <point x="488" y="514" type="curve" smooth="yes"/>
      <point x="467" y="536"/>
      <point x="439" y="554"/>
      <point x="409" y="565" type="curve" smooth="yes"/>
      <point x="384" y="575"/>
      <point x="358" y="580"/>
      <point x="333" y="580" type="curve" smooth="yes"/>
      <point x="128" y="580" type="line"/>
      <point x="128" y="720" type="line"/>
      <point x="70" y="720" type="line"/>
    </contour>
    <contour>
      <point x="128" y="197" type="line"/>
      <point x="128" y="523" type="line"/>
      <point x="332" y="523" type="line" smooth="yes"/>
      <point x="373" y="523"/>
      <point x="416" y="505"/>
      <point x="444" y="476" type="curve" smooth="yes"/>
      <point x="474" y="445"/>
      <point x="491" y="404"/>
      <point x="492" y="360" type="curve" smooth="yes"/>
      <point x="493" y="322"/>
      <point x="478" y="285"/>
      <point x="454" y="256" type="curve" smooth="yes"/>
      <point x="424" y="219"/>
      <point x="378" y="197"/>
      <point x="332" y="197" type="curve" smooth="yes"/>
    </contour>
  </outline>
</glyph>
<glyph name="germandbls" format="2">
  <advance width="587"/>
  <unicode hex="00DF"/>
  <outline>
    <contour>
      <point x="302" y="-14" type="curve" smooth="yes"/>
      <point x="448" y="-14"/>
      <point x="527" y="72"/>
      <point x="527" y="203" type="curve" smooth="yes"/>
      <point x="527" y="322"/>
      <point x="429" y="386"/>
      <point x="367" y="393" type="curve"/>
      <point x="429" y="413"/>
      <point x="462" y="473"/>
      <point x="462" y="546" type="curve" smooth="yes"/>
      <point x="462" y="667"/>
      <point x="383" y="735"/>
      <point x="266" y="735" type="curve" smooth="yes"/>
      <point x="175" y="735"/>
      <point x="112" y="697"/>
      <point x="84" y="622" type="curve" smooth="yes"/>
      <point x="74" y="598"/>
      <point x="70" y="567"/>
      <point x="70" y="532" type="curve" smooth="yes"/>
      <point x="70" y="0" type="line"/>
      <point x="131" y="0" type="line"/>
      <point x="131" y="516" type="line" smooth="yes"/>
      <point x="131" y="545"/>
      <point x="134" y="575"/>
      <point x="142" y="599" type="curve" smooth="yes"/>
      <point x="160" y="654"/>
      <point x="210" y="679"/>
      <point x="267" y="679" type="curve" smooth="yes"/>
      <point x="350" y="679"/>
      <point x="402" y="630"/>
      <point x="402" y="546" type="curve" smooth="yes"/>
      <point x="402" y="460"/>
      <point x="338" y="420"/>
      <point x="267" y="412" type="curve"/>
      <point x="267" y="357" type="line"/>
      <point x="386" y="354"/>
      <point x="467" y="297"/>
      <point x="467" y="204" type="curve" smooth="yes"/>
      <point x="467" y="102"/>
      <point x="398" y="44"/>
      <point x="298" y="44" type="curve" smooth="yes"/>
      <point x="265" y="44"/>
      <point x="240" y="47"/>
      <point x="210" y="57" type="curve"/>
      <point x="210" y="0" type="line"/>
      <point x="238" y="-12"/>
      <point x="270" y="-14"/>
    </contour>
  </outline>
</glyph>
<glyph name="ae" format="2">
  <advance width="944"/>
  <unicode hex="00E6"/>
  <outline>
    <contour>
      <point x="672" y="-15" type="curve" smooth="yes"/>
      <point x="770" y="-15"/>
      <point x="852" y="36"/>
      <point x="892" y="131" type="curve"/>
      <point x="843" y="154" type="line"/>
      <point x="808" y="78"/>
      <point x="746" y="41"/>
      <point x="670" y="41" type="curve" smooth="yes"/>
      <point x="551" y="41"/>
      <point x="490" y="132"/>
      <point x="490" y="270" type="curve" smooth="yes"/>
      <point x="490" y="406"/>
      <point x="549" y="500"/>
      <point x="670" y="500" type="curve" smooth="yes"/>
      <point x="790" y="500"/>
      <point x="843" y="413"/>
      <point x="847" y="274" type="curve"/>
      <point x="847" y="254" type="line"/>
      <point x="904" y="254" type="line"/>
      <point x="906" y="433"/>
      <point x="828" y="555"/>
      <point x="672" y="555" type="curve" smooth="yes"/>
      <point x="520" y="555"/>
      <point x="432" y="440"/>
      <point x="432" y="270" type="curve" smooth="yes"/>
      <point x="432" y="104"/>
      <point x="518" y="-15"/>
    </contour>
    <contour>
      <point x="229" y="38" type="curve" smooth="yes"/>
      <point x="148" y="38"/>
      <point x="99" y="76"/>
      <point x="99" y="146" type="curve" smooth="yes"/>
      <point x="99" y="252"/>
      <point x="215" y="255"/>
      <point x="276" y="256" type="curve" smooth="yes"/>
      <point x="441" y="258" type="line"/>
      <point x="432" y="278" type="line"/>
      <point x="432" y="264"/>
      <point x="434" y="190"/>
      <point x="408" y="138" type="curve" smooth="yes"/>
      <point x="380" y="78"/>
      <point x="312" y="38"/>
    </contour>
    <contour>
      <point x="230" y="-15" type="curve" smooth="yes"/>
      <point x="325" y="-15"/>
      <point x="425" y="22"/>
      <point x="466" y="143" type="curve"/>
      <point x="489" y="335" type="line"/>
      <point x="489" y="362"/>
      <point x="487" y="389"/>
      <point x="479" y="418" type="curve" smooth="yes"/>
      <point x="456" y="504"/>
      <point x="389" y="555"/>
      <point x="279" y="555" type="curve" smooth="yes"/>
      <point x="173" y="555"/>
      <point x="84" y="506"/>
      <point x="61" y="410" type="curve"/>
      <point x="118" y="392" type="line"/>
      <point x="138" y="470"/>
      <point x="203" y="499"/>
      <point x="279" y="499" type="curve" smooth="yes"/>
      <point x="393" y="499"/>
      <point x="438" y="430"/>
      <point x="431" y="298" type="curve"/>
      <point x="437" y="307" type="line"/>
      <point x="272" y="304" type="line" smooth="yes"/>
      <point x="205" y="302"/>
      <point x="40" y="298"/>
      <point x="40" y="146" type="curve" smooth="yes"/>
      <point x="40" y="46"/>
      <point x="111" y="-15"/>
    </contour>
    <contour>
      <point x="469" y="254" type="line"/>
      <point x="872" y="254" type="line"/>
      <point x="872" y="306" type="line"/>
      <point x="469" y="306" type="line"/>
    </contour>
  </outline>
</glyph>
<glyph name="eth" format="2">
  <advance width="578"/>
  <unicode hex="00F0"/>
  <outline>
    <contour>
      <point x="289" y="-15" type="curve" smooth="yes"/>
      <point x="443" y="-17"/>
      <point x="538" y="91"/>
      <point x="538" y="253" type="curve" smooth="yes"/>
      <point x="538" y="419"/>
      <point x="530" y="505"/>
      <point x="483" y="585" type="curve" smooth="yes"/>
      <point x="433" y="680"/>
      <point x="346" y="731"/>
      <point x="233" y="738" type="curve"/>
      <point x="225" y="686" type="line"/>
      <point x="321" y="680"/>
      <point x="395" y="636"/>
      <point x="439" y="556" type="curve" smooth="yes"/>
      <point x="461" y="518"/>
      <point x="472" y="477"/>
      <point x="476" y="435" type="curve"/>
      <point x="432" y="492"/>
      <point x="367" y="520"/>
      <point x="289" y="519" type="curve" smooth="yes"/>
      <point x="136" y="520"/>
      <point x="42" y="415"/>
      <point x="40" y="252" type="curve" smooth="yes"/>
      <point x="42" y="91"/>
      <point x="134" y="-17"/>
    </contour>
    <contour>
      <point x="289" y="40" type="curve" smooth="yes"/>
      <point x="167" y="40"/>
      <point x="100" y="119"/>
      <point x="100" y="252" type="curve" smooth="yes"/>
      <point x="100" y="381"/>
      <point x="166" y="466"/>
      <point x="289" y="464" type="curve" smooth="yes"/>
      <point x="408" y="466"/>
      <point x="478" y="384"/>
      <point x="478" y="253" type="curve" smooth="yes"/>
      <point x="478" y="123"/>
      <point x="413" y="40"/>
    </contour>
    <contour>
      <point x="306" y="571" type="line"/>
      <point x="450" y="754" type="line"/>
      <point x="408" y="786" type="line"/>
      <point x="265" y="604" type="line"/>
    </contour>
  </outline>
</glyph>
<glyph name="oslash" format="2">
  <advance width="583"/>
  <unicode hex="00F8"/>
  <outline>
    <contour>
      <point x="58" y="-2" type="line"/>
      <point x="565" y="503" type="line"/>
      <point x="525" y="542" type="line"/>
      <point x="18" y="38" type="line"/>
    </contour>
    <component base="o"/>
  </outline>
</glyph>
<glyph name="eogonek" format="2">
  <advance width="579"/>
  <unicode hex="0119"/>
  <outline>
    <contour>
      <point x="436" y="-232" type="curve" smooth="yes"/>
      <point x="455" y="-223"/>
      <point x="470" y="-212"/>
      <point x="482" y="-199" type="curve"/>
      <point x="452" y="-164" type="line"/>
      <point x="430" y="-185"/>
      <point x="396" y="-201"/>
      <point x="372" y="-176" type="curve" smooth="yes"/>
      <point x="359" y="-163"/>
      <point x="360" y="-145"/>
      <point x="364" y="-128" type="curve" smooth="yes"/>
      <point x="371" y="-103"/>
      <point x="388" y="-76"/>
      <point x="405" y="-50" type="curve" smooth="yes"/>
      <point x="421" y="-25"/>
      <point x="492" y="58"/>
      <point x="520" y="118" type="curve"/>
      <point x="471" y="118" type="line"/>
      <point x="442" y="58"/>
      <point x="380" y="-3"/>
      <point x="360" y="-29" type="curve" smooth="yes"/>
      <point x="342" y="-55"/>
      <point x="324" y="-84"/>
      <point x="316" y="-113" type="curve" smooth="yes"/>
      <point x="304" y="-150"/>
      <point x="310" y="-186"/>
      <point x="334" y="-212" type="curve" smooth="yes"/>
      <point x="358" y="-238"/>
      <point x="399" y="-248"/>
    </contour>
    <component base="e"/>
  </outline>
</glyph>
<glyph name="Eng" format="2">
  <advance width="673"/>
  <unicode hex="014A"/>
  <outline>
    <contour>
      <point x="515" y="-189" type="curve" smooth="yes"/>
      <point x="565" y="-189"/>
      <point x="603" y="-170"/>
      <point x="603" y="-94" type="curve" smooth="yes"/>
      <point x="603" y="11" type="line"/>
      <point x="478" y="100" type="line"/>
      <point x="517" y="42" type="line" smooth="yes"/>
      <point x="540" y="7"/>
      <point x="550" y="-26"/>
      <point x="550" y="-59" type="curve" smooth="yes"/>
      <point x="550" y="-116"/>
      <point x="537" y="-135"/>
      <point x="498" y="-135" type="curve" smooth="yes"/>
      <point x="489" y="-135"/>
      <point x="478" y="-134"/>
      <point x="467" y="-132" type="curve"/>
      <point x="467" y="-183" type="line"/>
      <point x="483" y="-187"/>
      <point x="497" y="-189"/>
    </contour>
    <component base="N"/>
  </outline>
</glyph>
<glyph name="eng" format="2">
  <advance width="584"/>
  <unicode hex="014B"/>
  <outline>
    <contour>
      <point x="463" y="-187" type="curve" smooth="yes"/>
      <point x="499" y="-180"/>
      <point x="524" y="-154"/>
      <point x="524" y="-94" type="curve" smooth="yes"/>
      <point x="524" y="1" type="line"/>
      <point x="466" y="1" type="line"/>
      <point x="466" y="-57" type="line" smooth="yes"/>
      <point x="466" y="-130"/>
      <point x="447" y="-142"/>
      <point x="388" y="-133" type="curve"/>
      <point x="388" y="-183" type="line"/>
      <point x="410" y="-189"/>
      <point x="431" y="-192"/>
    </contour>
    <component base="n"/>
  </outline>
</glyph>
<glyph name="Tbar" format="2">
  <advance width="593"/>
  <unicode hex="0166"/>
  <outline>
    <contour>
      <point x="82" y="331" type="line"/>
      <point x="512" y="331" type="line"/>
      <point x="512" y="389" type="line"/>
      <point x="82" y="389" type="line"/>
    </contour>
    <component base="T"/>
  </outline>
</glyph>
<glyph name="tbar" format="2">
  <advance width="410"/>
  <unicode hex="0167"/>
  <outline>
    <contour>
      <point x="10" y="246" type="line"/>
      <point x="360" y="246" type="line"/>
      <point x="360" y="298" type="line"/>
      <point x="10" y="298" type="line"/>
    </contour>
    <component base="t"/>
  </outline>
</glyph>
<glyph name="florin" format="2">
  <advance width="710"/>
  <unicode hex="0192"/>
  <outline>
    <contour>
      <point x="147" y="-15" type="curve" smooth="yes"/>
      <point x="209" y="-15"/>
      <point x="314" y="15"/>
      <point x="342" y="185" type="curve" smooth="yes"/>
      <point x="402" y="551" type="line" smooth="yes"/>
      <point x="421" y="664"/>
      <point x="510" y="679"/>
      <point x="554" y="679" type="curve" smooth="yes"/>
      <point x="609" y="679"/>
      <point x="652" y="656"/>
      <point x="652" y="656" type="curve"/>
      <point x="680" y="705" type="line" smooth="yes"/>
      <point x="674" y="710"/>
      <point x="618" y="735"/>
      <point x="554" y="735" type="curve" smooth="yes"/>
      <point x="481" y="735"/>
      <point x="366" y="695"/>
      <point x="343" y="552" type="curve" smooth="yes"/>
      <point x="285" y="194" type="line" smooth="yes"/>
      <point x="264" y="69"/>
      <point x="196" y="41"/>
      <point x="146" y="41" type="curve" smooth="yes"/>
      <point x="98" y="41"/>
      <point x="51" y="63"/>
      <point x="47" y="65" type="curve"/>
      <point x="22" y="14" type="line"/>
      <point x="31" y="10"/>
      <point x="87" y="-15"/>
    </contour>
    <contour>
      <point x="121" y="334" type="line"/>
      <point x="609" y="334" type="line"/>
      <point x="609" y="386" type="line"/>
      <point x="121" y="386" type="line"/>
    </contour>
  </outline>
</glyph>
<glyph name="tildecomb" format="2">
  <unicode hex="0303"/>
  <outline>
    <contour>
      <point x="334" y="810" type="curve" smooth="yes"/>
      <point x="385" y="810"/>
      <point x="417" y="853"/>
      <point x="404" y="903" type="curve"/>
      <point x="361" y="903" type="line"/>
      <point x="369" y="880"/>
      <point x="360" y="860"/>
      <point x="335" y="860" type="curve" smooth="yes"/>
      <point x="295" y="860"/>
      <point x="247" y="908"/>
      <point x="192" y="908" type="curve" smooth="yes"/>
      <point x="143" y="908"/>
      <point x="110" y="868"/>
      <point x="123" y="816" type="curve"/>
      <point x="166" y="816" type="line"/>
      <point x="159" y="835"/>
      <point x="165" y="858"/>
      <point x="192" y="858" type="curve" smooth="yes"/>
      <point x="233" y="858"/>
      <point x="280" y="810"/>
    </contour>
  </outline>
</glyph>
<glyph name="brevecomb" format="2">
  <unicode hex="0306"/>
  <outline>
    <contour>
      <point x="242" y="780" type="curve" smooth="yes"/>
      <point x="309" y="780"/>
      <point x="363" y="834"/>
      <point x="363" y="902" type="curve"/>
      <point x="313" y="902" type="line"/>
      <point x="313" y="862"/>
      <point x="282" y="830"/>
      <point x="242" y="830" type="curve" smooth="yes"/>
      <point x="202" y="830"/>
      <point x="170" y="862"/>
      <point x="170" y="902" type="curve"/>
      <point x="120" y="902" type="line"/>
      <point x="120" y="834"/>
      <point x="174" y="780"/>
    </contour>
  </outline>
</glyph>
<glyph name="dieresiscomb" format="2">
  <unicode hex="0308"/>
  <outline>
    <contour>
      <point x="305" y="840" type="line"/>
      <point x="375" y="840" type="line"/>
      <point x="375" y="910" type="line"/>
      <point x="305" y="910" type="line"/>
    </contour>
    <contour>
      <point x="120" y="840" type="line"/>
      <point x="190" y="840" type="line"/>
      <point x="190" y="910" type="line"/>
      <point x="120" y="910" type="line"/>
    </contour>
  </outline>
</glyph>
<glyph name="ringcomb" format="2">
  <unicode hex="030A"/>
  <outline>
    <contour>
      <point x="230" y="672" type="curve" smooth="yes"/>
      <point x="290" y="672"/>
      <point x="338" y="720"/>
      <point x="338" y="780" type="curve" smooth="yes"/>
      <point x="338" y="839"/>
      <point x="290" y="888"/>
      <point x="230" y="888" type="curve" smooth="yes"/>
      <point x="171" y="888"/>
      <point x="122" y="839"/>
      <point x="122" y="780" type="curve" smooth="yes"/>
      <point x="122" y="720"/>
      <point x="171" y="672"/>
    </contour>
    <contour>
      <point x="230" y="720" type="curve" smooth="yes"/>
      <point x="197" y="720"/>
      <point x="170" y="747"/>
      <point x="170" y="780" type="curve" smooth="yes"/>
      <point x="170" y="813"/>
      <point x="197" y="840"/>
      <point x="230" y="840" type="curve" smooth="yes"/>
      <point x="264" y="840"/>
      <point x="290" y="813"/>
      <point x="290" y="780" type="curve" smooth="yes"/>
      <point x="290" y="747"/>
      <point x="264" y="720"/>
    </contour>
  </outline>
</glyph>
<glyph name="hungarumlautcomb" format="2">
  <unicode hex="030B"/>
  <outline>
    <contour>
      <point x="294" y="793" type="line"/>
      <point x="394" y="891" type="line"/>
      <point x="361" y="925" type="line"/>
      <point x="260" y="827" type="line"/>
    </contour>
    <contour>
      <point x="153" y="793" type="line"/>
      <point x="253" y="891" type="line"/>
      <point x="220" y="925" type="line"/>
      <point x="120" y="827" type="line"/>
    </contour>
  </outline>
</glyph>
<glyph name="commaaccentcomb" format="2">
  <unicode hex="0326"/>
  <outline>
    <contour>
      <point x="120" y="-232" type="line"/>
      <point x="153" y="-232"/>
      <point x="191" y="-210"/>
      <point x="191" y="-156" type="curve" smooth="yes"/>
      <point x="191" y="-85" type="line"/>
      <point x="120" y="-85" type="line"/>
      <point x="120" y="-156" type="line"/>
      <point x="158" y="-156" type="line"/>
      <point x="160" y="-189"/>
      <point x="131" y="-198"/>
      <point x="120" y="-198" type="curve"/>
    </contour>
  </outline>
</glyph>
<glyph name="cedillacomb" format="2">
  <unicode hex="0327"/>
  <outline>
    <contour>
      <point x="182" y="-240" type="curve" smooth="yes"/>
      <point x="232" y="-240"/>
      <point x="273" y="-200"/>
      <point x="273" y="-149" type="curve" smooth="yes"/>
      <point x="273" y="-106"/>
      <point x="248" y="-80"/>
      <point x="213" y="-65" type="curve"/>
      <point x="240" y="9" type="line"/>
      <point x="192" y="9" type="line"/>
      <point x="154" y="-94" type="line"/>
      <point x="188" y="-105"/>
      <point x="221" y="-115"/>
      <point x="221" y="-147" type="curve" smooth="yes"/>
      <point x="221" y="-169"/>
      <point x="205" y="-190"/>
      <point x="177" y="-190" type="curve" smooth="yes"/>
      <point x="166" y="-190"/>
      <point x="151" y="-186"/>
      <point x="136" y="-181" type="curve"/>
      <point x="120" y="-225" type="line"/>
      <point x="138" y="-233"/>
      <point x="159" y="-240"/>
    </contour>
  </outline>
</glyph>
<glyph name="ogonekcomb" format="2">
  <unicode hex="0328"/>
  <outline>
    <contour>
      <point x="212" y="-242" type="curve" smooth="yes"/>
      <point x="240" y="-242"/>
      <point x="270" y="-228"/>
      <point x="292" y="-199" type="curve"/>
      <point x="264" y="-165" type="line"/>
      <point x="249" y="-181"/>
      <point x="232" y="-192"/>
      <point x="215" y="-192" type="curve" smooth="yes"/>
      <point x="193" y="-192"/>
      <point x="174" y="-173"/>
      <point x="174" y="-146" type="curve" smooth="yes"/>
      <point x="174" y="-100"/>
      <point x="227" y="-38"/>
      <point x="288" y="0" type="curve"/>
      <point x="253" y="38" type="line"/>
      <point x="180" y="-14"/>
      <point x="120" y="-85"/>
      <point x="120" y="-148" type="curve" smooth="yes"/>
      <point x="120" y="-198"/>
      <point x="162" y="-242"/>
    </contour>
  </outline>
</glyph>
<glyph name="slashshortcomb" format="2">
  <unicode hex="0337"/>
  <outline>
    <contour>
      <point x="47" y="214" type="line"/>
      <point x="326" y="375" type="line"/>
      <point x="326" y="441" type="line"/>
      <point x="47" y="280" type="line"/>
    </contour>
  </outline>
</glyph>
<glyph name="tonos" format="2">
  <advance width="600"/>
  <unicode hex="0384"/>
  <outline>
    <contour>
      <point x="240" y="640" type="line"/>
      <point x="293" y="640" type="line"/>
      <point x="360" y="860" type="line"/>
      <point x="307" y="860" type="line"/>
    </contour>
  </outline>
</glyph>
<glyph name="Sigma" format="2">
  <advance width="655"/>
  <unicode hex="03A3"/>
  <outline>
    <contour>
      <point x="70" y="0" type="line"/>
      <point x="569" y="0" type="line"/>
      <point x="569" y="56" type="line"/>
      <point x="157" y="56" type="line"/>
      <point x="450" y="352" type="line"/>
      <point x="450" y="368" type="line"/>
      <point x="157" y="664" type="line"/>
      <point x="585" y="664" type="line"/>
      <point x="585" y="720" type="line"/>
      <point x="70" y="720" type="line"/>
      <point x="70" y="665" type="line"/>
      <point x="372" y="360" type="line"/>
      <point x="70" y="54" type="line"/>
    </contour>
  </outline>
</glyph>
<glyph name="Psi" format="2">
  <advance width="703"/>
  <unicode hex="03A8"/>
  <outline>
    <contour>
      <point x="322" y="0" type="line"/>
      <point x="380" y="0" type="line"/>
      <point x="380" y="181" type="line"/>
      <point x="498" y="184"/>
      <point x="581" y="248"/>
      <point x="616" y="345" type="curve" smooth="yes"/>
      <point x="632" y="389"/>
      <point x="633" y="424"/>
      <point x="633" y="445" type="curve" smooth="yes"/>
      <point x="633" y="720" type="line"/>
      <point x="576" y="720" type="line"/>
      <point x="576" y="490" type="line" smooth="yes"/>
      <point x="576" y="468"/>
      <point x="576" y="428"/>
      <point x="568" y="390" type="curve" smooth="yes"/>
      <point x="546" y="299"/>
      <point x="478" y="236"/>
      <point x="380" y="235" type="curve"/>
      <point x="380" y="720" type="line"/>
      <point x="322" y="720" type="line"/>
      <point x="322" y="235" type="line"/>
      <point x="226" y="236"/>
      <point x="158" y="298"/>
      <point x="136" y="388" type="curve" smooth="yes"/>
      <point x="126" y="427"/>
      <point x="126" y="468"/>
      <point x="126" y="490" type="curve" smooth="yes"/>
      <point x="126" y="720" type="line"/>
      <point x="70" y="720" type="line"/>
      <point x="70" y="445" type="line" smooth="yes"/>
      <point x="70" y="425"/>
      <point x="70" y="388"/>
      <point x="87" y="345" type="curve" smooth="yes"/>
      <point x="121" y="249"/>
      <point x="203" y="184"/>
      <point x="322" y="181" type="curve"/>
    </contour>
  </outline>
</glyph>
<glyph name="Omega" format="2">
  <advance width="715"/>
  <unicode hex="03A9"/>
  <outline>
    <contour>
      <point x="32" y="0" type="line"/>
      <point x="263" y="0" type="line"/>
      <point x="263" y="56" type="line"/>
      <point x="189" y="95"/>
      <point x="92" y="199"/>
      <point x="92" y="365" type="curve" smooth="yes"/>
      <point x="92" y="532"/>
      <point x="190" y="678"/>
      <point x="357" y="678" type="curve" smooth="yes"/>
      <point x="526" y="678"/>
      <point x="627" y="531"/>
      <point x="623" y="360" type="curve" smooth="yes"/>
      <point x="619" y="201"/>
      <point x="527" y="96"/>
      <point x="452" y="56" type="curve"/>
      <point x="451" y="0" type="line"/>
      <point x="682" y="0" type="line"/>
      <point x="682" y="56" type="line"/>
      <point x="537" y="56" type="line"/>
      <point x="627" y="126"/>
      <point x="685" y="236"/>
      <point x="685" y="376" type="curve" smooth="yes"/>
      <point x="685" y="578"/>
      <point x="563" y="734"/>
      <point x="357" y="734" type="curve" smooth="yes"/>
      <point x="152" y="734"/>
      <point x="30" y="578"/>
      <point x="30" y="376" type="curve" smooth="yes"/>
      <point x="30" y="236"/>
      <point x="88" y="126"/>
      <point x="178" y="56" type="curve"/>
      <point x="32" y="56" type="line"/>
    </contour>
  </outline>
</glyph>
<glyph name="alpha" format="2">
  <advance width="602"/>
  <unicode hex="03B1"/>
  <outline>
    <contour>
      <point x="278" y="-15" type="curve" smooth="yes"/>
      <point x="390" y="-15"/>
      <point x="471" y="53"/>
      <point x="492" y="166" type="curve"/>
      <point x="480" y="192" type="line"/>
      <point x="480" y="0" type="line"/>
      <point x="532" y="0" type="line"/>
      <point x="532" y="540" type="line"/>
      <point x="480" y="540" type="line"/>
      <point x="480" y="350" type="line"/>
      <point x="492" y="376" type="line"/>
      <point x="471" y="487"/>
      <point x="392" y="555"/>
      <point x="279" y="555" type="curve" smooth="yes"/>
      <point x="124" y="555"/>
      <point x="40" y="431"/>
      <point x="40" y="270" type="curve" smooth="yes"/>
      <point x="40" y="109"/>
      <point x="125" y="-15"/>
    </contour>
    <contour>
      <point x="282" y="40" type="curve" smooth="yes"/>
      <point x="162" y="40"/>
      <point x="102" y="140"/>
      <point x="102" y="271" type="curve" smooth="yes"/>
      <point x="102" y="403"/>
      <point x="161" y="500"/>
      <point x="282" y="500" type="curve" smooth="yes"/>
      <point x="401" y="500"/>
      <point x="462" y="405"/>
      <point x="462" y="271" type="curve" smooth="yes"/>
      <point x="462" y="139"/>
      <point x="402" y="40"/>
    </contour>
  </outline>
</glyph>
<glyph name="beta" format="2">
  <advance width="555"/>
  <unicode hex="03B2"/>
  <outline>
    <contour>
      <point x="70" y="-240" type="line"/>
      <point x="127" y="-240" type="line"/>
      <point x="127" y="50" type="line"/>
      <point x="164" y="10"/>
      <point x="221" y="-15"/>
      <point x="296" y="-15" type="curve" smooth="yes"/>
      <point x="443" y="-15"/>
      <point x="526" y="74"/>
      <point x="526" y="196" type="curve" smooth="yes"/>
      <point x="526" y="322"/>
      <point x="436" y="383"/>
      <point x="366" y="393" type="curve"/>
      <point x="430" y="413"/>
      <point x="462" y="473"/>
      <point x="462" y="548" type="curve" smooth="yes"/>
      <point x="462" y="666"/>
      <point x="382" y="735"/>
      <point x="265" y="735" type="curve" smooth="yes"/>
      <point x="171" y="735"/>
      <point x="108" y="691"/>
      <point x="83" y="622" type="curve" smooth="yes"/>
      <point x="74" y="600"/>
      <point x="70" y="571"/>
      <point x="70" y="540" type="curve" smooth="yes"/>
    </contour>
    <contour>
      <point x="298" y="42" type="curve" smooth="yes"/>
      <point x="224" y="42"/>
      <point x="156" y="79"/>
      <point x="138" y="138" type="curve" smooth="yes"/>
      <point x="133" y="156"/>
      <point x="130" y="182"/>
      <point x="130" y="208" type="curve" smooth="yes"/>
      <point x="130" y="516" type="line" smooth="yes"/>
      <point x="130" y="543"/>
      <point x="132" y="573"/>
      <point x="141" y="599" type="curve" smooth="yes"/>
      <point x="160" y="655"/>
      <point x="210" y="679"/>
      <point x="266" y="679" type="curve" smooth="yes"/>
      <point x="349" y="679"/>
      <point x="401" y="629"/>
      <point x="401" y="548" type="curve" smooth="yes"/>
      <point x="401" y="460"/>
      <point x="339" y="421"/>
      <point x="266" y="412" type="curve"/>
      <point x="266" y="357" type="line"/>
      <point x="389" y="354"/>
      <point x="466" y="298"/>
      <point x="466" y="199" type="curve" smooth="yes"/>
      <point x="466" y="105"/>
      <point x="397" y="42"/>
    </contour>
  </outline>
</glyph>
<glyph name="delta" format="2">
  <advance width="583"/>
  <unicode hex="03B4"/>
  <outline>
    <contour>
      <point x="291" y="-14" type="curve" smooth="yes"/>
      <point x="451" y="-14"/>
      <point x="543" y="94"/>
      <point x="543" y="252" type="curve" smooth="yes"/>
      <point x="543" y="408"/>
      <point x="453" y="516"/>
      <point x="291" y="516" type="curve"/>
      <point x="291" y="502" type="line"/>
      <point x="134" y="514"/>
      <point x="40" y="404"/>
      <point x="40" y="247" type="curve" smooth="yes"/>
      <point x="40" y="91"/>
      <point x="131" y="-14"/>
    </contour>
    <contour>
      <point x="292" y="42" type="curve" smooth="yes"/>
      <point x="168" y="42"/>
      <point x="104" y="123"/>
      <point x="104" y="252" type="curve" smooth="yes"/>
      <point x="104" y="376"/>
      <point x="164" y="460"/>
      <point x="292" y="460" type="curve" smooth="yes"/>
      <point x="416" y="460"/>
      <point x="479" y="380"/>
      <point x="479" y="253" type="curve" smooth="yes"/>
      <point x="479" y="126"/>
      <point x="417" y="42"/>
    </contour>
    <contour>
      <point x="363" y="459" type="curve"/>
      <point x="386" y="501" type="line"/>
      <point x="258" y="543"/>
      <point x="174" y="566"/>
      <point x="174" y="623" type="curve" smooth="yes"/>
      <point x="174" y="654"/>
      <point x="196" y="672"/>
      <point x="228" y="680" type="curve" smooth="yes"/>
      <point x="243" y="683"/>
      <point x="260" y="685"/>
      <point x="278" y="685" type="curve" smooth="yes"/>
      <point x="458" y="685" type="line"/>
      <point x="458" y="735" type="line"/>
      <point x="266" y="735" type="line" smooth="yes"/>
      <point x="252" y="735"/>
      <point x="230" y="735"/>
      <point x="208" y="730" type="curve" smooth="yes"/>
      <point x="145" y="717"/>
      <point x="117" y="674"/>
      <point x="117" y="624" type="curve" smooth="yes"/>
      <point x="117" y="506"/>
      <point x="276" y="487"/>
    </contour>
  </outline>
</glyph>
<glyph name="zeta" format="2">
  <advance width="497"/>
  <unicode hex="03B6"/>
  <outline>
    <contour>
      <point x="425" y="-120" type="curve"/>
      <point x="479" y="-120" type="line"/>
      <point x="494" y="-11"/>
      <point x="446" y="35"/>
      <point x="382" y="48" type="curve" smooth="yes"/>
      <point x="352" y="54"/>
      <point x="307" y="54"/>
      <point x="295" y="54" type="curve" smooth="yes"/>
      <point x="168" y="55"/>
      <point x="101" y="81"/>
      <point x="101" y="183" type="curve" smooth="yes"/>
      <point x="101" y="249"/>
      <point x="129" y="310"/>
      <point x="246" y="431" type="curve" smooth="yes"/>
      <point x="314" y="498"/>
      <point x="415" y="601"/>
      <point x="480" y="669" type="curve"/>
      <point x="480" y="720" type="line"/>
      <point x="70" y="720" type="line"/>
      <point x="70" y="665" type="line"/>
      <point x="395" y="665" type="line"/>
      <point x="302" y="572"/>
      <point x="219" y="484"/>
      <point x="187" y="452" type="curve" smooth="yes"/>
      <point x="61" y="317"/>
      <point x="40" y="248"/>
      <point x="40" y="178" type="curve" smooth="yes"/>
      <point x="40" y="15"/>
      <point x="157" y="5"/>
      <point x="270" y="0" type="curve" smooth="yes"/>
      <point x="389" y="-4"/>
      <point x="433" y="-8"/>
    </contour>
  </outline>
</glyph>
<glyph name="iota" format="2">
  <advance width="339"/>
  <unicode hex="03B9"/>
  <outline>
    <contour>
      <point x="200" y="-5" type="curve" smooth="yes"/>
      <point x="231" y="-9"/>
      <point x="272" y="-8"/>
      <point x="305" y="0" type="curve"/>
      <point x="305" y="52" type="line"/>
      <point x="278" y="46"/>
      <point x="245" y="45"/>
      <point x="216" y="48" type="curve" smooth="yes"/>
      <point x="186" y="52"/>
      <point x="163" y="63"/>
      <point x="149" y="91" type="curve" smooth="yes"/>
      <point x="135" y="118"/>
      <point x="138" y="142"/>
      <point x="138" y="189" type="curve" smooth="yes"/>
      <point x="138" y="540" type="line"/>
      <point x="80" y="540" type="line"/>
      <point x="80" y="187" type="line" smooth="yes"/>
      <point x="80" y="136"/>
      <point x="78" y="100"/>
      <point x="96" y="63" type="curve" smooth="yes"/>
      <point x="118" y="21"/>
      <point x="154" y="1"/>
    </contour>
  </outline>
</glyph>
<glyph name="lambda" format="2">
  <advance width="493"/>
  <unicode hex="03BB"/>
  <outline>
    <contour>
      <point x="20" y="0" type="line"/>
      <point x="79" y="0" type="line"/>
      <point x="246" y="462" type="line"/>
      <point x="413" y="0" type="line"/>
      <point x="473" y="0" type="line"/>
      <point x="277" y="540" type="line" smooth="yes"/>
      <point x="245" y="629"/>
      <point x="220" y="714"/>
      <point x="146" y="730" type="curve" smooth="yes"/>
      <point x="129" y="734"/>
      <point x="107" y="735"/>
      <point x="94" y="735" type="curve" smooth="yes"/>
      <point x="62" y="735" type="line"/>
      <point x="62" y="684" type="line"/>
      <point x="87" y="684" type="line" smooth="yes"/>
      <point x="168" y="684"/>
      <point x="180" y="635"/>
      <point x="216" y="540" type="curve"/>
    </contour>
  </outline>
</glyph>
<glyph name="mu" format="2">
  <advance width="594"/>
  <unicode hex="03BC"/>
  <outline>
    <contour>
      <point x="70" y="-240" type="line"/>
      <point x="122" y="-240" type="line"/>
      <point x="122" y="70" type="line"/>
      <point x="158" y="17"/>
      <point x="214" y="-13"/>
      <point x="288" y="-13" type="curve" smooth="yes"/>
      <point x="364" y="-13"/>
      <point x="431" y="17"/>
      <point x="471" y="82" type="curve"/>
      <point x="471" y="0" type="line"/>
      <point x="524" y="0" type="line"/>
      <point x="524" y="540" type="line"/>
      <point x="466" y="540" type="line"/>
      <point x="466" y="248" type="line" smooth="yes"/>
      <point x="466" y="130"/>
      <point x="413" y="43"/>
      <point x="295" y="43" type="curve" smooth="yes"/>
      <point x="182" y="43"/>
      <point x="128" y="123"/>
      <point x="128" y="259" type="curve" smooth="yes"/>
      <point x="128" y="540" type="line"/>
      <point x="70" y="540" type="line"/>
    </contour>
  </outline>
</glyph>
<glyph name="xi" format="2">
  <advance width="564"/>
  <unicode hex="03BE"/>
  <outline>
    <contour>
      <point x="486" y="-120" type="curve"/>
      <point x="540" y="-120" type="line"/>
      <point x="557" y="-9"/>
      <point x="504" y="36"/>
      <point x="441" y="48" type="curve" smooth="yes"/>
      <point x="408" y="54"/>
      <point x="358" y="54"/>
      <point x="344" y="54" type="curve" smooth="yes"/>
      <point x="188" y="55"/>
      <point x="102" y="100"/>
      <point x="102" y="214" type="curve" smooth="yes"/>
      <point x="102" y="322"/>
      <point x="178" y="349"/>
      <point x="285" y="354" type="curve" smooth="yes"/>
      <point x="358" y="356"/>
      <point x="358" y="356"/>
      <point x="367" y="356" type="curve"/>
      <point x="367" y="413" type="line"/>
      <point x="361" y="413"/>
      <point x="309" y="413"/>
      <point x="287" y="414" type="curve" smooth="yes"/>
      <point x="186" y="418"/>
      <point x="126" y="466"/>
      <point x="126" y="549" type="curve" smooth="yes"/>
      <point x="126" y="637"/>
      <point x="194" y="679"/>
      <point x="287" y="679" type="curve" smooth="yes"/>
      <point x="385" y="679"/>
      <point x="439" y="632"/>
      <point x="481" y="554" type="curve"/>
      <point x="533" y="585" type="line"/>
      <point x="487" y="674"/>
      <point x="407" y="735"/>
      <point x="287" y="735" type="curve" smooth="yes"/>
      <point x="169" y="735"/>
      <point x="64" y="677"/>
      <point x="64" y="550" type="curve" smooth="yes"/>
      <point x="64" y="472"/>
      <point x="104" y="414"/>
      <point x="163" y="384" type="curve"/>
      <point x="86" y="363"/>
      <point x="40" y="304"/>
      <point x="40" y="208" type="curve" smooth="yes"/>
      <point x="40" y="87"/>
      <point x="114" y="8"/>
      <point x="322" y="0" type="curve" smooth="yes"/>
      <point x="450" y="-4"/>
      <point x="495" y="-6"/>
    </contour>
  </outline>
</glyph>
<glyph name="rho" format="2">
  <advance width="585"/>
  <unicode hex="03C1"/>
  <outline>
    <contour>
      <point x="70" y="-240" type="line"/>
      <point x="128" y="-240" type="line"/>
      <point x="128" y="83" type="line"/>
      <point x="160" y="25"/>
      <point x="225" y="-15"/>
      <point x="310" y="-15" type="curve" smooth="yes"/>
      <point x="459" y="-15"/>
      <point x="545" y="109"/>
      <point x="545" y="271" type="curve" smooth="yes"/>
      <point x="545" y="431"/>
      <point x="463" y="555"/>
      <point x="306" y="555" type="curve" smooth="yes"/>
      <point x="166" y="555"/>
      <point x="84" y="456"/>
      <point x="73" y="321" type="curve" smooth="yes"/>
      <point x="71" y="302"/>
      <point x="70" y="275"/>
      <point x="70" y="239" type="curve" smooth="yes"/>
    </contour>
    <contour>
      <point x="304" y="40" type="curve" smooth="yes"/>
      <point x="184" y="40"/>
      <point x="128" y="138"/>
      <point x="128" y="272" type="curve" smooth="yes"/>
      <point x="128" y="406"/>
      <point x="184" y="500"/>
      <point x="304" y="500" type="curve" smooth="yes"/>
      <point x="426" y="500"/>
      <point x="485" y="403"/>
      <point x="485" y="271" type="curve" smooth="yes"/>
      <point x="485" y="139"/>
      <point x="423" y="40"/>
    </contour>
  </outline>
</glyph>
<glyph name="sigmafinal" format="2">
  <advance width="546"/>
  <unicode hex="03C2"/>
  <outline>
    <contour>
      <point x="429" y="-120" type="curve"/>
      <point x="482" y="-120" type="line"/>
      <point x="497" y="-12"/>
      <point x="451" y="35"/>
      <point x="385" y="48" type="curve" smooth="yes"/>
      <point x="353" y="55"/>
      <point x="304" y="54"/>
      <point x="280" y="54" type="curve" smooth="yes"/>
      <point x="125" y="55"/>
      <point x="102" y="189"/>
      <point x="103" y="270" type="curve" smooth="yes"/>
      <point x="104" y="401"/>
      <point x="164" y="499"/>
      <point x="288" y="499" type="curve" smooth="yes"/>
      <point x="367" y="499"/>
      <point x="428" y="460"/>
      <point x="456" y="393" type="curve"/>
      <point x="512" y="413" type="line"/>
      <point x="479" y="504"/>
      <point x="395" y="555"/>
      <point x="288" y="555" type="curve" smooth="yes"/>
      <point x="131" y="555"/>
      <point x="40" y="447"/>
      <point x="40" y="257" type="curve" smooth="yes"/>
      <point x="40" y="162"/>
      <point x="69" y="8"/>
      <point x="271" y="0" type="curve" smooth="yes"/>
      <point x="388" y="-5"/>
      <point x="437" y="-5"/>
    </contour>
  </outline>
</glyph>
<glyph name="sigma" format="2">
  <advance width="593"/>
  <unicode hex="03C3"/>
  <outline>
    <contour>
      <point x="291" y="-15" type="curve" smooth="yes"/>
      <point x="445" y="-15"/>
      <point x="543" y="101"/>
      <point x="543" y="263" type="curve" smooth="yes"/>
      <point x="543" y="372"/>
      <point x="498" y="462"/>
      <point x="426" y="503" type="curve"/>
      <point x="403" y="485" type="line"/>
      <point x="573" y="485" type="line"/>
      <point x="573" y="540" type="line"/>
      <point x="338" y="540" type="line" smooth="yes"/>
      <point x="307" y="540"/>
      <point x="272" y="540"/>
      <point x="246" y="536" type="curve" smooth="yes"/>
      <point x="118" y="516"/>
      <point x="40" y="410"/>
      <point x="40" y="263" type="curve" smooth="yes"/>
      <point x="40" y="101"/>
      <point x="138" y="-15"/>
    </contour>
    <contour>
      <point x="291" y="41" type="curve" smooth="yes"/>
      <point x="170" y="41"/>
      <point x="102" y="129"/>
      <point x="102" y="263" type="curve" smooth="yes"/>
      <point x="102" y="389"/>
      <point x="165" y="485"/>
      <point x="291" y="484" type="curve" smooth="yes"/>
      <point x="416" y="483"/>
      <point x="481" y="393"/>
      <point x="481" y="263" type="curve" smooth="yes"/>
      <point x="481" y="131"/>
      <point x="416" y="41"/>
    </contour>
  </outline>
</glyph>
<glyph name="tau" format="2">
  <advance width="543"/>
  <unicode hex="03C4"/>
  <outline>
    <contour>
      <point x="340" y="-5" type="curve" smooth="yes"/>
      <point x="371" y="-9"/>
      <point x="412" y="-8"/>
      <point x="446" y="0" type="curve"/>
      <point x="446" y="52" type="line"/>
      <point x="418" y="46"/>
      <point x="385" y="45"/>
      <point x="356" y="48" type="curve" smooth="yes"/>
      <point x="326" y="52"/>
      <point x="304" y="63"/>
      <point x="289" y="91" type="curve" smooth="yes"/>
      <point x="275" y="118"/>
      <point x="278" y="142"/>
      <point x="278" y="189" type="curve" smooth="yes"/>
      <point x="278" y="485" type="line"/>
      <point x="473" y="485" type="line"/>
      <point x="473" y="540" type="line"/>
      <point x="25" y="540" type="line"/>
      <point x="25" y="485" type="line"/>
      <point x="220" y="485" type="line"/>
      <point x="220" y="187" type="line" smooth="yes"/>
      <point x="220" y="136"/>
      <point x="218" y="100"/>
      <point x="237" y="63" type="curve" smooth="yes"/>
      <point x="258" y="21"/>
      <point x="295" y="1"/>
    </contour>
  </outline>
</glyph>
<glyph name="upsilon" format="2">
  <advance width="570"/>
  <unicode hex="03C5"/>
  <outline>
    <contour>
      <point x="60" y="246" type="line" smooth="yes"/>
      <point x="60" y="98"/>
      <point x="129" y="-13"/>
      <point x="285" y="-13" type="curve" smooth="yes"/>
      <point x="441" y="-13"/>
      <point x="510" y="98"/>
      <point x="510" y="246" type="curve" smooth="yes"/>
      <point x="510" y="540" type="line"/>
      <point x="452" y="540" type="line"/>
      <point x="452" y="259" type="line" smooth="yes"/>
      <point x="452" y="123"/>
      <point x="398" y="43"/>
      <point x="285" y="43" type="curve" smooth="yes"/>
      <point x="172" y="43"/>
      <point x="118" y="123"/>
      <point x="118" y="259" type="curve" smooth="yes"/>
      <point x="118" y="540" type="line"/>
      <point x="60" y="540" type="line"/>
    </contour>
  </outline>
</glyph>
<glyph name="psi" format="2">
  <advance width="643"/>
  <unicode hex="03C8"/>
  <outline>
    <contour>
      <point x="293" y="-225" type="line"/>
      <point x="350" y="-225" type="line"/>
      <point x="350" y="-17" type="line"/>
      <point x="468" y="-14"/>
      <point x="553" y="56"/>
      <point x="586" y="147" type="curve" smooth="yes"/>
      <point x="602" y="190"/>
      <point x="603" y="227"/>
      <point x="603" y="247" type="curve" smooth="yes"/>
      <point x="603" y="540" type="line"/>
      <point x="546" y="540" type="line"/>
      <point x="546" y="292" type="line" smooth="yes"/>
      <point x="546" y="272"/>
      <point x="546" y="229"/>
      <point x="538" y="191" type="curve" smooth="yes"/>
      <point x="516" y="100"/>
      <point x="439" y="38"/>
      <point x="350" y="37" type="curve"/>
      <point x="350" y="540" type="line"/>
      <point x="293" y="540" type="line"/>
      <point x="293" y="37" type="line"/>
      <point x="204" y="38"/>
      <point x="128" y="99"/>
      <point x="106" y="190" type="curve" smooth="yes"/>
      <point x="96" y="228"/>
      <point x="96" y="271"/>
      <point x="96" y="292" type="curve" smooth="yes"/>
      <point x="96" y="540" type="line"/>
      <point x="40" y="540" type="line"/>
      <point x="40" y="247" type="line" smooth="yes"/>
      <point x="40" y="228"/>
      <point x="40" y="190"/>
      <point x="57" y="146" type="curve" smooth="yes"/>
      <point x="91" y="51"/>
      <point x="177" y="-14"/>
      <point x="293" y="-17" type="curve"/>
    </contour>
  </outline>
</glyph>
<glyph name="omega" format="2">
  <advance width="769"/>
  <unicode hex="03C9"/>
  <outline>
    <contour>
      <point x="238" y="-16" type="curve" smooth="yes"/>
      <point x="314" y="-16"/>
      <point x="378" y="23"/>
      <point x="393" y="111" type="curve"/>
      <point x="376" y="111" type="line"/>
      <point x="392" y="23"/>
      <point x="455" y="-16"/>
      <point x="532" y="-16" type="curve" smooth="yes"/>
      <point x="663" y="-16"/>
      <point x="729" y="88"/>
      <point x="729" y="239" type="curve" smooth="yes"/>
      <point x="729" y="382"/>
      <point x="675" y="486"/>
      <point x="545" y="555" type="curve"/>
      <point x="511" y="505" type="line"/>
      <point x="621" y="445"/>
      <point x="668" y="365"/>
      <point x="668" y="243" type="curve" smooth="yes"/>
      <point x="668" y="131"/>
      <point x="624" y="40"/>
      <point x="527" y="40" type="curve" smooth="yes"/>
      <point x="428" y="40"/>
      <point x="412" y="126"/>
      <point x="412" y="218" type="curve" smooth="yes"/>
      <point x="412" y="344" type="line"/>
      <point x="357" y="344" type="line"/>
      <point x="357" y="218" type="line" smooth="yes"/>
      <point x="357" y="124"/>
      <point x="340" y="40"/>
      <point x="242" y="40" type="curve" smooth="yes"/>
      <point x="147" y="40"/>
      <point x="102" y="128"/>
      <point x="102" y="243" type="curve" smooth="yes"/>
      <point x="102" y="363"/>
      <point x="146" y="444"/>
      <point x="258" y="505" type="curve"/>
      <point x="224" y="555" type="line"/>
      <point x="96" y="488"/>
      <point x="40" y="384"/>
      <point x="40" y="239" type="curve" smooth="yes"/>
      <point x="40" y="90"/>
      <point x="104" y="-16"/>
    </contour>
  </outline>
</glyph>
<glyph name="Dje-cy" format="2">
  <advance width="636"/>
  <unicode hex="0402"/>
  <outline>
    <contour>
      <point x="72" y="0" type="line"/>
      <point x="130" y="0" type="line"/>
      <point x="130" y="242" type="line" smooth="yes"/>
      <point x="130" y="284"/>
      <point x="130" y="332"/>
      <point x="142" y="374" type="curve" smooth="yes"/>
      <point x="167" y="460"/>
      <point x="234" y="498"/>
      <point x="336" y="498" type="curve" smooth="yes"/>
      <point x="468" y="498"/>
      <point x="538" y="435"/>
      <point x="538" y="289" type="curve" smooth="yes"/>
      <point x="538" y="143"/>
      <point x="471" y="58"/>
      <point x="348" y="58" type="curve"/>
      <point x="348" y="0" type="line"/>
      <point x="516" y="0"/>
      <point x="596" y="115"/>
      <point x="596" y="283" type="curve" smooth="yes"/>
      <point x="596" y="466"/>
      <point x="503" y="555"/>
      <point x="340" y="555" type="curve" smooth="yes"/>
      <point x="243" y="555"/>
      <point x="166" y="524"/>
      <point x="124" y="456" type="curve"/>
      <point x="124" y="665" type="line"/>
      <point x="285" y="665" type="line"/>
      <point x="285" y="720" type="line"/>
      <point x="0" y="720" type="line"/>
      <point x="0" y="665" type="line"/>
      <point x="72" y="665" type="line"/>
    </contour>
  </outline>
</glyph>
<glyph name="Kje-cy" format="2">
  <advance width="576"/>
  <unicode hex="040C"/>
  <outline>
    <contour>
      <point x="70" y="0" type="line"/>
      <point x="128" y="0" type="line"/>
      <point x="128" y="368" type="line"/>
      <point x="499" y="0" type="line"/>
      <point x="576" y="0" type="line"/>
      <point x="202" y="374" type="line"/>
      <point x="546" y="720" type="line"/>
      <point x="470" y="720" type="line"/>
      <point x="128" y="378" type="line"/>
      <point x="128" y="720" type="line"/>
      <point x="70" y="720" type="line"/>
    </contour>
    <component base="acutecomb" xOffset="84"/>
  </outline>
</glyph>
<glyph name="Dzhe-cy" format="2">
  <advance width="722"/>
  <unicode hex="040F"/>
  <outline>
    <contour>
      <point x="332" y="-120" type="line"/>
      <point x="390" y="-120" type="line"/>
      <point x="390" y="0" type="line"/>
      <point x="652" y="0" type="line"/>
      <point x="652" y="720" type="line"/>
      <point x="594" y="720" type="line"/>
      <point x="594" y="56" type="line"/>
      <point x="128" y="56" type="line"/>
      <point x="128" y="720" type="line"/>
      <point x="70" y="720" type="line"/>
      <point x="70" y="0" type="line"/>
      <point x="332" y="0" type="line"/>
    </contour>
  </outline>
</glyph>
<glyph name="Be-cy" format="2">
  <advance width="592"/>
  <unicode hex="0411"/>
  <outline>
    <contour>
      <point x="70" y="0" type="line"/>
      <point x="342" y="0" type="line" smooth="yes"/>
      <point x="356" y="0"/>
      <point x="372" y="1"/>
      <point x="390" y="4" type="curve" smooth="yes"/>
      <point x="497" y="19"/>
      <point x="562" y="109"/>
      <point x="562" y="218" type="curve" smooth="yes"/>
      <point x="562" y="327"/>
      <point x="497" y="417"/>
      <point x="390" y="432" type="curve" smooth="yes"/>
      <point x="372" y="435"/>
      <point x="355" y="436"/>
      <point x="342" y="436" type="curve" smooth="yes"/>
      <point x="128" y="436" type="line"/>
      <point x="128" y="664" type="line"/>
      <point x="502" y="664" type="line"/>
      <point x="502" y="720" type="line"/>
      <point x="70" y="720" type="line"/>
    </contour>
    <contour>
      <point x="128" y="56" type="line"/>
      <point x="128" y="380" type="line"/>
      <point x="340" y="380" type="line" smooth="yes"/>
      <point x="352" y="380"/>
      <point x="369" y="379"/>
      <point x="385" y="376" type="curve" smooth="yes"/>
      <point x="463" y="360"/>
      <point x="502" y="292"/>
      <point x="502" y="218" type="curve" smooth="yes"/>
      <point x="502" y="144"/>
      <point x="463" y="76"/>
      <point x="385" y="60" type="curve" smooth="yes"/>
      <point x="369" y="57"/>
      <point x="352" y="56"/>
      <point x="340" y="56" type="curve" smooth="yes"/>
    </contour>
  </outline>
</glyph>
<glyph name="De-cy" format="2">
  <advance width="733"/>
  <unicode hex="0414"/>
  <outline>
    <contour>
      <point x="38" y="-120" type="line"/>
      <point x="96" y="-120" type="line"/>
      <point x="96" y="0" type="line"/>
      <point x="635" y="0" type="line"/>
      <point x="635" y="-120" type="line"/>
      <point x="693" y="-120" type="line"/>
      <point x="693" y="56" type="line"/>
      <point x="642" y="56" type="line"/>
      <point x="642" y="720" type="line"/>
      <point x="206" y="720" type="line"/>
      <point x="198" y="559"/>
      <point x="195" y="447"/>
      <point x="180" y="311" type="curve" smooth="yes"/>
      <point x="166" y="190"/>
      <point x="156" y="56"/>
      <point x="38" y="56" type="curve"/>
    </contour>
    <contour>
      <point x="163" y="56" type="line"/>
      <point x="211" y="95"/>
      <point x="225" y="172"/>
      <point x="236" y="289" type="curve" smooth="yes"/>
      <point x="250" y="420"/>
      <point x="255" y="537"/>
      <point x="261" y="664" type="curve"/>
      <point x="584" y="664" type="line"/>
      <point x="584" y="56" type="line"/>
    </contour>
  </outline>
</glyph>
<glyph name="Zhe-cy" format="2">
  <advance width="882"/>
  <unicode hex="0416"/>
  <outline>
    <contour>
      <point x="10" y="0" type="line"/>
      <point x="86" y="0" type="line"/>
      <point x="412" y="366" type="line"/>
      <point x="412" y="0" type="line"/>
      <point x="470" y="0" type="line"/>
      <point x="470" y="366" type="line"/>
      <point x="796" y="0" type="line"/>
      <point x="872" y="0" type="line"/>
      <point x="537" y="374" type="line"/>
      <point x="842" y="720" type="line"/>
      <point x="767" y="720" type="line"/>
      <point x="470" y="380" type="line"/>
      <point x="470" y="720" type="line"/>
      <point x="412" y="720" type="line"/>
      <point x="412" y="380" type="line"/>
      <point x="115" y="720" type="line"/>
      <point x="40" y="720" type="line"/>
      <point x="345" y="374" type="line"/>
    </contour>
  </outline>
</glyph>
<glyph name="Ze-cy" format="2">
  <advance width="579"/>
  <unicode hex="0417"/>
  <outline>
    <contour>
      <point x="292" y="-15" type="curve" smooth="yes"/>
      <point x="450" y="-15"/>
      <point x="547" y="70"/>
      <point x="547" y="199" type="curve" smooth="yes"/>
      <point x="547" y="291"/>
      <point x="500" y="348"/>
      <point x="424" y="369" type="curve"/>
      <point x="481" y="396"/>
      <point x="523" y="457"/>
      <point x="523" y="539" type="curve" smooth="yes"/>
      <point x="523" y="669"/>
      <point x="418" y="735"/>
      <point x="298" y="735" type="curve" smooth="yes"/>
      <point x="182" y="735"/>
      <point x="98" y="674"/>
      <point x="54" y="585" type="curve"/>
      <point x="106" y="554" type="line"/>
      <point x="146" y="632"/>
      <point x="204" y="679"/>
      <point x="296" y="679" type="curve" smooth="yes"/>
      <point x="393" y="679"/>
      <point x="461" y="627"/>
      <point x="461" y="538" type="curve" smooth="yes"/>
      <point x="461" y="456"/>
      <point x="402" y="403"/>
      <point x="300" y="398" type="curve" smooth="yes"/>
      <point x="279" y="397"/>
      <point x="226" y="397"/>
      <point x="220" y="397" type="curve"/>
      <point x="220" y="341" type="line"/>
      <point x="229" y="341"/>
      <point x="229" y="341"/>
      <point x="302" y="338" type="curve" smooth="yes"/>
      <point x="406" y="334"/>
      <point x="486" y="306"/>
      <point x="486" y="201" type="curve" smooth="yes"/>
      <point x="486" y="102"/>
      <point x="415" y="41"/>
      <point x="294" y="41" type="curve" smooth="yes"/>
      <point x="181" y="41"/>
      <point x="111" y="96"/>
      <point x="87" y="168" type="curve"/>
      <point x="32" y="140" type="line"/>
      <point x="63" y="56"/>
      <point x="147" y="-15"/>
    </contour>
  </outline>
</glyph>
<glyph name="Iishort-cy" format="2">
  <advance width="673"/>
  <unicode hex="0419"/>
  <outline>
    <contour>
      <point x="70" y="0" type="line"/>
      <point x="128" y="0" type="line"/>
      <point x="545" y="618" type="line"/>
      <point x="545" y="0" type="line"/>
      <point x="603" y="0" type="line"/>
      <point x="603" y="720" type="line"/>
      <point x="545" y="720" type="line"/>
      <point x="128" y="102" type="line"/>
      <point x="128" y="720" type="line"/>
      <point x="70" y="720" type="line"/>
    </contour>
    <component base="brevecomb" xOffset="103"/>
  </outline>
</glyph>
<glyph name="El-cy" format="2">
  <advance width="692"/>
  <unicode hex="041B"/>
  <outline>
    <contour>
      <point x="20" y="0" type="line"/>
      <point x="150" y="-35"/>
      <point x="173" y="69"/>
      <point x="192" y="194" type="curve" smooth="yes"/>
      <point x="218" y="369"/>
      <point x="224" y="510"/>
      <point x="234" y="664" type="curve"/>
      <point x="564" y="664" type="line"/>
      <point x="564" y="0" type="line"/>
      <point x="622" y="0" type="line"/>
      <point x="622" y="720" type="line"/>
      <point x="176" y="720" type="line"/>
      <point x="168" y="515"/>
      <point x="157" y="379"/>
      <point x="134" y="225" type="curve" smooth="yes"/>
      <point x="110" y="68"/>
      <point x="97" y="46"/>
      <point x="20" y="54" type="curve"/>
    </contour>
  </outline>
</glyph>
<glyph name="U-cy" format="2">
  <advance width="618"/>
  <unicode hex="0423"/>
  <outline>
    <contour>
      <point x="200" y="0" type="line"/>
      <point x="264" y="0" type="line"/>
      <point x="598" y="720" type="line"/>
      <point x="536" y="720" type="line"/>
      <point x="307" y="226" type="line"/>
      <point x="82" y="720" type="line"/>
      <point x="18" y="720" type="line"/>
      <point x="277" y="163" type="line"/>
    </contour>
  </outline>
</glyph>
<glyph name="Ef-cy" format="2">
  <advance width="701"/>
  <unicode hex="0424"/>
  <outline>
    <contour>
      <point x="322" y="0" type="line"/>
      <point x="379" y="0" type="line"/>
      <point x="379" y="93" type="line"/>
      <point x="527" y="68"/>
      <point x="671" y="174"/>
      <point x="671" y="382" type="curve" smooth="yes"/>
      <point x="671" y="591"/>
      <point x="527" y="698"/>
      <point x="379" y="672" type="curve"/>
      <point x="379" y="720" type="line"/>
      <point x="322" y="720" type="line"/>
      <point x="322" y="672" type="line"/>
      <point x="174" y="698"/>
      <point x="30" y="591"/>
      <point x="30" y="382" type="curve" smooth="yes"/>
      <point x="30" y="174"/>
      <point x="174" y="68"/>
      <point x="322" y="93" type="curve"/>
    </contour>
    <contour>
      <point x="322" y="150" type="line"/>
      <point x="191" y="132"/>
      <point x="90" y="228"/>
      <point x="90" y="382" type="curve" smooth="yes"/>
      <point x="90" y="538"/>
      <point x="191" y="635"/>
      <point x="322" y="617" type="curve"/>
    </contour>
    <contour>
      <point x="379" y="150" type="curve"/>
      <point x="379" y="617" type="line"/>
      <point x="510" y="635"/>
      <point x="611" y="536"/>
      <point x="611" y="382" type="curve" smooth="yes"/>
      <point x="611" y="228"/>
      <point x="510" y="132"/>
    </contour>
  </outline>
</glyph>
<glyph name="Tse-cy" format="2">
  <advance width="705"/>
  <unicode hex="0426"/>
  <outline>
    <contour>
      <point x="638" y="-87" type="line"/>
      <point x="695" y="-87" type="line"/>
      <point x="695" y="55" type="line"/>
      <point x="620" y="55" type="line"/>
      <point x="620" y="717" type="line"/>
      <point x="562" y="717" type="line"/>
      <point x="562" y="55" type="line"/>
      <point x="128" y="55" type="line"/>
      <point x="128" y="720" type="line"/>
      <point x="70" y="720" type="line"/>
      <point x="70" y="0" type="line"/>
      <point x="638" y="0" type="line"/>
    </contour>
  </outline>
</glyph>
<glyph name="Che-cy" format="2">
  <advance width="637"/>
  <unicode hex="0427"/>
  <outline>
    <contour>
      <point x="509" y="0" type="line"/>
      <point x="567" y="0" type="line"/>
      <point x="567" y="720" type="line"/>
      <point x="509" y="720" type="line"/>
      <point x="509" y="321" type="line"/>
      <point x="525" y="379" type="line"/>
      <point x="492" y="347"/>
      <point x="422" y="314"/>
      <point x="330" y="314" type="curve" smooth="yes"/>
      <point x="186" y="314"/>
      <point x="128" y="398"/>
      <point x="128" y="544" type="curve" smooth="yes"/>
      <point x="128" y="720" type="line"/>
      <point x="70" y="720" type="line"/>
      <point x="70" y="522" type="line" smooth="yes"/>
      <point x="70" y="368"/>
      <point x="140" y="256"/>
      <point x="329" y="256" type="curve" smooth="yes"/>
      <point x="415" y="256"/>
      <point x="482" y="279"/>
      <point x="530" y="312" type="curve"/>
      <point x="509" y="344" type="line"/>
    </contour>
  </outline>
</glyph>
<glyph name="Shcha-cy" format="2">
  <advance width="908"/>
  <unicode hex="0429"/>
  <outline>
    <contour>
      <point x="841" y="-87" type="line"/>
      <point x="898" y="-87" type="line"/>
      <point x="898" y="55" type="line"/>
      <point x="771" y="55" type="line"/>
      <point x="771" y="0" type="line"/>
      <point x="841" y="0" type="line"/>
    </contour>
    <component base="Sha-cy"/>
  </outline>
</glyph>
<glyph name="Hardsign-cy" format="2">
  <advance width="604"/>
  <unicode hex="042A"/>
  <outline>
    <contour>
      <point x="83" y="0" type="line"/>
      <point x="355" y="0" type="line" smooth="yes"/>
      <point x="369" y="0"/>
      <point x="385" y="1"/>
      <point x="403" y="4" type="curve" smooth="yes"/>
      <point x="511" y="21"/>
      <point x="576" y="110"/>
      <point x="576" y="220" type="curve" smooth="yes"/>
      <point x="576" y="330"/>
      <point x="511" y="419"/>
      <point x="403" y="435" type="curve" smooth="yes"/>
      <point x="385" y="438"/>
      <point x="369" y="439"/>
      <point x="355" y="439" type="curve" smooth="yes"/>
      <point x="141" y="439" type="line"/>
      <point x="141" y="720" type="line"/>
      <point x="-8" y="720" type="line"/>
      <point x="-8" y="668" type="line"/>
      <point x="83" y="668" type="line"/>
    </contour>
    <contour>
      <point x="141" y="56" type="line"/>
      <point x="141" y="383" type="line"/>
      <point x="354" y="383" type="line" smooth="yes"/>
      <point x="365" y="383"/>
      <point x="382" y="382"/>
      <point x="398" y="379" type="curve" smooth="yes"/>
      <point x="476" y="363"/>
      <point x="516" y="294"/>
      <point x="516" y="220" type="curve" smooth="yes"/>
      <point x="516" y="146"/>
      <point x="476" y="76"/>
      <point x="398" y="60" type="curve" smooth="yes"/>
      <point x="382" y="57"/>
      <point x="365" y="56"/>
      <point x="354" y="56" type="curve" smooth="yes"/>
    </contour>
  </outline>
</glyph>
<glyph name="Softsign-cy" format="2">
  <advance width="602"/>
  <unicode hex="042C"/>
  <outline>
    <contour>
      <point x="70" y="0" type="line"/>
      <point x="342" y="0" type="line" smooth="yes"/>
      <point x="356" y="0"/>
      <point x="372" y="1"/>
      <point x="390" y="4" type="curve" smooth="yes"/>
      <point x="498" y="21"/>
      <point x="562" y="110"/>
      <point x="562" y="220" type="curve" smooth="yes"/>
      <point x="562" y="330"/>
      <point x="498" y="419"/>
      <point x="390" y="435" type="curve" smooth="yes"/>
      <point x="372" y="438"/>
      <point x="355" y="439"/>
      <point x="342" y="439" type="curve" smooth="yes"/>
      <point x="128" y="439" type="line"/>
      <point x="128" y="720" type="line"/>
      <point x="70" y="720" type="line"/>
    </contour>
    <contour>
      <point x="128" y="56" type="line"/>
      <point x="128" y="383" type="line"/>
      <point x="340" y="383" type="line" smooth="yes"/>
      <point x="352" y="383"/>
      <point x="369" y="382"/>
      <point x="385" y="379" type="curve" smooth="yes"/>
      <point x="463" y="363"/>
      <point x="502" y="294"/>
      <point x="502" y="220" type="curve" smooth="yes"/>
      <point x="502" y="146"/>
      <point x="463" y="76"/>
      <point x="385" y="60" type="curve" smooth="yes"/>
      <point x="369" y="57"/>
      <point x="352" y="56"/>
      <point x="340" y="56" type="curve" smooth="yes"/>
    </contour>
  </outline>
</glyph>
<glyph name="Ereversed-cy" format="2">
  <advance width="698"/>
  <unicode hex="042D"/>
  <outline>
    <contour>
      <point x="342" y="-15" type="curve" smooth="yes"/>
      <point x="555" y="-15"/>
      <point x="672" y="150"/>
      <point x="668" y="360" type="curve" smooth="yes"/>
      <point x="663" y="585"/>
      <point x="552" y="735"/>
      <point x="342" y="735" type="curve" smooth="yes"/>
      <point x="182" y="735"/>
      <point x="66" y="644"/>
      <point x="30" y="486" type="curve"/>
      <point x="89" y="477" type="line"/>
      <point x="117" y="601"/>
      <point x="208" y="676"/>
      <point x="340" y="678" type="curve" smooth="yes"/>
      <point x="507" y="680"/>
      <point x="597" y="559"/>
      <point x="606" y="388" type="curve"/>
      <point x="338" y="388" type="line"/>
      <point x="338" y="332" type="line"/>
      <point x="605" y="332" type="line"/>
      <point x="603" y="262"/>
      <point x="590" y="196"/>
      <point x="543" y="134" type="curve" smooth="yes"/>
      <point x="496" y="70"/>
      <point x="422" y="42"/>
      <point x="340" y="41" type="curve" smooth="yes"/>
      <point x="219" y="40"/>
      <point x="126" y="111"/>
      <point x="92" y="231" type="curve"/>
      <point x="35" y="215" type="line"/>
      <point x="71" y="71"/>
      <point x="187" y="-15"/>
    </contour>
  </outline>
</glyph>
<glyph name="Iu-cy" format="2">
  <advance width="908"/>
  <unicode hex="042E"/>
  <outline>
    <contour>
      <point x="70" y="0" type="line"/>
      <point x="128" y="0" type="line"/>
      <point x="128" y="331" type="line"/>
      <point x="343" y="331" type="line"/>
      <point x="343" y="389" type="line"/>
      <point x="128" y="389" type="line"/>
      <point x="128" y="720" type="line"/>
      <point x="70" y="720" type="line"/>
    </contour>
    <component base="Oval-condensed" xOffset="280"/>
  </outline>
</glyph>
<glyph name="be-cy" format="2">
  <advance width="578"/>
  <unicode hex="0431"/>
  <outline>
    <contour>
      <point x="284" y="-15" type="curve" smooth="yes"/>
      <point x="442" y="-16"/>
      <point x="538" y="89"/>
      <point x="538" y="251" type="curve" smooth="yes"/>
      <point x="538" y="409"/>
      <point x="447" y="516"/>
      <point x="301" y="516" type="curve" smooth="yes"/>
      <point x="215" y="516"/>
      <point x="141" y="480"/>
      <point x="100" y="414" type="curve"/>
      <point x="108" y="508"/>
      <point x="136" y="580"/>
      <point x="192" y="614" type="curve" smooth="yes"/>
      <point x="265" y="661"/>
      <point x="410" y="668"/>
      <point x="482" y="682" type="curve"/>
      <point x="474" y="735" type="line"/>
      <point x="385" y="717"/>
      <point x="244" y="716"/>
      <point x="164" y="662" type="curve" smooth="yes"/>
      <point x="120" y="634"/>
      <point x="86" y="588"/>
      <point x="70" y="538" type="curve" smooth="yes"/>
      <point x="53" y="485"/>
      <point x="39" y="367"/>
      <point x="40" y="282" type="curve" smooth="yes"/>
      <point x="43" y="80"/>
      <point x="134" y="-15"/>
    </contour>
    <contour>
      <point x="289" y="41" type="curve" smooth="yes"/>
      <point x="167" y="41"/>
      <point x="102" y="121"/>
      <point x="102" y="250" type="curve" smooth="yes"/>
      <point x="102" y="380"/>
      <point x="169" y="460"/>
      <point x="288" y="460" type="curve" smooth="yes"/>
      <point x="407" y="460"/>
      <point x="477" y="380"/>
      <point x="477" y="250" type="curve" smooth="yes"/>
      <point x="477" y="124"/>
      <point x="412" y="41"/>
    </contour>
  </outline>
</glyph>
<glyph name="ve-cy" format="2">
  <advance width="528"/>
  <unicode hex="0432"/>
  <outline>
    <contour>
      <point x="70" y="0" type="line"/>
      <point x="317" y="0" type="line" smooth="yes"/>
      <point x="342" y="0"/>
      <point x="375" y="0"/>
      <point x="402" y="8" type="curve" smooth="yes"/>
      <point x="459" y="24"/>
      <point x="498" y="70"/>
      <point x="498" y="145" type="curve" smooth="yes"/>
      <point x="498" y="196"/>
      <point x="480" y="236"/>
      <point x="441" y="261" type="curve" smooth="yes"/>
      <point x="429" y="268"/>
      <point x="417" y="274"/>
      <point x="407" y="276" type="curve"/>
      <point x="418" y="281"/>
      <point x="431" y="291"/>
      <point x="441" y="302" type="curve" smooth="yes"/>
      <point x="461" y="325"/>
      <point x="472" y="356"/>
      <point x="472" y="392" type="curve" smooth="yes"/>
      <point x="472" y="459"/>
      <point x="434" y="514"/>
      <point x="370" y="531" type="curve" smooth="yes"/>
      <point x="340" y="538"/>
      <point x="303" y="540"/>
      <point x="285" y="540" type="curve" smooth="yes"/>
      <point x="70" y="540" type="line"/>
    </contour>
    <contour>
      <point x="128" y="52" type="line"/>
      <point x="128" y="244" type="line"/>
      <point x="302" y="244" type="line" smooth="yes"/>
      <point x="316" y="244"/>
      <point x="334" y="244"/>
      <point x="350" y="241" type="curve" smooth="yes"/>
      <point x="403" y="234"/>
      <point x="437" y="198"/>
      <point x="437" y="146" type="curve" smooth="yes"/>
      <point x="437" y="106"/>
      <point x="418" y="69"/>
      <point x="373" y="58" type="curve" smooth="yes"/>
      <point x="355" y="54"/>
      <point x="329" y="52"/>
      <point x="315" y="52" type="curve" smooth="yes"/>
    </contour>
    <contour>
      <point x="128" y="296" type="line"/>
      <point x="128" y="488" type="line"/>
      <point x="284" y="488" type="line" smooth="yes"/>
      <point x="291" y="488"/>
      <point x="326" y="488"/>
      <point x="352" y="478" type="curve" smooth="yes"/>
      <point x="390" y="466"/>
      <point x="411" y="432"/>
      <point x="411" y="391" type="curve" smooth="yes"/>
      <point x="411" y="353"/>
      <point x="393" y="317"/>
      <point x="354" y="304" type="curve" smooth="yes"/>
      <point x="337" y="298"/>
      <point x="312" y="296"/>
      <point x="296" y="296" type="curve" smooth="yes"/>
    </contour>
  </outline>
</glyph>
<glyph name="de-cy" format="2">
  <advance width="587"/>
  <unicode hex="0434"/>
  <outline>
    <contour>
      <point x="30" y="-120" type="line"/>
      <point x="86" y="-120" type="line"/>
      <point x="86" y="0" type="line"/>
      <point x="500" y="0" type="line"/>
      <point x="500" y="-120" type="line"/>
      <point x="557" y="-120" type="line"/>
      <point x="557" y="52" type="line"/>
      <point x="506" y="52" type="line"/>
      <point x="506" y="540" type="line"/>
      <point x="164" y="540" type="line"/>
      <point x="156" y="353"/>
      <point x="149" y="258"/>
      <point x="131" y="174" type="curve" smooth="yes"/>
      <point x="114" y="91"/>
      <point x="92" y="52"/>
      <point x="30" y="52" type="curve"/>
    </contour>
    <contour>
      <point x="142" y="52" type="line"/>
      <point x="164" y="73"/>
      <point x="174" y="107"/>
      <point x="185" y="152" type="curve" smooth="yes"/>
      <point x="205" y="229"/>
      <point x="214" y="379"/>
      <point x="219" y="488" type="curve"/>
      <point x="448" y="488" type="line"/>
      <point x="448" y="52" type="line"/>
    </contour>
  </outline>
</glyph>
<glyph name="zhe-cy" format="2">
  <advance width="676"/>
  <unicode hex="0436"/>
  <outline>
    <contour>
      <point x="10" y="0" type="line"/>
      <point x="78" y="0" type="line"/>
      <point x="311" y="268" type="line"/>
      <point x="311" y="0" type="line"/>
      <point x="366" y="0" type="line"/>
      <point x="366" y="268" type="line"/>
      <point x="598" y="0" type="line"/>
      <point x="666" y="0" type="line"/>
      <point x="428" y="270" type="line"/>
      <point x="658" y="540" type="line"/>
      <point x="591" y="540" type="line"/>
      <point x="366" y="272" type="line"/>
      <point x="366" y="540" type="line"/>
      <point x="311" y="540" type="line"/>
      <point x="311" y="272" type="line"/>
      <point x="85" y="540" type="line"/>
      <point x="19" y="540" type="line"/>
      <point x="248" y="270" type="line"/>
    </contour>
  </outline>
</glyph>
<glyph name="ze-cy" format="2">
  <advance width="502"/>
  <unicode hex="0437"/>
  <outline>
    <contour>
      <point x="265" y="-15" type="curve" smooth="yes"/>
      <point x="378" y="-15"/>
      <point x="462" y="49"/>
      <point x="462" y="149" type="curve" smooth="yes"/>
      <point x="462" y="211"/>
      <point x="429" y="281"/>
      <point x="353" y="290" type="curve"/>
      <point x="358" y="266" type="line"/>
      <point x="414" y="292"/>
      <point x="449" y="336"/>
      <point x="449" y="401" type="curve" smooth="yes"/>
      <point x="449" y="497"/>
      <point x="371" y="555"/>
      <point x="267" y="555" type="curve" smooth="yes"/>
      <point x="177" y="555"/>
      <point x="105" y="524"/>
      <point x="53" y="462" type="curve"/>
      <point x="93" y="424" type="line"/>
      <point x="132" y="468"/>
      <point x="194" y="499"/>
      <point x="262" y="499" type="curve" smooth="yes"/>
      <point x="332" y="499"/>
      <point x="390" y="466"/>
      <point x="390" y="398" type="curve" smooth="yes"/>
      <point x="390" y="336"/>
      <point x="339" y="305"/>
      <point x="259" y="305" type="curve" smooth="yes"/>
      <point x="188" y="305" type="line"/>
      <point x="188" y="253" type="line"/>
      <point x="260" y="253" type="line" smooth="yes"/>
      <point x="361" y="253"/>
      <point x="403" y="223"/>
      <point x="403" y="154" type="curve" smooth="yes"/>
      <point x="403" y="84"/>
      <point x="346" y="41"/>
      <point x="260" y="41" type="curve" smooth="yes"/>
      <point x="178" y="41"/>
      <point x="115" y="80"/>
      <point x="75" y="153" type="curve"/>
      <point x="28" y="124" type="line"/>
      <point x="74" y="36"/>
      <point x="154" y="-15"/>
    </contour>
  </outline>
</glyph>
<glyph name="ka-cy" format="2">
  <advance width="482"/>
  <unicode hex="043A"/>
  <outline>
    <contour>
      <point x="70" y="0" type="line"/>
      <point x="128" y="0" type="line"/>
      <point x="128" y="260" type="line"/>
      <point x="413" y="0" type="line"/>
      <point x="502" y="0" type="line"/>
      <point x="197" y="270" type="line"/>
      <point x="464" y="540" type="line"/>
      <point x="384" y="540" type="line"/>
      <point x="128" y="280" type="line"/>
      <point x="128" y="540" type="line"/>
      <point x="70" y="540" type="line"/>
    </contour>
  </outline>
</glyph>
<glyph name="el-cy" format="2">
  <advance width="566"/>
  <unicode hex="043B"/>
  <outline>
    <contour>
      <point x="20" y="0" type="line"/>
      <point x="115" y="-18"/>
      <point x="137" y="16"/>
      <point x="153" y="95" type="curve" smooth="yes"/>
      <point x="169" y="176"/>
      <point x="183" y="325"/>
      <point x="194" y="484" type="curve"/>
      <point x="438" y="484" type="line"/>
      <point x="438" y="0" type="line"/>
      <point x="496" y="0" type="line"/>
      <point x="496" y="540" type="line"/>
      <point x="139" y="540" type="line"/>
      <point x="128" y="357"/>
      <point x="118" y="234"/>
      <point x="101" y="133" type="curve" smooth="yes"/>
      <point x="91" y="76"/>
      <point x="81" y="41"/>
      <point x="20" y="52" type="curve"/>
    </contour>
  </outline>
</glyph>
<glyph name="em-cy" format="2">
  <advance width="681"/>
  <unicode hex="043C"/>
  <outline>
    <contour>
      <point x="70" y="0" type="line"/>
      <point x="127" y="0" type="line"/>
      <point x="127" y="412" type="line"/>
      <point x="317" y="0" type="line"/>
      <point x="364" y="0" type="line"/>
      <point x="554" y="412" type="line"/>
      <point x="554" y="0" type="line"/>
      <point x="611" y="0" type="line"/>
      <point x="611" y="540" type="line"/>
      <point x="557" y="540" type="line"/>
      <point x="340" y="75" type="line"/>
      <point x="124" y="540" type="line"/>
      <point x="70" y="540" type="line"/>
    </contour>
  </outline>
</glyph>
<glyph name="te-cy" format="2">
  <advance width="498"/>
  <unicode hex="0442"/>
  <outline>
    <contour>
      <point x="220" y="0" type="line"/>
      <point x="278" y="0" type="line"/>
      <point x="278" y="485" type="line"/>
      <point x="473" y="485" type="line"/>
      <point x="473" y="540" type="line"/>
      <point x="25" y="540" type="line"/>
      <point x="25" y="485" type="line"/>
      <point x="220" y="485" type="line"/>
    </contour>
  </outline>
</glyph>
<glyph name="ef-cy" format="2">
  <advance width="709"/>
  <unicode hex="0444"/>
  <outline>
    <contour>
      <point x="327" y="-225" type="line"/>
      <point x="382" y="-225" type="line"/>
      <point x="382" y="-11" type="line"/>
      <point x="540" y="-36"/>
      <point x="669" y="72"/>
      <point x="669" y="269" type="curve" smooth="yes"/>
      <point x="669" y="467"/>
      <point x="540" y="576"/>
      <point x="382" y="551" type="curve"/>
      <point x="382" y="718" type="line"/>
      <point x="327" y="718" type="line"/>
      <point x="327" y="551" type="line"/>
      <point x="169" y="576"/>
      <point x="40" y="467"/>
      <point x="40" y="269" type="curve" smooth="yes"/>
      <point x="40" y="72"/>
      <point x="169" y="-36"/>
      <point x="327" y="-11" type="curve"/>
    </contour>
    <contour>
      <point x="327" y="44" type="line"/>
      <point x="220" y="27"/>
      <point x="100" y="90"/>
      <point x="100" y="269" type="curve" smooth="yes"/>
      <point x="100" y="449"/>
      <point x="219" y="513"/>
      <point x="327" y="495" type="curve"/>
    </contour>
    <contour>
      <point x="382" y="44" type="curve"/>
      <point x="382" y="495" type="line"/>
      <point x="490" y="513"/>
      <point x="608" y="449"/>
      <point x="608" y="269" type="curve" smooth="yes"/>
      <point x="608" y="89"/>
      <point x="489" y="27"/>
    </contour>
  </outline>
</glyph>
<glyph name="che-cy" format="2">
  <advance width="534"/>
  <unicode hex="0447"/>
  <outline>
    <contour>
      <point x="406" y="0" type="line"/>
      <point x="464" y="0" type="line"/>
      <point x="464" y="540" type="line"/>
      <point x="406" y="540" type="line"/>
      <point x="406" y="263" type="line"/>
      <point x="370" y="238"/>
      <point x="316" y="224"/>
      <point x="260" y="224" type="curve" smooth="yes"/>
      <point x="167" y="224"/>
      <point x="117" y="266"/>
      <point x="103" y="345" type="curve" smooth="yes"/>
      <point x="99" y="371"/>
      <point x="98" y="400"/>
      <point x="98" y="425" type="curve" smooth="yes"/>
      <point x="98" y="540" type="line"/>
      <point x="40" y="540" type="line"/>
      <point x="40" y="425" type="line" smooth="yes"/>
      <point x="40" y="410"/>
      <point x="40" y="355"/>
      <point x="50" y="313" type="curve" smooth="yes"/>
      <point x="70" y="222"/>
      <point x="141" y="173"/>
      <point x="250" y="173" type="curve" smooth="yes"/>
      <point x="313" y="173"/>
      <point x="370" y="189"/>
      <point x="406" y="208" type="curve"/>
    </contour>
  </outline>
</glyph>
<glyph name="sha-cy" format="2">
  <advance width="748"/>
  <unicode hex="0448"/>
  <outline>
    <contour>
      <point x="70" y="0" type="line"/>
      <point x="678" y="0" type="line"/>
      <point x="678" y="540" type="line"/>
      <point x="621" y="540" type="line"/>
      <point x="621" y="55" type="line"/>
      <point x="403" y="55" type="line"/>
      <point x="403" y="540" type="line"/>
      <point x="346" y="540" type="line"/>
      <point x="346" y="55" type="line"/>
      <point x="127" y="55" type="line"/>
      <point x="127" y="540" type="line"/>
      <point x="70" y="540" type="line"/>
    </contour>
  </outline>
</glyph>
<glyph name="hardsign-cy" format="2">
  <advance width="545"/>
  <unicode hex="044A"/>
  <outline>
    <contour>
      <point x="92" y="0" type="line"/>
      <point x="295" y="0" type="line" smooth="yes"/>
      <point x="326" y="0"/>
      <point x="356" y="1"/>
      <point x="384" y="7" type="curve" smooth="yes"/>
      <point x="451" y="22"/>
      <point x="505" y="73"/>
      <point x="505" y="165" type="curve" smooth="yes"/>
      <point x="505" y="266"/>
      <point x="445" y="310"/>
      <point x="369" y="324" type="curve" smooth="yes"/>
      <point x="346" y="328"/>
      <point x="318" y="329"/>
      <point x="286" y="329" type="curve" smooth="yes"/>
      <point x="150" y="329" type="line"/>
      <point x="150" y="540" type="line"/>
      <point x="20" y="540" type="line"/>
      <point x="20" y="488" type="line"/>
      <point x="92" y="488" type="line"/>
    </contour>
    <contour>
      <point x="150" y="52" type="line"/>
      <point x="150" y="276" type="line"/>
      <point x="287" y="276" type="line" smooth="yes"/>
      <point x="312" y="276"/>
      <point x="339" y="275"/>
      <point x="362" y="270" type="curve" smooth="yes"/>
      <point x="413" y="260"/>
      <point x="445" y="231"/>
      <point x="445" y="165" type="curve" smooth="yes"/>
      <point x="445" y="96"/>
      <point x="407" y="70"/>
      <point x="370" y="59" type="curve" smooth="yes"/>
      <point x="347" y="53"/>
      <point x="312" y="52"/>
      <point x="287" y="52" type="curve" smooth="yes"/>
    </contour>
  </outline>
</glyph>
<glyph name="yeru-cy" format="2">
  <advance width="647"/>
  <unicode hex="044B"/>
  <outline>
    <contour>
      <point x="71" y="0" type="line"/>
      <point x="242" y="0" type="line" smooth="yes"/>
      <point x="272" y="0"/>
      <point x="303" y="1"/>
      <point x="330" y="7" type="curve" smooth="yes"/>
      <point x="398" y="22"/>
      <point x="452" y="73"/>
      <point x="452" y="165" type="curve" smooth="yes"/>
      <point x="452" y="266"/>
      <point x="392" y="309"/>
      <point x="316" y="324" type="curve" smooth="yes"/>
      <point x="293" y="328"/>
      <point x="265" y="329"/>
      <point x="233" y="329" type="curve" smooth="yes"/>
      <point x="128" y="329" type="line"/>
      <point x="128" y="540" type="line"/>
      <point x="70" y="540" type="line"/>
    </contour>
    <contour>
      <point x="128" y="52" type="line"/>
      <point x="128" y="276" type="line"/>
      <point x="234" y="276" type="line" smooth="yes"/>
      <point x="258" y="276"/>
      <point x="286" y="275"/>
      <point x="309" y="270" type="curve" smooth="yes"/>
      <point x="360" y="260"/>
      <point x="392" y="231"/>
      <point x="392" y="165" type="curve" smooth="yes"/>
      <point x="392" y="96"/>
      <point x="354" y="70"/>
      <point x="317" y="59" type="curve" smooth="yes"/>
      <point x="294" y="53"/>
      <point x="259" y="52"/>
      <point x="234" y="52" type="curve" smooth="yes"/>
    </contour>
    <component base="idotless" xOffset="440"/>
  </outline>
</glyph>
<glyph name="softsign-cy" format="2">
  <advance width="524"/>
  <unicode hex="044C"/>
  <outline>
    <contour>
      <point x="71" y="0" type="line"/>
      <point x="273" y="0" type="line" smooth="yes"/>
      <point x="304" y="0"/>
      <point x="334" y="1"/>
      <point x="362" y="7" type="curve" smooth="yes"/>
      <point x="429" y="22"/>
      <point x="484" y="73"/>
      <point x="484" y="165" type="curve" smooth="yes"/>
      <point x="484" y="266"/>
      <point x="423" y="310"/>
      <point x="348" y="324" type="curve" smooth="yes"/>
      <point x="324" y="328"/>
      <point x="296" y="329"/>
      <point x="265" y="329" type="curve" smooth="yes"/>
      <point x="128" y="329" type="line"/>
      <point x="128" y="540" type="line"/>
      <point x="70" y="540" type="line"/>
    </contour>
    <contour>
      <point x="128" y="52" type="line"/>
      <point x="128" y="276" type="line"/>
      <point x="266" y="276" type="line" smooth="yes"/>
      <point x="290" y="276"/>
      <point x="317" y="275"/>
      <point x="340" y="270" type="curve" smooth="yes"/>
      <point x="391" y="260"/>
      <point x="423" y="231"/>
      <point x="423" y="165" type="curve" smooth="yes"/>
      <point x="423" y="96"/>
      <point x="386" y="70"/>
      <point x="348" y="59" type="curve" smooth="yes"/>
      <point x="325" y="53"/>
      <point x="290" y="52"/>
      <point x="266" y="52" type="curve" smooth="yes"/>
    </contour>
  </outline>
</glyph>
<glyph name="ereversed-cy" format="2">
  <advance width="546"/>
  <unicode hex="044D"/>
  <outline>
    <contour>
      <point x="257" y="-15" type="curve" smooth="yes"/>
      <point x="414" y="-15"/>
      <point x="506" y="97"/>
      <point x="506" y="270" type="curve" smooth="yes"/>
      <point x="506" y="442"/>
      <point x="416" y="555"/>
      <point x="259" y="555" type="curve" smooth="yes"/>
      <point x="150" y="555"/>
      <point x="66" y="501"/>
      <point x="34" y="413" type="curve"/>
      <point x="90" y="393" type="line"/>
      <point x="118" y="460"/>
      <point x="180" y="499"/>
      <point x="257" y="499" type="curve" smooth="yes"/>
      <point x="375" y="499"/>
      <point x="436" y="417"/>
      <point x="443" y="296" type="curve"/>
      <point x="181" y="296" type="line"/>
      <point x="181" y="244" type="line"/>
      <point x="443" y="244" type="line"/>
      <point x="434" y="120"/>
      <point x="373" y="41"/>
      <point x="256" y="41" type="curve" smooth="yes"/>
      <point x="180" y="41"/>
      <point x="122" y="77"/>
      <point x="92" y="145" type="curve"/>
      <point x="34" y="125" type="line"/>
      <point x="77" y="33"/>
      <point x="154" y="-15"/>
    </contour>
  </outline>
</glyph>
<glyph name="iu-cy" format="2">
  <advance width="771"/>
  <unicode hex="044E"/>
  <outline>
    <contour>
      <point x="480" y="-15" type="curve" smooth="yes"/>
      <point x="640" y="-15"/>
      <point x="731" y="101"/>
      <point x="731" y="271" type="curve" smooth="yes"/>
      <point x="731" y="438"/>
      <point x="641" y="555"/>
      <point x="479" y="555" type="curve" smooth="yes"/>
      <point x="333" y="555"/>
      <point x="242" y="455"/>
      <point x="233" y="299" type="curve"/>
      <point x="128" y="299" type="line"/>
      <point x="128" y="540" type="line"/>
      <point x="70" y="540" type="line"/>
      <point x="70" y="0" type="line"/>
      <point x="128" y="0" type="line"/>
      <point x="128" y="241" type="line"/>
      <point x="234" y="241" type="line"/>
      <point x="243" y="88"/>
      <point x="332" y="-15"/>
    </contour>
    <contour>
      <point x="478" y="41" type="curve" smooth="yes"/>
      <point x="355" y="41"/>
      <point x="290" y="132"/>
      <point x="290" y="271" type="curve" smooth="yes"/>
      <point x="290" y="414"/>
      <point x="358" y="499"/>
      <point x="479" y="499" type="curve" smooth="yes"/>
      <point x="606" y="499"/>
      <point x="670" y="410"/>
      <point x="670" y="271" type="curve" smooth="yes"/>
      <point x="670" y="133"/>
      <point x="608" y="41"/>
    </contour>
  </outline>
</glyph>
<glyph name="ia-cy" format="2">
  <advance width="542"/>
  <unicode hex="044F"/>
  <outline>
    <contour>
      <point x="414" y="0" type="line"/>
      <point x="472" y="0" type="line"/>
      <point x="472" y="540" type="line"/>
      <point x="269" y="540" type="line" smooth="yes"/>
      <point x="245" y="540"/>
      <point x="212" y="540"/>
      <point x="180" y="532" type="curve" smooth="yes"/>
      <point x="115" y="515"/>
      <point x="59" y="462"/>
      <point x="59" y="373" type="curve" smooth="yes"/>
      <point x="59" y="282"/>
      <point x="119" y="233"/>
      <point x="192" y="219" type="curve" smooth="yes"/>
      <point x="217" y="214"/>
      <point x="247" y="211"/>
      <point x="278" y="211" type="curve" smooth="yes"/>
      <point x="414" y="211" type="line"/>
    </contour>
    <contour>
      <point x="40" y="0" type="line"/>
      <point x="105" y="0" type="line"/>
      <point x="264" y="233" type="line"/>
      <point x="198" y="233" type="line"/>
    </contour>
    <contour>
      <point x="277" y="264" type="line" smooth="yes"/>
      <point x="258" y="264"/>
      <point x="229" y="264"/>
      <point x="203" y="270" type="curve" smooth="yes"/>
      <point x="154" y="282"/>
      <point x="119" y="316"/>
      <point x="119" y="374" type="curve" smooth="yes"/>
      <point x="119" y="437"/>
      <point x="160" y="469"/>
      <point x="195" y="479" type="curve" smooth="yes"/>
      <point x="222" y="487"/>
      <point x="259" y="488"/>
      <point x="277" y="488" type="curve" smooth="yes"/>
      <point x="414" y="488" type="line"/>
      <point x="414" y="264" type="line"/>
    </contour>
  </outline>
</glyph>
<glyph name="dje-cy" format="2">
  <advance width="584"/>
  <unicode hex="0452"/>
  <outline>
    <contour>
      <point x="462" y="-187" type="curve" smooth="yes"/>
      <point x="500" y="-180"/>
      <point x="524" y="-153"/>
      <point x="524" y="-94" type="curve" smooth="yes"/>
      <point x="524" y="296" type="line" smooth="yes"/>
      <point x="524" y="436"/>
      <point x="455" y="553"/>
      <point x="306" y="553" type="curve" smooth="yes"/>
      <point x="230" y="553"/>
      <point x="162" y="523"/>
      <point x="122" y="458" type="curve"/>
      <point x="122" y="597" type="line"/>
      <point x="248" y="597" type="line"/>
      <point x="248" y="649" type="line"/>
      <point x="122" y="649" type="line"/>
      <point x="122" y="720" type="line"/>
      <point x="70" y="720" type="line"/>
      <point x="70" y="649" type="line"/>
      <point x="3" y="649" type="line"/>
      <point x="3" y="597" type="line"/>
      <point x="70" y="597" type="line"/>
      <point x="70" y="0" type="line"/>
      <point x="128" y="0" type="line"/>
      <point x="128" y="292" type="line" smooth="yes"/>
      <point x="128" y="410"/>
      <point x="181" y="497"/>
      <point x="299" y="497" type="curve" smooth="yes"/>
      <point x="411" y="497"/>
      <point x="466" y="417"/>
      <point x="466" y="281" type="curve" smooth="yes"/>
      <point x="466" y="-57" type="line" smooth="yes"/>
      <point x="466" y="-130"/>
      <point x="447" y="-142"/>
      <point x="388" y="-133" type="curve"/>
      <point x="388" y="-183" type="line"/>
      <point x="406" y="-188"/>
      <point x="439" y="-192"/>
    </contour>
  </outline>
</glyph>
<glyph name="lje-cy" format="2">
  <advance width="831"/>
  <unicode hex="0459"/>
  <outline>
    <contour>
      <point x="20" y="0" type="line"/>
      <point x="115" y="-18"/>
      <point x="137" y="16"/>
      <point x="153" y="95" type="curve" smooth="yes"/>
      <point x="169" y="176"/>
      <point x="183" y="325"/>
      <point x="194" y="484" type="curve"/>
      <point x="409" y="484" type="line"/>
      <point x="410" y="0" type="line"/>
      <point x="581" y="0" type="line" smooth="yes"/>
      <point x="599" y="0"/>
      <point x="638" y="0"/>
      <point x="670" y="7" type="curve" smooth="yes"/>
      <point x="735" y="22"/>
      <point x="791" y="70"/>
      <point x="791" y="166" type="curve" smooth="yes"/>
      <point x="791" y="268"/>
      <point x="726" y="312"/>
      <point x="655" y="324" type="curve" smooth="yes"/>
      <point x="626" y="329"/>
      <point x="595" y="329"/>
      <point x="572" y="329" type="curve" smooth="yes"/>
      <point x="468" y="329" type="line"/>
      <point x="468" y="540" type="line"/>
      <point x="139" y="540" type="line"/>
      <point x="128" y="357"/>
      <point x="118" y="234"/>
      <point x="101" y="133" type="curve" smooth="yes"/>
      <point x="90" y="75"/>
      <point x="81" y="41"/>
      <point x="20" y="52" type="curve"/>
    </contour>
    <contour>
      <point x="468" y="52" type="line"/>
      <point x="468" y="276" type="line"/>
      <point x="573" y="276" type="line" smooth="yes"/>
      <point x="588" y="276"/>
      <point x="621" y="276"/>
      <point x="648" y="270" type="curve" smooth="yes"/>
      <point x="699" y="260"/>
      <point x="731" y="231"/>
      <point x="731" y="166" type="curve" smooth="yes"/>
      <point x="731" y="95"/>
      <point x="692" y="69"/>
      <point x="656" y="59" type="curve" smooth="yes"/>
      <point x="631" y="53"/>
      <point x="601" y="52"/>
      <point x="573" y="52" type="curve" smooth="yes"/>
    </contour>
  </outline>
</glyph>
<glyph name="nje-cy" format="2">
  <advance width="794"/>
  <unicode hex="045A"/>
  <outline>
    <contour>
      <point x="70" y="0" type="line"/>
      <point x="128" y="0" type="line"/>
      <point x="128" y="276" type="line"/>
      <point x="372" y="276" type="line"/>
      <point x="373" y="0" type="line"/>
      <point x="544" y="0" type="line" smooth="yes"/>
      <point x="562" y="0"/>
      <point x="601" y="0"/>
      <point x="633" y="7" type="curve" smooth="yes"/>
      <point x="698" y="22"/>
      <point x="754" y="70"/>
      <point x="754" y="166" type="curve" smooth="yes"/>
      <point x="754" y="268"/>
      <point x="689" y="312"/>
      <point x="618" y="324" type="curve" smooth="yes"/>
      <point x="589" y="329"/>
      <point x="558" y="329"/>
      <point x="536" y="329" type="curve" smooth="yes"/>
      <point x="431" y="329" type="line"/>
      <point x="431" y="540" type="line"/>
      <point x="372" y="540" type="line"/>
      <point x="372" y="329" type="line"/>
      <point x="128" y="329" type="line"/>
      <point x="128" y="540" type="line"/>
      <point x="70" y="540" type="line"/>
    </contour>
    <contour>
      <point x="431" y="52" type="line"/>
      <point x="431" y="276" type="line"/>
      <point x="536" y="276" type="line" smooth="yes"/>
      <point x="551" y="276"/>
      <point x="584" y="276"/>
      <point x="611" y="270" type="curve" smooth="yes"/>
      <point x="662" y="260"/>
      <point x="694" y="231"/>
      <point x="694" y="166" type="curve" smooth="yes"/>
      <point x="694" y="95"/>
      <point x="655" y="69"/>
      <point x="619" y="59" type="curve" smooth="yes"/>
      <point x="594" y="53"/>
      <point x="564" y="52"/>
      <point x="536" y="52" type="curve" smooth="yes"/>
    </contour>
  </outline>
</glyph>
<glyph name="dzhe-cy" format="2">
  <advance width="556"/>
  <unicode hex="045F"/>
  <outline>
    <contour>
      <point x="262" y="-120" type="line"/>
      <point x="319" y="-120" type="line"/>
      <point x="319" y="0" type="line"/>
      <point x="486" y="0" type="line"/>
      <point x="486" y="540" type="line"/>
      <point x="428" y="540" type="line"/>
      <point x="428" y="56" type="line"/>
      <point x="128" y="56" type="line"/>
      <point x="128" y="540" type="line"/>
      <point x="70" y="540" type="line"/>
      <point x="70" y="0" type="line"/>
      <point x="262" y="0" type="line"/>
    </contour>
  </outline>
</glyph>
<glyph name="gheupturn-cy" format="2">
  <advance width="460"/>
  <unicode hex="0491"/>
  <outline>
    <contour>
      <point x="70" y="0" type="line"/>
      <point x="128" y="0" type="line"/>
      <point x="128" y="484" type="line"/>
      <point x="435" y="484" type="line"/>
      <point x="435" y="627" type="line"/>
      <point x="377" y="627" type="line"/>
      <point x="377" y="540" type="line"/>
      <point x="70" y="540" type="line"/>
    </contour>
  </outline>
</glyph>
<glyph name="ustrait-cy" format="2">
  <advance width="493"/>
  <unicode hex="04AF"/>
  <outline>
    <contour>
      <point x="216" y="-180" type="line"/>
      <point x="277" y="-180" type="line"/>
      <point x="277" y="0" type="line"/>
      <point x="473" y="540" type="line"/>
      <point x="414" y="540" type="line"/>
      <point x="246" y="78" type="line"/>
      <point x="80" y="540" type="line"/>
      <point x="20" y="540" type="line"/>
      <point x="216" y="0" type="line"/>
    </contour>
  </outline>
</glyph>
<glyph name="Obarred-cy" format="2">
  <advance width="735"/>
  <unicode hex="04E8"/>
  <outline>
    <contour>
      <point x="78" y="331" type="line"/>
      <point x="650" y="331" type="line"/>
      <point x="650" y="389" type="line"/>
      <point x="78" y="389" type="line"/>
    </contour>
    <component base="O"/>
  </outline>
</glyph>
<glyph name="Germandbls" format="2">
  <advance width="587"/>
  <unicode hex="1E9E"/>
  <outline>
    <contour>
      <point x="307" y="-15" type="curve" smooth="yes"/>
      <point x="453" y="-15"/>
      <point x="527" y="74"/>
      <point x="527" y="210" type="curve" smooth="yes"/>
      <point x="527" y="340"/>
      <point x="423" y="439"/>
      <point x="302" y="419" type="curve"/>
      <point x="451" y="571" type="line"/>
      <point x="438" y="667"/>
      <point x="366" y="735"/>
      <point x="263" y="735" type="curve" smooth="yes"/>
      <point x="180" y="735"/>
      <point x="121" y="697"/>
      <point x="89" y="624" type="curve" smooth="yes"/>
      <point x="75" y="591"/>
      <point x="70" y="548"/>
      <point x="70" y="503" type="curve" smooth="yes"/>
      <point x="70" y="0" type="line"/>
      <point x="131" y="0" type="line"/>
      <point x="131" y="486" type="line" smooth="yes"/>
      <point x="131" y="530"/>
      <point x="133" y="569"/>
      <point x="146" y="600" type="curve" smooth="yes"/>
      <point x="170" y="653"/>
      <point x="216" y="679"/>
      <point x="263" y="679" type="curve" smooth="yes"/>
      <point x="322" y="679"/>
      <point x="373" y="644"/>
      <point x="388" y="584" type="curve"/>
      <point x="225" y="413" type="line"/>
      <point x="241" y="354" type="line"/>
      <point x="389" y="395"/>
      <point x="466" y="304"/>
      <point x="466" y="211" type="curve" smooth="yes"/>
      <point x="466" y="104"/>
      <point x="410" y="44"/>
      <point x="305" y="44" type="curve" smooth="yes"/>
      <point x="272" y="44"/>
      <point x="242" y="48"/>
      <point x="210" y="57" type="curve"/>
      <point x="210" y="0" type="line"/>
      <point x="238" y="-9"/>
      <point x="267" y="-15"/>
    </contour>
  </outline>
</glyph>
<glyph name="bullet" format="2">
  <advance width="637"/>
  <unicode hex="2022"/>
  <outline>
    <contour>
      <point x="320" y="207" type="curve" smooth="yes"/>
      <point x="378" y="207"/>
      <point x="427" y="253"/>
      <point x="427" y="315" type="curve" smooth="yes"/>
      <point x="427" y="377"/>
      <point x="378" y="423"/>
      <point x="320" y="423" type="curve" smooth="yes"/>
      <point x="259" y="423"/>
      <point x="210" y="377"/>
      <point x="210" y="315" type="curve" smooth="yes"/>
      <point x="210" y="253"/>
      <point x="259" y="207"/>
    </contour>
  </outline>
</glyph>
<glyph name="fraction" format="2">
  <advance width="198"/>
  <unicode hex="2044"/>
  <outline>
    <contour>
      <point x="-147" y="0" type="line"/>
      <point x="388" y="687" type="line"/>
      <point x="346" y="721" type="line"/>
      <point x="-190" y="34" type="line"/>
    </contour>
  </outline>
</glyph>
<glyph name="zerosuperior" format="2">
  <advance width="438"/>
  <unicode hex="2070"/>
  <outline>
    <contour>
      <point x="219" y="258" type="curve" smooth="yes"/>
      <point x="305" y="258"/>
      <point x="368" y="322"/>
      <point x="368" y="409" type="curve" smooth="yes"/>
      <point x="368" y="578" type="line" smooth="yes"/>
      <point x="368" y="666"/>
      <point x="304" y="729"/>
      <point x="219" y="729" type="curve" smooth="yes"/>
      <point x="133" y="729"/>
      <point x="70" y="665"/>
      <point x="70" y="578" type="curve" smooth="yes"/>
      <point x="70" y="409" type="line" smooth="yes"/>
      <point x="70" y="322"/>
      <point x="133" y="258"/>
    </contour>
    <contour>
      <point x="219" y="305" type="curve" smooth="yes"/>
      <point x="162" y="305"/>
      <point x="119" y="350"/>
      <point x="119" y="408" type="curve" smooth="yes"/>
      <point x="119" y="580" type="line" smooth="yes"/>
      <point x="119" y="638"/>
      <point x="163" y="682"/>
      <point x="219" y="682" type="curve" smooth="yes"/>
      <point x="275" y="682"/>
      <point x="319" y="638"/>
      <point x="319" y="580" type="curve" smooth="yes"/>
      <point x="319" y="408" type="line" smooth="yes"/>
      <point x="319" y="350"/>
      <point x="275" y="305"/>
    </contour>
  </outline>
</glyph>
<glyph name="foursuperior" format="2">
  <advance width="407"/>
  <unicode hex="2074"/>
  <outline>
    <contour>
      <point x="260" y="270" type="line"/>
      <point x="309" y="270" type="line"/>
      <point x="309" y="356" type="line"/>
      <point x="357" y="356" type="line"/>
      <point x="357" y="402" type="line"/>
      <point x="309" y="402" type="line"/>
      <point x="309" y="533" type="line"/>
      <point x="260" y="533" type="line"/>
      <point x="260" y="402" type="line"/>
      <point x="105" y="402" type="line"/>
      <point x="255" y="720" type="line"/>
      <point x="200" y="720" type="line"/>
      <point x="50" y="402" type="line"/>
      <point x="50" y="356" type="line"/>
      <point x="260" y="356" type="line"/>
    </contour>
  </outline>
</glyph>
<glyph name="fivesuperior" format="2">
  <advance width="399"/>
  <unicode hex="2075"/>
  <outline>
    <contour>
      <point x="196" y="260" type="curve" smooth="yes"/>
      <point x="280" y="260"/>
      <point x="349" y="328"/>
      <point x="349" y="411" type="curve" smooth="yes"/>
      <point x="349" y="494"/>
      <point x="284" y="560"/>
      <point x="202" y="560" type="curve" smooth="yes"/>
      <point x="158" y="560"/>
      <point x="118" y="541"/>
      <point x="93" y="507" type="curve"/>
      <point x="109" y="485" type="line"/>
      <point x="120" y="692" type="line"/>
      <point x="99" y="674" type="line"/>
      <point x="318" y="674" type="line"/>
      <point x="318" y="720" type="line"/>
      <point x="77" y="720" type="line"/>
      <point x="64" y="486" type="line"/>
      <point x="107" y="467" type="line"/>
      <point x="125" y="495"/>
      <point x="156" y="515"/>
      <point x="197" y="515" type="curve" smooth="yes"/>
      <point x="253" y="515"/>
      <point x="301" y="469"/>
      <point x="301" y="411" type="curve" smooth="yes"/>
      <point x="301" y="355"/>
      <point x="256" y="308"/>
      <point x="197" y="308" type="curve" smooth="yes"/>
      <point x="152" y="308"/>
      <point x="108" y="338"/>
      <point x="96" y="385" type="curve"/>
      <point x="50" y="373" type="line"/>
      <point x="68" y="307"/>
      <point x="126" y="260"/>
    </contour>
  </outline>
</glyph>
<glyph name="sixsuperior" format="2">
  <advance width="444"/>
  <unicode hex="2076"/>
  <outline>
    <contour>
      <point x="224" y="257" type="curve" smooth="yes"/>
      <point x="308" y="257"/>
      <point x="378" y="325"/>
      <point x="378" y="409" type="curve" smooth="yes"/>
      <point x="378" y="492"/>
      <point x="313" y="558"/>
      <point x="229" y="558" type="curve" smooth="yes"/>
      <point x="176" y="558"/>
      <point x="129" y="528"/>
      <point x="104" y="482" type="curve"/>
      <point x="120" y="463" type="line"/>
      <point x="120" y="574" type="line" smooth="yes"/>
      <point x="120" y="632"/>
      <point x="165" y="682"/>
      <point x="227" y="682" type="curve" smooth="yes"/>
      <point x="264" y="682"/>
      <point x="297" y="663"/>
      <point x="316" y="634" type="curve"/>
      <point x="354" y="666" type="line"/>
      <point x="325" y="705"/>
      <point x="279" y="729"/>
      <point x="227" y="729" type="curve" smooth="yes"/>
      <point x="137" y="729"/>
      <point x="70" y="662"/>
      <point x="70" y="569" type="curve" smooth="yes"/>
      <point x="70" y="414" type="line" smooth="yes"/>
      <point x="70" y="325"/>
      <point x="138" y="257"/>
    </contour>
    <contour>
      <point x="224" y="304" type="curve" smooth="yes"/>
      <point x="166" y="304"/>
      <point x="120" y="351"/>
      <point x="120" y="409" type="curve" smooth="yes"/>
      <point x="120" y="466"/>
      <point x="166" y="512"/>
      <point x="224" y="512" type="curve" smooth="yes"/>
      <point x="282" y="512"/>
      <point x="328" y="466"/>
      <point x="328" y="409" type="curve" smooth="yes"/>
      <point x="328" y="351"/>
      <point x="282" y="304"/>
    </contour>
  </outline>
</glyph>
